<svg width="113" height="44" viewBox="0 0 113 44" fill="none" xmlns="http://www.w3.org/2000/svg">
<path d="M13.029 13.4766V9.97656H1.729V34.0236H13.029V30.5236C10.7142 30.5236 8.49416 29.6256 6.85738 28.0271C5.22057 26.4286 4.30102 24.2607 4.30102 22.0001C4.30102 19.7395 5.22057 17.5715 6.85738 15.9731C8.49416 14.3746 10.7142 13.4766 13.029 13.4766Z" fill="white" fill-opacity="0.5"/>
<path d="M13.0288 13.4766V30.5236C15.3436 30.5236 17.5637 29.6256 19.2005 28.0271C20.8373 26.4286 21.7568 24.2607 21.7568 22.0001C21.7568 19.7395 20.8373 17.5715 19.2005 15.9731C17.5637 14.3746 15.3436 13.4766 13.0288 13.4766Z" fill="white" fill-opacity="0.5"/>
<path d="M28.0981 15.6172H30.628V27.5172H28.0981V15.6172Z" fill="white" fill-opacity="0.5"/>
<path d="M32.0448 23.4416C32.0448 22.5855 32.3052 21.7486 32.7927 21.0371C33.2803 20.3255 33.9733 19.7714 34.7837 19.4448C35.5942 19.1184 36.4856 19.0342 37.3451 19.2031C38.2046 19.3719 38.9934 19.7861 39.6115 20.3932C40.2297 21.0004 40.6494 21.773 40.8173 22.6134C40.9852 23.4537 40.894 24.3238 40.555 25.1134C40.216 25.9029 39.6447 26.5764 38.9133 27.0485C38.1819 27.5206 37.3235 27.77 36.4468 27.7651C35.8653 27.7696 35.2888 27.6606 34.751 27.4445C34.2133 27.2285 33.725 26.9098 33.315 26.5072C32.905 26.1045 32.5815 25.6258 32.3633 25.0994C32.1453 24.573 32.037 24.0094 32.0448 23.4416ZM38.3863 23.4416C38.3764 23.0725 38.2552 22.7144 38.038 22.4123C37.8207 22.11 37.5172 21.8771 37.165 21.7425C36.8129 21.6079 36.4281 21.5777 36.0585 21.6557C35.6889 21.7336 35.3511 21.9162 35.0872 22.1807C34.8234 22.4451 34.6452 22.7796 34.575 23.1425C34.5049 23.5053 34.5458 23.8803 34.6927 24.2205C34.8396 24.5607 35.0859 24.8512 35.4009 25.0553C35.7159 25.2595 36.0855 25.3685 36.4636 25.3687C36.7211 25.3736 36.9768 25.3266 37.2148 25.2306C37.4527 25.1346 37.6678 24.9917 37.8467 24.8109C38.0256 24.63 38.1643 24.415 38.2543 24.1795C38.3442 23.9439 38.3835 23.6927 38.3695 23.4416H38.3863Z" fill="white" fill-opacity="0.5"/>
<path d="M50.8582 19.3651V27.1145C50.8582 29.8486 48.6656 31.0098 46.4478 31.0098C45.6655 31.0725 44.8808 30.9207 44.1822 30.5715C43.4834 30.2223 42.8983 29.6896 42.4928 29.0333L44.6263 27.831C44.7992 28.1714 45.0742 28.4522 45.4147 28.6361C45.7552 28.82 46.145 28.8983 46.5321 28.8604C46.7788 28.89 47.0291 28.8661 47.2651 28.7904C47.5012 28.7145 47.7172 28.5888 47.8977 28.4219C48.0782 28.2551 48.2187 28.0514 48.3092 27.8254C48.3997 27.5994 48.4379 27.3566 48.4211 27.1145V26.3651C48.1267 26.7137 47.7531 26.9904 47.3301 27.1734C46.9071 27.3564 46.4462 27.4405 45.984 27.4192C44.8657 27.4192 43.7933 26.9854 43.0026 26.2131C42.2118 25.441 41.7676 24.3936 41.7676 23.3016C41.7676 22.2095 42.2118 21.1622 43.0026 20.39C43.7933 19.6177 44.8657 19.1839 45.984 19.1839C46.4462 19.1626 46.9071 19.2467 47.3301 19.4297C47.7531 19.6127 48.1267 19.8894 48.4211 20.238V19.4145L50.8582 19.3651ZM48.4211 23.2768C48.4379 22.8829 48.3336 22.4929 48.1217 22.1573C47.9098 21.8216 47.6 21.5555 47.2319 21.3932C46.8639 21.2309 46.4546 21.1798 46.0566 21.2465C45.6587 21.3132 45.2901 21.4946 44.9986 21.7675C44.7071 22.0403 44.5058 22.3921 44.4206 22.7776C44.3355 23.1631 44.3703 23.5646 44.5206 23.9306C44.6711 24.2965 44.9301 24.6102 45.2645 24.8313C45.599 25.0523 45.9934 25.1706 46.3972 25.171C46.6607 25.1895 46.9253 25.1538 47.1737 25.0664C47.4222 24.9788 47.6492 24.8414 47.8399 24.6628C48.0307 24.4844 48.1809 24.2688 48.281 24.03C48.3811 23.7913 48.4288 23.5347 48.4211 23.2768Z" fill="white" fill-opacity="0.5"/>
<path d="M52.2835 23.4407C52.2835 22.5853 52.5434 21.749 53.0302 21.0378C53.5171 20.3266 54.209 19.7725 55.0184 19.4455C55.8279 19.1185 56.7185 19.0334 57.5775 19.2009C58.4366 19.3684 59.2254 19.781 59.8443 20.3864C60.4631 20.992 60.8841 21.7631 61.0539 22.6023C61.2238 23.4416 61.1349 24.3111 60.7986 25.101C60.4622 25.8909 59.8934 26.5655 59.1643 27.0396C58.4351 27.5137 57.5783 27.7659 56.7023 27.7643C56.1198 27.7698 55.5419 27.6617 55.0027 27.4462C54.4635 27.2308 53.9737 26.9124 53.5622 26.5097C53.1506 26.107 52.8255 25.6281 52.6059 25.1011C52.3864 24.5742 52.2768 24.0096 52.2835 23.4407ZM58.625 23.4407C58.615 23.0713 58.4936 22.7129 58.276 22.4105C58.0585 22.1082 57.7543 21.8752 57.4017 21.7409C57.0491 21.6066 56.6638 21.5768 56.2941 21.6555C55.9243 21.734 55.5865 21.9175 55.3229 22.1828C55.0594 22.4481 54.8819 22.7834 54.8128 23.1467C54.7435 23.5101 54.7856 23.8853 54.9338 24.2253C55.0819 24.5654 55.3296 24.8552 55.6458 25.0585C55.9618 25.2616 56.3323 25.3693 56.7107 25.3678C56.9682 25.3727 57.2239 25.3257 57.4618 25.2297C57.6998 25.1337 57.9149 24.9909 58.0938 24.81C58.2727 24.6292 58.4114 24.4141 58.5014 24.1786C58.5913 23.943 58.6306 23.6918 58.6166 23.4407H58.625Z" fill="white" fill-opacity="0.5"/>
<path d="M62.2935 17.1827C62.2935 16.8928 62.3815 16.6093 62.5464 16.3683C62.7114 16.1272 62.9458 15.9393 63.2201 15.8284C63.4944 15.7174 63.7962 15.6884 64.0874 15.745C64.3785 15.8015 64.646 15.9411 64.8559 16.1461C65.0658 16.3512 65.2088 16.6124 65.2667 16.8967C65.3246 17.181 65.2949 17.4758 65.1813 17.7437C65.0677 18.0115 64.8752 18.2404 64.6284 18.4015C64.3816 18.5626 64.0914 18.6486 63.7945 18.6486C63.3977 18.6443 63.0185 18.4885 62.738 18.2145C62.4574 17.9405 62.2978 17.5702 62.2935 17.1827ZM62.538 19.365H65.0679V27.518H62.538V19.365Z" fill="white" fill-opacity="0.5"/>
<path d="M75.8956 23.4411C75.924 23.9833 75.8423 24.5257 75.6551 25.0369C75.4681 25.5482 75.1793 26.0182 74.8054 26.42C74.4315 26.8219 73.98 27.1476 73.4768 27.3783C72.9736 27.6091 72.4286 27.7403 71.8732 27.7646C71.4019 27.7953 70.9295 27.7216 70.4915 27.549C70.0535 27.3764 69.661 27.1095 69.3433 26.7682V30.7952H66.8135V19.3646H69.3433V20.1305C69.6614 19.7901 70.0542 19.5245 70.4923 19.3533C70.9304 19.1821 71.4025 19.11 71.8732 19.1423C72.4264 19.1666 72.9692 19.2971 73.4707 19.5263C73.9722 19.7555 74.4226 20.079 74.7961 20.4781C75.1697 20.8773 75.459 21.3444 75.6476 21.8528C75.8363 22.3612 75.9206 22.9009 75.8956 23.4411ZM73.3658 23.4411C73.3558 23.0586 73.2304 22.6875 73.0054 22.3743C72.7805 22.0611 72.4657 21.8196 72.1009 21.6804C71.736 21.541 71.3371 21.5101 70.9542 21.5912C70.5713 21.6723 70.2215 21.8621 69.9485 22.1365C69.6756 22.411 69.4917 22.7581 69.4199 23.1342C69.348 23.5104 69.3915 23.8988 69.5448 24.251C69.6981 24.603 69.9544 24.9031 70.2816 25.1136C70.6088 25.3241 70.9923 25.4355 71.3841 25.434C71.6524 25.4452 71.9201 25.4008 72.1697 25.3038C72.4193 25.2067 72.645 25.0593 72.8322 24.8712C73.0193 24.683 73.1635 24.4582 73.2555 24.2118C73.3475 23.9654 73.385 23.7027 73.3658 23.4411Z" fill="white" fill-opacity="0.5"/>
<path d="M83.5945 25.0717C83.5945 26.9493 81.908 27.7481 80.1202 27.7481C79.391 27.8122 78.659 27.6613 78.0186 27.3148C77.3782 26.9683 76.8589 26.4423 76.5278 25.8046L78.7035 24.6023C78.7897 24.8961 78.9766 25.1521 79.2329 25.3275C79.4893 25.503 79.7995 25.587 80.1118 25.5658C80.7105 25.5658 81.0141 25.3846 81.0141 25.0552C81.0141 24.1576 76.9073 24.6352 76.9073 21.8105C76.9073 20.0317 78.4421 19.1423 80.1792 19.1423C80.8395 19.1134 81.4956 19.2597 82.0776 19.5656C82.6596 19.8716 83.1459 20.3258 83.4849 20.8799L81.3092 21.9999C81.2131 21.7874 81.0561 21.6068 80.8571 21.4796C80.658 21.3524 80.4255 21.2843 80.1877 21.2834C79.7492 21.2834 79.4878 21.4481 79.4878 21.7364C79.4878 22.6752 83.5945 22.0576 83.5945 25.0717Z" fill="white" fill-opacity="0.5"/>
<path d="M92.7611 19.3652V27.5182H90.2313V26.7523C89.9437 27.0913 89.5785 27.3596 89.1662 27.5356C88.753 27.7115 88.3035 27.7902 87.8532 27.7652C86.1666 27.7652 84.7246 26.5876 84.7246 24.3888V19.3652H87.2545V24.0182C87.2342 24.2127 87.2578 24.4091 87.3236 24.5939C87.3894 24.7786 87.4948 24.9473 87.6331 25.0883C87.7722 25.2292 87.9409 25.339 88.1273 25.4103C88.3136 25.4814 88.5135 25.5122 88.7133 25.5005C89.6241 25.5005 90.265 24.9735 90.265 23.8535V19.3652H92.7611Z" fill="white" fill-opacity="0.5"/>
<path d="M107.097 22.5104V27.5175H104.567V22.7245C104.567 21.901 104.171 21.3904 103.37 21.3904C102.569 21.3904 102.063 21.9586 102.063 22.9222V27.5175H99.5329V22.7245C99.5329 21.901 99.1366 21.3904 98.3355 21.3904C97.5344 21.3904 97.0284 21.9586 97.0284 22.9222V27.5175H94.4985V19.3645H97.0284V20.1139C97.2906 19.7829 97.6322 19.5207 98.0243 19.351C98.4156 19.1814 98.8448 19.1096 99.2715 19.1422C99.6991 19.1203 100.126 19.2076 100.509 19.3953C100.891 19.583 101.218 19.8647 101.456 20.2128C101.734 19.8491 102.102 19.5602 102.525 19.373C102.947 19.1857 103.413 19.1063 103.876 19.1422C105.849 19.1422 107.097 20.4763 107.097 22.5104Z" fill="white" fill-opacity="0.5"/>
<path d="M109.222 19.3149C110.247 19.3149 111.077 18.5038 111.077 17.5032C111.077 16.5026 110.247 15.6914 109.222 15.6914C108.197 15.6914 107.367 16.5026 107.367 17.5032C107.367 18.5038 108.197 19.3149 109.222 19.3149Z" fill="white" fill-opacity="0.5"/>
</svg>
