<svg width="113" height="44" viewBox="0 0 113 44" fill="none" xmlns="http://www.w3.org/2000/svg">
<path d="M33.5991 16.811H36.333V27.4247H33.5991V16.811ZM37.4174 23.4172C37.4174 20.7922 39.0942 19.226 41.6823 19.226C44.2703 19.226 45.9471 20.7922 45.9471 23.4172C45.9471 26.0422 44.3068 27.6172 41.6823 27.6172C39.0578 27.6172 37.4174 26.086 37.4174 23.4172ZM43.2041 23.4172C43.2041 21.9735 42.6118 21.1247 41.6823 21.1247C40.7528 21.1247 40.1695 21.9997 40.1695 23.4172C40.1695 24.8347 40.7436 25.6922 41.6823 25.6922C42.6209 25.6922 43.2041 24.8872 43.2041 23.426V23.4172ZM46.9769 27.941H49.6014C49.7263 28.2074 49.9375 28.428 50.2035 28.5699C50.4695 28.7118 50.7761 28.7674 51.0777 28.7285C52.1165 28.7285 52.6633 28.186 52.6633 27.3985V25.9285H52.6086C52.3908 26.379 52.0373 26.7565 51.5939 27.0123C51.1505 27.2681 50.6373 27.3904 50.1208 27.3635C48.1251 27.3635 46.8037 25.9022 46.8037 23.391C46.8037 20.8797 48.0613 19.296 50.1573 19.296C50.69 19.2759 51.2164 19.4127 51.6659 19.6879C52.1154 19.9632 52.4667 20.3637 52.6724 20.836V19.3747H55.4063V27.3372C55.4063 29.2535 53.6475 30.4435 51.0503 30.4435C48.6354 30.4435 47.1318 29.4022 46.9769 27.9497V27.941ZM52.6724 23.4085C52.6724 22.131 52.0619 21.326 51.0959 21.326C50.1299 21.326 49.5376 22.1222 49.5376 23.4085C49.5376 24.6947 50.1208 25.421 51.0959 25.421C52.071 25.421 52.6724 24.7122 52.6724 23.4172V23.4085ZM56.4361 23.4085C56.4361 20.7835 58.1128 19.2172 60.7009 19.2172C63.289 19.2172 64.9748 20.7835 64.9748 23.4085C64.9748 26.0335 63.3345 27.6085 60.7009 27.6085C58.0673 27.6085 56.4361 26.086 56.4361 23.4172V23.4085ZM62.2227 23.4085C62.2227 21.9647 61.6304 21.116 60.7009 21.116C59.7714 21.116 59.2337 21.9997 59.2337 23.426C59.2337 24.8522 59.8078 25.701 60.7373 25.701C61.6669 25.701 62.2227 24.8872 62.2227 23.426V23.4085ZM66.0137 17.4672C66.0065 17.2022 66.0815 16.9411 66.2291 16.717C66.3767 16.4929 66.5902 16.316 66.8426 16.2086C67.0951 16.1011 67.375 16.0681 67.647 16.1137C67.919 16.1592 68.1708 16.2813 68.3705 16.4644C68.5703 16.6475 68.7088 16.8834 68.7686 17.1423C68.8285 17.4011 68.807 17.6711 68.7068 17.9182C68.6066 18.1652 68.4323 18.3782 68.2059 18.53C67.9796 18.6818 67.7114 18.7657 67.4353 18.771C67.2523 18.7831 67.0687 18.7586 66.896 18.6993C66.7233 18.64 66.5652 18.5471 66.4317 18.4262C66.2982 18.3055 66.1922 18.1594 66.1202 17.9974C66.0483 17.8354 66.012 17.6609 66.0137 17.4847V17.4672ZM66.0137 19.3922H68.7476V27.4247H66.0137V19.3922ZM78.6715 23.4085C78.6715 26.0335 77.4595 27.5297 75.3818 27.5297C74.849 27.5625 74.3186 27.4375 73.8622 27.1715C73.4058 26.9054 73.0456 26.5112 72.8302 26.0422H72.7755V29.9972H70.0416V19.3747H72.7755V20.8097H72.8302C73.0356 20.3329 73.389 19.9285 73.8423 19.6514C74.2955 19.3743 74.8267 19.238 75.3636 19.261C77.4595 19.296 78.708 20.801 78.708 23.426L78.6715 23.4085ZM75.9377 23.4085C75.9377 22.131 75.3271 21.3172 74.3703 21.3172C73.4134 21.3172 72.8028 22.1397 72.7937 23.4085C72.7846 24.6772 73.4134 25.491 74.3703 25.491C75.3271 25.491 75.9377 24.6947 75.9377 23.426V23.4085ZM83.3647 19.2085C85.6338 19.2085 87.0098 20.241 87.0736 21.8947H84.5858C84.5858 21.326 84.0937 20.9672 83.3373 20.9672C82.581 20.9672 82.2438 21.2472 82.2438 21.6585C82.2438 22.0697 82.5445 22.201 83.1551 22.3235L84.9048 22.6647C86.5724 23.006 87.2832 23.6535 87.2832 24.8697C87.2832 26.5322 85.7067 27.5997 83.3829 27.5997C81.0591 27.5997 79.5373 26.5322 79.4188 24.896H82.0524C82.1344 25.491 82.6265 25.841 83.4285 25.841C84.2304 25.841 84.5949 25.5872 84.5949 25.1672C84.5949 24.7472 84.3398 24.6597 83.6836 24.5285L82.1071 24.2047C80.4759 23.881 79.6193 23.0497 79.6193 21.8247C79.6375 20.2497 81.1047 19.226 83.3647 19.226V19.2085ZM96.4052 27.4072H93.7716V25.911H93.7169C93.572 26.4133 93.2531 26.853 92.812 27.1571C92.371 27.461 91.8351 27.6111 91.2929 27.5822C90.8775 27.6049 90.462 27.5417 90.0742 27.3969C89.6865 27.2521 89.3356 27.0291 89.0454 26.7429C88.7551 26.4568 88.5322 26.1141 88.3917 25.7381C88.2512 25.3621 88.1964 24.9615 88.231 24.5635V19.3747H90.9648V23.9597C90.9648 24.9135 91.4752 25.421 92.3227 25.421C92.5213 25.4213 92.7182 25.381 92.8995 25.3025C93.0799 25.224 93.2422 25.1092 93.3734 24.9659C93.5037 24.8225 93.6021 24.6539 93.6595 24.4713C93.7169 24.2887 93.7343 24.0964 93.7078 23.9072V19.3747H96.4417L96.4052 27.4072ZM97.7266 19.3747H100.369V20.9235H100.424C100.569 20.4278 100.882 19.9922 101.312 19.6851C101.742 19.378 102.267 19.2164 102.803 19.226C103.348 19.1841 103.89 19.3408 104.321 19.6651C104.751 19.9893 105.039 20.4573 105.126 20.976H105.181C105.346 20.4518 105.689 19.9954 106.154 19.6785C106.619 19.3617 107.181 19.2024 107.751 19.226C108.123 19.214 108.493 19.2773 108.837 19.4117C109.182 19.546 109.493 19.7485 109.751 20.006C110.009 20.2635 110.208 20.5702 110.334 20.9061C110.46 21.242 110.512 21.5998 110.485 21.956V27.4247H107.751V22.656C107.751 21.781 107.341 21.3785 106.575 21.3785C106.405 21.3771 106.235 21.4109 106.079 21.4775C105.924 21.5442 105.784 21.6422 105.671 21.765C105.558 21.8877 105.473 22.0323 105.423 22.189C105.373 22.3458 105.36 22.511 105.381 22.6735V27.4247H102.784V22.621C102.784 21.816 102.374 21.3785 101.627 21.3785C101.455 21.3786 101.283 21.4137 101.127 21.4817C100.969 21.5498 100.828 21.6491 100.714 21.7731C100.599 21.8971 100.513 22.043 100.461 22.2013C100.41 22.3595 100.394 22.5264 100.415 22.691V27.4247H97.6811L97.7266 19.3747Z" fill="white" fill-opacity="0.5"/>
<path d="M25.9536 17.2923C25.4899 16.2741 24.8761 15.3252 24.131 14.4748C23.0297 13.1801 21.6553 12.124 20.0983 11.3761C18.5413 10.6281 16.8369 10.2053 15.0974 10.1354C13.3579 10.0654 11.6228 10.35 10.006 10.9704C8.38938 11.5908 6.92785 12.5329 5.71768 13.7346C4.50751 14.9364 3.57613 16.3707 2.98483 17.943C2.39354 19.5153 2.15574 21.1901 2.2871 22.8569C2.41846 24.5239 2.91598 26.1452 3.74693 27.6141C4.57788 29.0832 5.72342 30.3665 7.10814 31.3798C7.99665 32.0429 8.97843 32.582 10.0243 32.981C11.4905 33.558 13.0599 33.8552 14.6445 33.856C17.9155 33.8491 21.0501 32.5972 23.3615 30.3747C25.6727 28.1522 26.9719 25.1405 26.9743 21.9998C26.9766 20.3797 26.6292 18.7768 25.9536 17.2923ZM14.6354 12.541C16.0585 12.5409 17.4643 12.8395 18.7544 13.416C18.4398 13.5465 18.109 13.6377 17.7702 13.6873C16.6554 13.8422 15.6226 14.3392 14.826 15.1041C14.0295 15.8689 13.5119 16.8606 13.3505 17.931C13.2797 18.5314 12.9952 19.0899 12.5453 19.5123C12.0954 19.9348 11.5076 20.1952 10.8809 20.2498C9.766 20.4047 8.73321 20.9017 7.93666 21.6666C7.14011 22.4314 6.62251 23.4231 6.46112 24.4935C6.40648 25.0644 6.15283 25.6008 5.74121 26.016C5.03099 24.5752 4.71195 22.9851 4.81376 21.394C4.91557 19.8029 5.43492 18.2624 6.32349 16.9158C7.21206 15.5692 8.44097 14.4604 9.89586 13.6924C11.3507 12.9244 12.9843 12.5223 14.6445 12.5235L14.6354 12.541ZM7.09903 28.1248C7.20838 28.0285 7.31774 27.941 7.42709 27.836C8.23782 27.0813 8.75822 26.0851 8.90338 25.0098C8.96223 24.4053 9.24329 23.8408 9.6962 23.4173C10.1321 22.9817 10.7187 22.714 11.3456 22.6648C12.4605 22.5098 13.4933 22.0128 14.2898 21.248C15.0864 20.4831 15.604 19.4915 15.7654 18.421C15.8048 17.7888 16.0873 17.1932 16.5582 16.7498C17.0048 16.3227 17.597 16.0647 18.2259 16.0235C19.2501 15.8882 20.2053 15.451 20.9597 14.7723C21.8188 15.4566 22.5466 16.2798 23.1104 17.2048C23.0758 17.2497 23.036 17.2908 22.9919 17.3273C22.557 17.7667 21.9711 18.0402 21.3425 18.0973C20.2264 18.2495 19.1921 18.7457 18.395 19.5109C17.598 20.2763 17.0813 21.2694 16.9227 22.341C16.8585 22.9434 16.5794 23.5059 16.1326 23.9333C15.6858 24.3607 15.099 24.6266 14.4714 24.686C13.3532 24.8398 12.3166 25.3358 11.5154 26.1003C10.7143 26.8649 10.1913 27.8571 10.0243 28.9298C9.97523 29.3574 9.82223 29.768 9.57773 30.1285C8.64275 29.5955 7.80536 28.9186 7.09903 28.1248ZM14.6354 31.5023C13.7107 31.5032 12.7904 31.3795 11.9015 31.1348C12.2056 30.5905 12.4033 29.9974 12.4847 29.3848C12.5486 28.7837 12.8265 28.2223 13.2714 27.7951C13.7163 27.3679 14.301 27.1011 14.927 27.0398C16.0435 26.8866 17.0784 26.3904 17.8768 25.6253C18.675 24.8604 19.194 23.8677 19.3559 22.796C19.4198 22.195 19.6976 21.6335 20.1425 21.2063C20.5874 20.7792 21.1722 20.5124 21.7981 20.451C22.6383 20.3461 23.4392 20.0457 24.131 19.576C24.5152 20.9742 24.5607 22.4382 24.2641 23.8559C23.9675 25.2736 23.3365 26.6073 22.4197 27.7545C21.503 28.9016 20.3248 29.832 18.9753 30.4741C17.626 31.1161 16.1414 31.4529 14.6354 31.4585V31.5023Z" fill="white" fill-opacity="0.5"/>
</svg>
