<svg width="113" height="44" viewBox="0 0 113 44" fill="none" xmlns="http://www.w3.org/2000/svg">
<path d="M18.0951 20.6972C17.7892 21.0022 17.5549 21.3704 17.409 21.7754C17.2631 22.1804 17.2091 22.6123 17.2508 23.0404L17.2363 23.026C17.2792 23.5299 17.2106 24.037 17.0354 24.5119C16.8602 24.9868 16.5825 25.4181 16.2218 25.7757C15.861 26.1332 15.4259 26.4085 14.9467 26.5821C14.4675 26.7558 13.9559 26.8238 13.4476 26.7812L13.4621 26.7956C12.854 26.7395 12.2432 26.8706 11.713 27.1712C11.1829 27.4718 10.7591 27.927 10.4996 28.475C10.2401 29.023 10.1574 29.637 10.2628 30.2333C10.3683 30.8295 10.6567 31.379 11.0888 31.8069C11.5208 32.2347 12.0755 32.5201 12.6771 32.624C13.2789 32.728 13.8982 32.6454 14.4508 32.3878C15.0035 32.13 15.4624 31.7097 15.7652 31.1839C16.0679 30.6582 16.1997 30.0527 16.1426 29.45L16.1579 29.4644C16.115 28.9606 16.1835 28.4534 16.3588 27.9785C16.534 27.5036 16.8117 27.0723 17.1724 26.7147C17.5332 26.3572 17.9684 26.0819 18.4475 25.9083C18.9267 25.7346 19.4382 25.6666 19.9467 25.7092L19.9313 25.6948C20.428 25.739 20.9281 25.6583 21.385 25.4601C21.8418 25.2618 22.2409 24.9525 22.545 24.5607C22.8492 24.169 23.0487 23.7074 23.1249 23.2189C23.2011 22.7303 23.1518 22.2306 22.9813 21.766C22.8108 21.3014 22.5248 20.887 22.1497 20.5612C21.7746 20.2354 21.3226 20.0086 20.8356 19.9021C20.3485 19.7955 19.8422 19.8125 19.3636 19.9514C18.885 20.0905 18.4495 20.347 18.0975 20.6972H18.0951Z" fill="white" fill-opacity="0.5"/>
<path d="M12.141 24.9086L12.1257 24.8942C12.5577 24.9373 12.9941 24.8848 13.4032 24.7403C13.8123 24.5958 14.1839 24.3631 14.4911 24.0588C14.7982 23.7546 15.0334 23.3864 15.1794 22.9811C15.3255 22.5757 15.3789 22.1433 15.3357 21.715L15.351 21.7294C15.3081 21.2255 15.3767 20.7184 15.5518 20.2435C15.7271 19.7686 16.0048 19.3373 16.3655 18.9797C16.7263 18.6222 17.1614 18.3469 17.6406 18.1733C18.1198 17.9996 18.6313 17.9317 19.1397 17.9742L19.1244 17.9598C19.7326 18.0164 20.3435 17.8857 20.874 17.5855C21.4045 17.2853 21.8286 16.8302 22.0885 16.2823C22.3484 15.7344 22.4314 15.1204 22.3263 14.524C22.2213 13.9276 21.9331 13.3778 21.5011 12.9497C21.0692 12.5216 20.5145 12.236 19.9128 12.1318C19.3111 12.0276 18.6916 12.1099 18.1388 12.3675C17.586 12.6252 17.1269 13.0455 16.824 13.5713C16.521 14.097 16.3892 14.7026 16.4463 15.3054L16.4318 15.2902C16.4748 15.7941 16.4064 16.3013 16.2312 16.7762C16.0561 17.2512 15.7783 17.6826 15.4176 18.0402C15.0568 18.3977 14.6216 18.673 14.1424 18.8466C13.6631 19.0202 13.1515 19.088 12.643 19.0454L12.6576 19.0606C12.2255 19.0175 11.7891 19.07 11.38 19.2145C10.971 19.3589 10.5994 19.5917 10.2922 19.896C9.98497 20.2002 9.74985 20.5684 9.60375 20.9737C9.45774 21.3791 9.40439 21.8115 9.44757 22.2398L9.43304 22.2254C9.47582 22.7292 9.40713 23.2363 9.2319 23.7112C9.05659 24.186 8.77893 24.6172 8.41822 24.9748C8.05748 25.3323 7.6224 25.6075 7.14331 25.7812C6.66422 25.9549 6.15266 26.023 5.64431 25.9806L5.65884 25.995C5.05068 25.9384 4.43969 26.0691 3.90923 26.3693C3.37878 26.6696 2.95466 27.1246 2.69476 27.6725C2.43484 28.2204 2.35177 28.8344 2.45688 29.4308C2.562 30.0272 2.85018 30.577 3.28211 31.0051C3.71404 31.4332 4.26869 31.7188 4.87043 31.823C5.47216 31.9272 6.09167 31.8448 6.64445 31.5872C7.19723 31.3296 7.65639 30.9093 7.95928 30.3836C8.2622 29.8577 8.39409 29.2522 8.33694 28.6494L8.35228 28.6638C8.30934 28.1599 8.37795 27.6528 8.55318 27.1779C8.72833 26.703 9.00606 26.2717 9.36678 25.9141C9.72757 25.5566 10.1627 25.2813 10.6418 25.1077C11.121 24.934 11.6326 24.866 12.141 24.9086Z" fill="white" fill-opacity="0.5"/>
<path d="M6.7316 23.3028C7.03753 22.9978 7.27174 22.6296 7.41754 22.2246C7.56335 21.8196 7.61714 21.3876 7.57507 20.9596L7.59039 20.974C7.54745 20.47 7.61603 19.9627 7.79135 19.4876C7.96667 19.0126 8.24451 18.5812 8.60547 18.2236C8.96642 17.8661 9.40171 17.5909 9.88107 17.4173C10.3604 17.2437 10.8722 17.176 11.3807 17.2188L11.3654 17.2044C11.9733 17.2608 12.5841 17.13 13.1143 16.8298C13.6445 16.5296 14.0684 16.0747 14.3282 15.5269C14.5879 14.9792 14.6709 14.3654 14.5658 13.7692C14.4607 13.173 14.1726 12.6235 13.7408 12.1956C13.3091 11.7676 12.7546 11.4821 12.1531 11.3779C11.5516 11.2737 10.9323 11.356 10.3797 11.6134C9.82708 11.8709 9.36805 12.291 9.06521 12.8165C8.76229 13.3421 8.63032 13.9474 8.68731 14.55L8.67278 14.5356C8.71572 15.0394 8.64711 15.5465 8.47188 16.0214C8.29665 16.4964 8.01901 16.9276 7.65825 17.2852C7.2975 17.6428 6.86235 17.918 6.3832 18.0916C5.90405 18.2653 5.39243 18.3333 4.88405 18.2908L4.89858 18.3052C4.40184 18.261 3.90189 18.3419 3.44506 18.5402C2.98824 18.7385 2.5893 19.048 2.28525 19.4398C1.98119 19.8316 1.78184 20.2932 1.70566 20.7816C1.62949 21.2702 1.67896 21.7699 1.84949 22.2344C2.02001 22.6989 2.30609 23.1132 2.68119 23.439C3.05629 23.7648 3.50829 23.9915 3.99531 24.098C4.48231 24.2045 4.98858 24.1875 5.46719 24.0485C5.94579 23.9095 6.38125 23.653 6.73321 23.3028H6.7316Z" fill="white" fill-opacity="0.5"/>
<path d="M31.7344 15.3242H34.1316V26.8866H31.7344V15.3242Z" fill="white" fill-opacity="0.5"/>
<path d="M35.4894 22.9273C35.4861 22.0964 35.7316 21.2831 36.1949 20.5906C36.6582 19.8982 37.3184 19.3575 38.092 19.0373C38.8656 18.717 39.7176 18.6314 40.5402 18.7915C41.3629 18.9516 42.1191 19.35 42.7131 19.9364C43.307 20.5227 43.7121 21.2706 43.8769 22.0854C44.0417 22.9001 43.9588 23.745 43.6388 24.513C43.3187 25.2809 42.7759 25.9375 42.0791 26.3994C41.3822 26.8614 40.5628 27.1081 39.7245 27.1081C39.168 27.1144 38.6158 27.0106 38.1002 26.803C37.5846 26.5953 37.116 26.2878 36.7217 25.8986C36.3273 25.5094 36.0153 25.0461 35.8038 24.5359C35.5921 24.0258 35.4853 23.4789 35.4894 22.9273ZM41.5623 22.9273C41.5523 22.5691 41.436 22.2218 41.228 21.9288C41.0199 21.6358 40.7293 21.4101 40.3926 21.2799C40.0558 21.1497 39.6878 21.1207 39.3345 21.1967C38.9812 21.2727 38.6584 21.4502 38.4063 21.707C38.1543 21.9638 37.9842 22.2886 37.9174 22.6408C37.8506 22.9929 37.8899 23.3567 38.0306 23.6868C38.1713 24.0169 38.407 24.2985 38.7082 24.4965C39.0095 24.6945 39.363 24.8001 39.7245 24.8001C39.972 24.8066 40.2183 24.7622 40.4477 24.6698C40.6771 24.5773 40.8847 24.4387 41.0574 24.2628C41.23 24.0868 41.3641 23.8773 41.4509 23.6474C41.5379 23.4176 41.5758 23.1724 41.5623 22.9273Z" fill="white" fill-opacity="0.5"/>
<path d="M53.5137 18.9676V26.4876C53.5137 29.1484 51.42 30.2732 49.2947 30.2732C48.5465 30.3288 47.7973 30.1789 47.1292 29.8403C46.4612 29.5016 45.9001 28.9871 45.5076 28.3532L47.5529 27.1812C47.7179 27.5116 47.9808 27.7842 48.3063 27.9625C48.6319 28.1408 49.0047 28.2163 49.3747 28.1788C49.6111 28.2113 49.852 28.1907 50.0794 28.1184C50.3067 28.0462 50.5147 27.9242 50.6881 27.7616C50.8615 27.5988 50.9957 27.3996 51.081 27.1785C51.1661 26.9575 51.2 26.7203 51.1802 26.4844V25.7604C50.8995 26.1008 50.5423 26.3713 50.137 26.5501C49.7317 26.7289 49.2899 26.8111 48.8468 26.79C47.7925 26.7571 46.7925 26.3188 46.0585 25.568C45.3245 24.8172 44.9141 23.8127 44.9141 22.7672C44.9141 21.7218 45.3245 20.7173 46.0585 19.9665C46.7925 19.2156 47.7925 18.7774 48.8468 18.7444C49.2899 18.7234 49.7317 18.8056 50.137 18.9844C50.5423 19.1632 50.8995 19.4336 51.1802 19.774V18.966L53.5137 18.9676ZM51.181 22.7684C51.1972 22.3856 51.0973 22.0066 50.8943 21.6804C50.6913 21.3542 50.3944 21.0957 50.0419 20.9382C49.6894 20.7806 49.2975 20.7312 48.9164 20.7964C48.5354 20.8615 48.1827 21.0381 47.9038 21.3036C47.6249 21.5691 47.4326 21.9112 47.3515 22.2859C47.2704 22.6606 47.3043 23.0508 47.449 23.4063C47.5935 23.7617 47.8421 24.0662 48.1627 24.2804C48.4833 24.4947 48.8613 24.6089 49.2479 24.6084C49.4998 24.6259 49.7526 24.5908 49.9899 24.5056C50.2273 24.4203 50.444 24.2866 50.6261 24.1133C50.8082 23.94 50.9517 23.7308 51.0473 23.4991C51.1429 23.2675 51.1885 23.0186 51.181 22.7684Z" fill="white" fill-opacity="0.5"/>
<path d="M54.8712 22.9273C54.8679 22.0964 55.1134 21.2831 55.5767 20.5906C56.04 19.8982 56.7003 19.3575 57.4738 19.0373C58.2474 18.717 59.0994 18.6314 59.9221 18.7915C60.7447 18.9516 61.5009 19.35 62.0949 19.9364C62.6889 20.5227 63.0939 21.2706 63.2587 22.0854C63.4235 22.9001 63.3406 23.745 63.0206 24.513C62.7006 25.2809 62.1578 25.9375 61.461 26.3994C60.7641 26.8614 59.9447 27.1081 59.1063 27.1081C58.5498 27.1144 57.9976 27.0106 57.4821 26.803C56.9665 26.5953 56.4978 26.2878 56.1036 25.8986C55.7092 25.5094 55.3971 25.0461 55.1856 24.5359C54.974 24.0258 54.8671 23.4789 54.8712 22.9273ZM60.9441 22.9273C60.9341 22.5691 60.8178 22.2218 60.6098 21.9288C60.4017 21.6358 60.1112 21.4101 59.7744 21.2799C59.4376 21.1497 59.0696 21.1207 58.7164 21.1967C58.3631 21.2727 58.0402 21.4502 57.7881 21.707C57.5362 21.9638 57.366 22.2886 57.2992 22.6408C57.2323 22.9929 57.2717 23.3567 57.4124 23.6868C57.5531 24.0169 57.7888 24.2985 58.09 24.4965C58.3913 24.6945 58.7448 24.8001 59.1063 24.8001C59.3538 24.8066 59.6001 24.7622 59.8295 24.6698C60.059 24.5773 60.2666 24.4387 60.4392 24.2628C60.6119 24.0868 60.7459 23.8773 60.8328 23.6474C60.9197 23.4176 60.9576 23.1724 60.9441 22.9273Z" fill="white" fill-opacity="0.5"/>
<path d="M64.459 16.8445C64.459 16.5626 64.5433 16.287 64.7014 16.0525C64.8594 15.8181 65.0841 15.6354 65.3469 15.5275C65.6097 15.4196 65.8989 15.3913 66.178 15.4463C66.4569 15.5013 66.7133 15.6371 66.9144 15.8365C67.1155 16.0359 67.2525 16.2899 67.308 16.5664C67.3635 16.843 67.335 17.1296 67.2262 17.3901C67.1173 17.6506 66.933 17.8732 66.6964 18.0299C66.4599 18.1865 66.1818 18.2701 65.8973 18.2701C65.5171 18.2664 65.1534 18.115 64.8844 17.8485C64.6156 17.5819 64.4628 17.2215 64.459 16.8445ZM64.7011 18.9669H67.0992V26.8869H64.6979L64.7011 18.9669Z" fill="white" fill-opacity="0.5"/>
<path d="M77.4504 22.9272C77.4781 23.4507 77.4012 23.9743 77.2239 24.4682C77.0467 24.962 76.7728 25.4163 76.4178 25.8048C76.0629 26.1933 75.6339 26.5085 75.1557 26.7322C74.6774 26.9558 74.1593 27.0835 73.631 27.108C73.1867 27.132 72.7427 27.0578 72.331 26.8907C71.9193 26.7235 71.5503 26.4676 71.2507 26.1416V30.0544H68.8535V18.9672H71.2507V19.7112C71.5504 19.3855 71.9195 19.1298 72.3312 18.9628C72.7429 18.7958 73.1868 18.7216 73.631 18.7456C74.1593 18.77 74.6776 18.8977 75.156 19.1214C75.6344 19.3451 76.0634 19.6603 76.4184 20.0489C76.7734 20.4375 77.0473 20.8919 77.2244 21.3859C77.4015 21.8799 77.4783 22.4037 77.4504 22.9272ZM75.0532 22.9272C75.0438 22.5566 74.9244 22.1969 74.7097 21.8931C74.4951 21.5895 74.1949 21.3552 73.8467 21.2199C73.4985 21.0844 73.1177 21.0538 72.7519 21.1319C72.3862 21.2099 72.0519 21.3931 71.7907 21.6585C71.5295 21.924 71.3532 22.2599 71.2837 22.6243C71.2142 22.9886 71.2546 23.3651 71.4 23.7067C71.5453 24.0484 71.7891 24.3399 72.1008 24.545C72.4125 24.7499 72.7782 24.8593 73.1524 24.8592C73.4092 24.8706 73.6655 24.8279 73.9046 24.7342C74.1436 24.6405 74.36 24.4977 74.5394 24.3153C74.7189 24.1328 74.8574 23.9149 74.946 23.6757C75.0345 23.4365 75.0711 23.1814 75.0532 22.9272Z" fill="white" fill-opacity="0.5"/>
<path d="M84.8479 24.5107C84.8479 26.3323 83.2505 27.1083 81.5249 27.1083C80.8275 27.1708 80.1275 27.0248 79.5149 26.6887C78.9024 26.3527 78.4057 25.8423 78.0889 25.2235L80.1656 24.0515C80.2497 24.3375 80.4301 24.5864 80.6769 24.7564C80.9235 24.9264 81.2222 25.0075 81.5216 24.9859C82.0963 24.9859 82.3845 24.8115 82.3845 24.4955C82.3845 23.6235 78.4529 24.0835 78.4529 21.3435C78.4529 19.6163 79.9235 18.7459 81.5854 18.7459C82.2101 18.7263 82.8284 18.8732 83.3765 19.1712C83.9245 19.4692 84.3822 19.9075 84.701 20.4403L82.6557 21.5331C82.5661 21.3256 82.4168 21.1489 82.2263 21.025C82.0358 20.9011 81.813 20.8355 81.5854 20.8363C81.1697 20.8363 80.9139 20.9963 80.9139 21.2795C80.9171 22.1827 84.8479 21.5803 84.8479 24.5107Z" fill="white" fill-opacity="0.5"/>
<path d="M93.6044 18.9668V26.8868H91.2072V26.142C90.9303 26.4706 90.5792 26.7296 90.1821 26.8976C89.785 27.0656 89.354 27.1378 88.9229 27.1084C87.3087 27.1084 85.9365 25.9684 85.9365 23.8284V18.9668H88.3337V23.4804C88.3136 23.669 88.3353 23.8598 88.3975 24.0392C88.4588 24.2187 88.5597 24.3827 88.6921 24.5198C88.8245 24.6568 88.9851 24.7636 89.1635 24.8328C89.3411 24.902 89.5323 24.9319 89.7236 24.9204C90.6026 24.9204 91.2096 24.414 91.2096 23.2892V18.9692L93.6044 18.9668Z" fill="white" fill-opacity="0.5"/>
<path d="M107.35 22.0244V26.8868H104.953V22.23C104.953 21.438 104.569 20.9316 103.803 20.9316C103.004 20.9316 102.556 21.486 102.556 22.4204V26.8868H100.159V22.23C100.159 21.438 99.7758 20.9316 99.0082 20.9316C98.2091 20.9316 97.762 21.486 97.762 22.4204V26.8868H95.3647V18.9668H97.762V19.6948C98.0106 19.3718 98.3366 19.1157 98.7103 18.9498C99.0849 18.7839 99.4949 18.7136 99.9033 18.7452C100.313 18.7253 100.722 18.8111 101.089 18.9942C101.455 19.1773 101.768 19.4515 101.996 19.79C102.262 19.4358 102.614 19.1542 103.019 18.9715C103.424 18.7888 103.87 18.7109 104.314 18.7452C106.148 18.746 107.35 20.0444 107.35 22.0244Z" fill="white" fill-opacity="0.5"/>
<path d="M109.378 18.918C110.36 18.918 111.157 18.1286 111.157 17.1548C111.157 16.181 110.36 15.3916 109.378 15.3916C108.395 15.3916 107.599 16.181 107.599 17.1548C107.599 18.1286 108.395 18.918 109.378 18.918Z" fill="white" fill-opacity="0.5"/>
</svg>
