<svg width="24" height="24" viewBox="0 0 24 24" fill="none" xmlns="http://www.w3.org/2000/svg">
<path d="M12 4C7.121 4 3 8.121 3 13C3 17.879 7.121 22 12 22C16.879 22 21 17.879 21 13C21 8.121 16.879 4 12 4ZM12 20C8.206 20 5 16.794 5 13C5 9.206 8.206 6 12 6C15.794 6 19 9.206 19 13C19 16.794 15.794 20 12 20Z" fill="#0B0F19"/>
<path d="M13 12V8H11V12V14H13H17V12H13Z" fill="#0B0F19"/>
<path d="M17.2839 3.70697L18.6961 2.29073L21.7056 5.29163L20.2934 6.70787L17.2839 3.70697Z" fill="#0B0F19"/>
<path d="M6.69794 3.70703L3.70763 6.70591L2.29139 5.29372L5.2817 2.29484L6.69794 3.70703Z" fill="#0B0F19"/>
</svg>
