<svg width="24" height="24" viewBox="0 0 24 24" fill="none" xmlns="http://www.w3.org/2000/svg">
<path d="M12 4C7.121 4 3 8.121 3 13C3 17.879 7.121 22 12 22C16.879 22 21 17.879 21 13C21 8.121 16.879 4 12 4ZM12 20C8.206 20 5 16.794 5 13C5 9.206 8.206 6 12 6C15.794 6 19 9.206 19 13C19 16.794 15.794 20 12 20Z" fill="#0B0F19"/>
<path d="M13 8H11V12H7V14H11V18H13V14H17V12H13V8Z" fill="#0B0F19"/>
<path d="M20.2924 6.7077L17.2823 3.70738L18.6942 2.29087L21.7043 5.2912L20.2924 6.7077Z" fill="#0B0F19"/>
<path d="M5.28241 2.29413L6.69862 3.70634L3.70826 6.70517L2.29205 5.29296L5.28241 2.29413Z" fill="#0B0F19"/>
</svg>
