<svg width="24" height="24" viewBox="0 0 24 24" fill="none" xmlns="http://www.w3.org/2000/svg">
<path d="M16.895 6.519L19.708 3.707L18.294 2.293L15.448 5.139C15.215 4.973 14.975 4.818 14.725 4.685C13.002 3.775 10.999 3.774 9.275 4.685C9.025 4.817 8.787 4.972 8.553 5.138L5.707 2.293L4.293 3.707L7.106 6.519C6.53 7.242 6.08 8.079 5.756 9H2V11H4.307C4.242 11.495 4.2 11.997 4.2 12.5C4.2 13.007 4.242 13.513 4.307 14.011H2V16.011H4.753C4.766 16.05 4.774 16.091 4.787 16.129C4.975 16.684 5.208 17.222 5.482 17.729C5.526 17.81 5.577 17.884 5.623 17.963L3.293 20.293L4.707 21.707L6.817 19.596C7.052 19.85 7.295 20.094 7.553 20.312C7.971 20.666 8.42 20.969 8.885 21.215C9.364 21.468 9.867 21.664 10.381 21.795C10.911 21.931 11.455 22 12 22C12.545 22 13.089 21.931 13.618 21.796C14.132 21.665 14.635 21.469 15.114 21.216C15.579 20.97 16.028 20.666 16.447 20.312C16.705 20.094 16.947 19.85 17.181 19.596L19.292 21.707L20.706 20.293L18.376 17.963C18.423 17.883 18.474 17.808 18.518 17.727C18.791 17.222 19.025 16.684 19.212 16.128C19.225 16.089 19.233 16.049 19.246 16.01H22V14.01H19.692C19.757 13.511 19.799 13.006 19.799 12.499C19.799 11.996 19.757 11.494 19.693 10.999H22V9H18.244C17.92 8.079 17.47 7.242 16.895 6.519ZM8.681 7.748C9.126 7.19 9.641 6.755 10.209 6.454C11.35 5.851 12.651 5.852 13.79 6.454C14.359 6.755 14.874 7.19 15.32 7.749C15.619 8.122 15.86 8.549 16.073 9H7.927C8.141 8.549 8.381 8.121 8.681 7.748ZM17.8 12.5C17.8 13.022 17.758 13.544 17.674 14.053C17.595 14.543 17.475 15.026 17.319 15.489C17.168 15.938 16.979 16.371 16.76 16.777C16.543 17.176 16.297 17.549 16.027 17.887C15.76 18.22 15.467 18.523 15.158 18.785C14.848 19.046 14.519 19.269 14.179 19.449C13.839 19.629 13.484 19.766 13.122 19.859C13.082 19.869 13.04 19.873 13 19.882V14H11V19.881C10.96 19.872 10.918 19.868 10.878 19.858C10.517 19.765 10.161 19.628 9.821 19.448C9.481 19.268 9.152 19.045 8.843 18.784C8.532 18.521 8.239 18.219 7.972 17.885C7.702 17.548 7.456 17.175 7.241 16.777C7.021 16.37 6.833 15.937 6.681 15.488C6.525 15.025 6.405 14.542 6.325 14.05C6.242 13.544 6.2 13.022 6.2 12.5C6.2 11.995 6.241 11.491 6.319 11H17.68C17.759 11.491 17.8 11.995 17.8 12.5Z" fill="#0B0F19"/>
</svg>
