<svg width="24" height="24" viewBox="0 0 24 24" fill="none" xmlns="http://www.w3.org/2000/svg">
<path d="M12 22C13.311 22 14.407 21.166 14.818 20H9.18203C9.59303 21.166 10.689 22 12 22ZM21 18V16C21 15.734 20.895 15.48 20.707 15.293L19 13.586V10C19 6.783 16.815 4.073 13.855 3.258C13.562 2.52 12.846 2 12 2C11.154 2 10.438 2.52 10.145 3.258C8.82203 3.622 7.68203 4.386 6.79903 5.385L3.70703 2.293L2.29303 3.707L20.293 21.707L21.707 20.293L20.345 18.931C20.726 18.789 21 18.431 21 18ZM12 5C14.757 5 17 7.243 17 10V14C17 14.266 17.105 14.52 17.293 14.707L19 16.414V17H18.414L8.20703 6.793C9.12003 5.705 10.471 5 12 5ZM6.70703 14.707C6.89503 14.52 7.00003 14.266 7.00003 14V11.121L5.06803 9.189C5.03703 9.457 5.00003 9.724 5.00003 10V13.586L3.29303 15.293C3.10503 15.48 3.00003 15.734 3.00003 16V18C3.00003 18.553 3.44703 19 4.00003 19H14.879L12.879 17H5.00003V16.414L6.70703 14.707Z" fill="#0B0F19"/>
</svg>
