<svg width="24" height="24" viewBox="0 0 24 24" fill="none" xmlns="http://www.w3.org/2000/svg">
<path d="M9 9H15V11H9V9ZM9 13H15V15H9V13Z" fill="#0B0F19"/>
<path d="M18 5.414L19.707 3.707L18.293 2.293L16.73 3.855C15.483 2.708 13.824 2 12 2C10.176 2 8.517 2.708 7.27 3.855L5.707 2.293L4.293 3.707L6 5.414C5.369 6.464 5 7.688 5 9H3V11H5V13H3V15H5C5 18.86 8.141 22 12 22C15.859 22 19 18.86 19 15H21V13H19V11H21V9H19C19 7.688 18.631 6.464 18 5.414ZM17 13V15C17 17.757 14.757 20 12 20C9.243 20 7 17.757 7 15V13V11V9C7 6.243 9.243 4 12 4C14.757 4 17 6.243 17 9V11V13Z" fill="#0B0F19"/>
</svg>
