<svg width="24" height="24" viewBox="0 0 24 24" fill="none" xmlns="http://www.w3.org/2000/svg">
<path d="M19.864 8.465C19.953 8.152 20 7.827 20 7.5C20 5.683 18.608 4.185 16.834 4.016C16.426 2.844 15.31 2 14 2C13.229 2 12.532 2.301 12 2.78C11.468 2.301 10.771 2 10 2C8.699 2 7.59 2.831 7.175 4.015C5.396 4.18 4 5.68 4 7.5C4 7.827 4.047 8.152 4.136 8.465C2.861 9.143 2 10.495 2 12C2 13.075 2.428 14.086 3.172 14.832C3.059 15.208 3 15.603 3 16C3 17.957 4.412 19.59 6.306 19.934C6.86 21.165 8.104 22 9.5 22C10.479 22 11.364 21.593 12 20.941C12.636 21.593 13.521 22 14.5 22C15.894 22 17.135 21.169 17.69 19.94C19.568 19.612 21 17.97 21 16C21 15.603 20.941 15.208 20.828 14.832C21.572 14.086 22 13.075 22 12C22 10.495 21.139 9.143 19.864 8.465ZM9.5 20C8.789 20 8.17 19.496 8.03 18.802L7.818 18H7C5.897 18 5 17.103 5 16C5 15.648 5.085 15.318 5.253 15.019L5.709 14.203L4.925 13.693C4.346 13.315 4 12.683 4 12C4 11.023 4.723 10.176 5.682 10.028L7.375 9.768L6.316 8.422C6.112 8.162 6 7.835 6 7.5C6 6.673 6.673 6 7.5 6C7.606 6 7.714 6.014 7.814 6.032L9 6.207V5C9 4.448 9.448 4 10 4C10.552 4 11 4.448 11 5V18.5C11 19.327 10.327 20 9.5 20ZM19.075 13.692L18.291 14.202L18.747 15.018C18.915 15.318 19 15.648 19 16C19 17.103 18.103 18 16.95 18H16.132L15.97 18.802C15.83 19.496 15.211 20 14.5 20C13.673 20 13 19.327 13 18.5V5C13 4.448 13.448 4 14 4C14.552 4 15 4.448 15 5.05V6.257L16.186 6.032C16.286 6.014 16.394 6 16.5 6C17.327 6 18 6.673 18 7.5C18 7.835 17.888 8.162 17.684 8.422L16.625 9.769L18.318 10.029C19.277 10.176 20 11.023 20 12C20 12.683 19.654 13.315 19.075 13.692Z" fill="#0B0F19"/>
</svg>
