<svg width="24" height="24" viewBox="0 0 24 24" fill="none" xmlns="http://www.w3.org/2000/svg">
<path d="M12 2C7.58903 2 4.00003 5.589 4.00003 9.995C3.97103 16.44 11.116 21.599 11.42 21.814C11.594 21.938 11.797 22 12 22C12.203 22 12.406 21.938 12.58 21.814C12.884 21.599 20.029 16.44 20 10C20 5.589 16.411 2 12 2ZM12 19.735C10.389 18.427 5.97903 14.441 6.00003 10C6.00003 6.691 8.69103 4 12 4C15.309 4 18 6.691 18 10.005C18.021 14.442 13.612 18.428 12 19.735Z" fill="#0B0F19"/>
<path d="M11 11.586L8.70703 9.29303L7.29303 10.707L11 14.414L16.707 8.70703L15.293 7.29303L11 11.586Z" fill="#0B0F19"/>
</svg>
