<svg width="24" height="24" viewBox="0 0 24 24" fill="none" xmlns="http://www.w3.org/2000/svg">
<path d="M21 3.00098C19.6 3.00098 18.416 4.16798 18.293 4.29398L17.207 5.37998L16.116 4.29198C15.725 3.90198 15.094 3.90198 14.703 4.29298L13.46 5.53698C12.512 5.17998 11.52 4.99998 10.5 4.99998C5.813 4.99998 2 8.81298 2 13.5C2 18.187 5.813 22 10.5 22C15.187 22 19 18.187 19 13.5C19 12.591 18.856 11.7 18.572 10.842L19.917 9.49698C20.104 9.30998 20.21 9.05498 20.21 8.78998C20.21 8.52398 20.105 8.26998 19.916 8.08198L18.623 6.79198L19.711 5.70398C19.94 5.47498 20.556 5.00098 21 5.00098H22V3.00098H21ZM16.489 10.979C16.828 11.783 17 12.631 17 13.5C17 17.084 14.084 20 10.5 20C6.916 20 4 17.084 4 13.5C4 9.91598 6.916 6.99998 10.5 6.99998C11.46 6.99998 12.39 7.20998 13.262 7.62398C13.643 7.80498 14.099 7.72698 14.398 7.42798L15.412 6.41398L17.796 8.79098L16.704 9.88298C16.415 10.17 16.331 10.604 16.489 10.979Z" fill="#0B0F19"/>
<path d="M6 13.5C6 14.702 6.468 15.832 7.318 16.682L8.732 15.268C8.26 14.795 8 14.168 8 13.5C8 12.832 8.26 12.205 8.732 11.732C9.204 11.26 9.832 11 10.5 11V9C9.298 9 8.167 9.468 7.318 10.318C6.468 11.168 6 12.298 6 13.5Z" fill="#0B0F19"/>
</svg>
