<svg width="24" height="24" viewBox="0 0 24 24" fill="none" xmlns="http://www.w3.org/2000/svg">
<path d="M21.928 11.607C21.726 11.119 21.293 11.002 21 10.974V8C21 6.897 20.103 6 19 6H13V4.61C13.305 4.336 13.5 3.942 13.5 3.5C13.5 2.672 12.828 2 12 2C11.172 2 10.5 2.672 10.5 3.5C10.5 3.942 10.695 4.336 11 4.61V6H4.99999C3.89699 6 2.99999 6.897 2.99999 8V10.997C2.95099 11 2.91799 11.003 2.91799 11.003C2.39499 11.04 1.98999 11.476 1.98999 12V14C1.98999 14.553 2.43699 15 2.98999 15H2.99999V20C2.99999 21.103 3.89699 22 4.99999 22H19C20.103 22 21 21.103 21 20V15C21.553 15 22 14.553 22 14V12.062C22.011 11.909 21.988 11.753 21.928 11.607ZM4.99999 20V8H19L19.001 11.996C19.001 11.998 19 11.999 19 12V14C19 14.002 19.001 14.003 19.001 14.005L19.002 20H4.99999Z" fill="#0B0F19"/>
<path d="M8.5 14C9.32843 14 10 13.1046 10 12C10 10.8954 9.32843 10 8.5 10C7.67157 10 7 10.8954 7 12C7 13.1046 7.67157 14 8.5 14Z" fill="#0B0F19"/>
<path d="M15.5 14C16.3284 14 17 13.1046 17 12C17 10.8954 16.3284 10 15.5 10C14.6716 10 14 10.8954 14 12C14 13.1046 14.6716 14 15.5 14Z" fill="#0B0F19"/>
<path d="M8 16H16V18H8V16Z" fill="#0B0F19"/>
</svg>
