<svg width="24" height="24" viewBox="0 0 24 24" fill="none" xmlns="http://www.w3.org/2000/svg">
<path d="M12 2C6.486 2 2 6.486 2 12C2 17.514 6.486 22 12 22C17.514 22 22 17.514 22 12C22 6.486 17.514 2 12 2ZM19.411 9H16V9.031C15.708 8.639 15.361 8.292 14.969 8H15V4.589C17.001 5.402 18.598 7 19.411 9ZM12 15C10.346 15 9 13.654 9 12C9 10.346 10.346 9 12 9C13.654 9 15 10.346 15 12C15 13.654 13.654 15 12 15ZM13 4.069V7.101C12.677 7.035 12.343 7 12 7C11.657 7 11.323 7.035 11 7.101V4.069C11.328 4.028 11.66 4 12 4C12.34 4 12.672 4.028 13 4.069ZM9 4.589V8H9.031C8.639 8.292 8.292 8.639 8 9.031V9H4.589C5.402 7 6.999 5.402 9 4.589ZM4.069 11H7.101C7.035 11.323 7 11.658 7 12C7 12.342 7.035 12.677 7.102 13H4.069C4.028 12.672 4 12.339 4 12C4 11.661 4.028 11.328 4.069 11ZM4.589 15H8V14.969C8.284 15.35 8.621 15.687 9 15.974V19.411C6.999 18.598 5.402 17 4.589 15ZM11 19.931V16.899C11.323 16.965 11.657 17 12 17C12.343 17 12.677 16.965 13 16.899V19.931C12.672 19.972 12.34 20 12 20C11.66 20 11.328 19.972 11 19.931ZM15 19.411V15.974C15.379 15.687 15.716 15.35 16 14.969V15H19.411C18.598 17 17.001 18.598 15 19.411ZM19.931 13H16.899C16.965 12.677 17 12.342 17 12C17 11.658 16.965 11.323 16.898 11H19.93C19.972 11.328 20 11.661 20 12C20 12.339 19.972 12.672 19.931 13Z" fill="#0B0F19"/>
</svg>
