<svg width="24" height="24" viewBox="0 0 24 24" fill="none" xmlns="http://www.w3.org/2000/svg">
<path d="M21.707 11.293L19.707 9.29301L19 8.58601V7.00001V6.00001C19 5.44701 18.553 5.00001 18 5.00001H16H15.414L14.707 4.29301L12.707 2.29301C12.316 1.90201 11.684 1.90201 11.293 2.29301L9.29301 4.29301L8.58601 5.00001H7.00001H6.00001C5.44701 5.00001 5.00001 5.44701 5.00001 6.00001V7.00001V8.58601L4.29301 9.29301L2.29301 11.293C1.90201 11.684 1.90201 12.316 2.29301 12.707L4.29301 14.707L5.00001 15.414V17V18C5.00001 18.553 5.44701 19 6.00001 19H8.00001H8.58601L9.29301 19.707L11.293 21.707C11.488 21.902 11.744 22 12 22C12.256 22 12.512 21.902 12.707 21.707L14.707 19.707L15.414 19H17H18C18.553 19 19 18.553 19 18V17V15.414L19.707 14.707L21.707 12.707C22.098 12.316 22.098 11.684 21.707 11.293ZM17.293 14.293L17 14.586V15V17H15H14.586L14.293 17.293L13.293 18.293L12 19.586L10.707 18.293L9.70701 17.293L9.41401 17H9.00001H8.00001H7.00001V15V14.586L6.70701 14.293L5.70701 13.293L4.41401 12L5.70701 10.707L6.70701 9.70701L7.00001 9.41401V9.00001V7.00001H9.00001H9.41401L9.70701 6.70701L10.707 5.70701L12 4.41401L13.293 5.70701L14.293 6.70701L14.586 7.00001H15H16H17V9.00001V9.41401L17.293 9.70701L18.293 10.707L19.586 12L18.293 13.293L17.293 14.293Z" fill="#0B0F19"/>
<path d="M12 8V16C14.206 16 16 14.206 16 12C16 9.794 14.206 8 12 8Z" fill="#0B0F19"/>
</svg>
