<svg width="24" height="24" viewBox="0 0 24 24" fill="none" xmlns="http://www.w3.org/2000/svg">
<path d="M20 2H4C2.897 2 2 2.897 2 4V22L7.333 18H20C21.103 18 22 17.103 22 16V4C22 2.897 21.103 2 20 2ZM20 16H6.667L4 18V4H20V16Z" fill="#0B0F19"/>
<path d="M15 12C16.1046 12 17 11.1046 17 10C17 8.89543 16.1046 8 15 8C13.8954 8 13 8.89543 13 10C13 11.1046 13.8954 12 15 12Z" fill="#0B0F19"/>
<path d="M9 12C10.1046 12 11 11.1046 11 10C11 8.89543 10.1046 8 9 8C7.89543 8 7 8.89543 7 10C7 11.1046 7.89543 12 9 12Z" fill="#0B0F19"/>
</svg>
