<svg width="24" height="24" viewBox="0 0 24 24" fill="none" xmlns="http://www.w3.org/2000/svg">
<path d="M20.995 6.9C20.961 6.558 20.754 6.258 20.447 6.105L12.447 2.105C12.166 1.964 11.834 1.964 11.552 2.105L3.552 6.105C3.246 6.259 3.039 6.559 3.005 6.9C2.994 7.007 2.044 17.667 11.594 21.914C11.723 21.972 11.861 22 12 22C12.139 22 12.277 21.972 12.406 21.914C21.956 17.667 21.006 7.008 20.995 6.9ZM12 19.897C5.231 16.625 4.911 9.642 4.966 7.635L12 4.118L19.029 7.633C19.066 9.622 18.701 16.651 12 19.897Z" fill="#0B0F19"/>
<path d="M11 12.586L8.70703 10.293L7.29303 11.707L11 15.414L16.707 9.707L15.293 8.293L11 12.586Z" fill="#0B0F19"/>
</svg>
