<svg width="24" height="24" viewBox="0 0 24 24" fill="none" xmlns="http://www.w3.org/2000/svg">
<path d="M12 16C14.206 16 16 14.206 16 12C16 9.794 14.206 8 12 8C9.794 8 8 9.794 8 12C8 14.206 9.794 16 12 16ZM12 10C13.084 10 14 10.916 14 12C14 13.084 13.084 14 12 14C10.916 14 10 13.084 10 12C10 10.916 10.916 10 12 10Z" fill="#0B0F19"/>
<path d="M2.84498 16.136L3.84498 17.866C4.37598 18.783 5.65398 19.127 6.57498 18.596L7.10398 18.29C7.68598 18.747 8.32498 19.122 8.99998 19.402V20C8.99998 21.103 9.89698 22 11 22H13C14.103 22 15 21.103 15 20V19.402C15.675 19.122 16.314 18.747 16.896 18.291L17.425 18.597C18.348 19.127 19.623 18.785 20.156 17.866L21.155 16.137C21.707 15.182 21.379 13.956 20.424 13.405L19.919 13.113C19.973 12.742 20 12.371 20 12C20 11.629 19.973 11.257 19.919 10.889L20.424 10.597C21.379 10.045 21.707 8.82 21.155 7.865L20.156 6.136C19.625 5.216 18.348 4.871 17.425 5.404L16.896 5.71C16.314 5.253 15.675 4.878 15 4.598V4C15 2.897 14.103 2 13 2H11C9.89698 2 8.99998 2.897 8.99998 4V4.598C8.32498 4.878 7.68598 5.253 7.10398 5.709L6.57498 5.403C5.65098 4.872 4.37498 5.216 3.84398 6.135L2.84498 7.864C2.29298 8.819 2.62098 10.045 3.57598 10.596L4.08098 10.888C4.02698 11.257 3.99998 11.629 3.99998 12C3.99998 12.371 4.02698 12.742 4.08098 13.111L3.57598 13.403C2.62098 13.955 2.29298 15.181 2.84498 16.136ZM6.17098 13.378C6.05798 12.925 5.99998 12.461 5.99998 12C5.99998 11.538 6.05798 11.074 6.16998 10.622C6.27798 10.189 6.08698 9.737 5.69998 9.514L4.57698 8.864L5.57498 7.135L6.71998 7.797C7.10398 8.018 7.58698 7.962 7.90798 7.655C8.59098 7.008 9.41498 6.524 10.292 6.256C10.713 6.128 11 5.739 11 5.3V4H13V5.3C13 5.739 13.287 6.128 13.708 6.256C14.585 6.525 15.409 7.008 16.092 7.655C16.413 7.962 16.898 8.017 17.28 7.797L18.424 7.136L19.424 8.865L18.3 9.514C17.913 9.738 17.722 10.19 17.83 10.622C17.942 11.074 18 11.538 18 12C18 12.461 17.942 12.925 17.829 13.378C17.722 13.811 17.913 14.263 18.3 14.486L19.423 15.135L18.425 16.864L17.28 16.203C16.897 15.982 16.413 16.037 16.092 16.345C15.409 16.992 14.585 17.476 13.708 17.744C13.287 17.872 13 18.261 13 18.7L13.002 20H11V18.7C11 18.261 10.713 17.872 10.292 17.744C9.41498 17.475 8.59098 16.992 7.90798 16.345C7.71798 16.163 7.46998 16.07 7.21998 16.07C7.04798 16.07 6.87598 16.114 6.71998 16.204L5.57598 16.866L4.57598 15.137L5.69998 14.486C6.08698 14.263 6.27798 13.811 6.17098 13.378Z" fill="#0B0F19"/>
</svg>
