<svg width="24" height="24" viewBox="0 0 24 24" fill="none" xmlns="http://www.w3.org/2000/svg">
<path d="M20.772 10.156L19.404 6.051C18.995 4.824 17.852 4 16.559 4H7.441C6.148 4 5.005 4.824 4.596 6.051L3.228 10.156C2.508 10.459 2 11.171 2 12V17C2 17.753 2.423 18.402 3.039 18.743C3.026 18.809 3 18.869 3 18.938V21C3 21.553 3.447 22 4 22H5C5.553 22 6 21.553 6 21V19H18V21C18 21.553 18.447 22 19 22H20C20.553 22 21 21.553 21 21V18.938C21 18.869 20.974 18.808 20.961 18.743C21.577 18.402 22 17.753 22 17V12C22 11.171 21.492 10.459 20.772 10.156ZM4 17V12H20L20.002 17H4ZM7.441 6H16.558C16.989 6 17.371 6.274 17.507 6.684L18.613 10H5.387L6.492 6.684C6.629 6.274 7.011 6 7.441 6Z" fill="#0B0F19"/>
<path d="M6.5 16C7.32843 16 8 15.3284 8 14.5C8 13.6716 7.32843 13 6.5 13C5.67157 13 5 13.6716 5 14.5C5 15.3284 5.67157 16 6.5 16Z" fill="#0B0F19"/>
<path d="M17.5 16C18.3284 16 19 15.3284 19 14.5C19 13.6716 18.3284 13 17.5 13C16.6716 13 16 13.6716 16 14.5C16 15.3284 16.6716 16 17.5 16Z" fill="#0B0F19"/>
</svg>
