<svg width="24" height="24" viewBox="0 0 24 24" fill="none" xmlns="http://www.w3.org/2000/svg">
<path d="M10 13L9 18H11V22L14.975 16H13L14 13H10Z" fill="#0B0F19"/>
<path d="M18.944 10.112C18.507 6.67 15.56 4 12 4C9.244 4 6.85 5.611 5.757 8.15C3.609 8.792 2 10.819 2 13C2 15.757 4.243 18 7 18V16C5.346 16 4 14.654 4 13C4 11.597 5.199 10.244 6.673 9.985L7.254 9.882L7.446 9.323C8.149 7.273 9.895 6 12 6C14.757 6 17 8.243 17 11V12H18C19.103 12 20 12.897 20 14C20 15.103 19.103 16 18 16H17V18H18C20.206 18 22 16.206 22 14C22 12.119 20.695 10.538 18.944 10.112Z" fill="#0B0F19"/>
</svg>
