<svg width="24" height="24" viewBox="0 0 24 24" fill="none" xmlns="http://www.w3.org/2000/svg">
<path d="M11.219 3.37501L8 7.39901L4.781 3.37501C4.515 3.04301 4.068 2.91601 3.669 3.05601C3.269 3.19701 3 3.57501 3 4.00001V19C3 20.103 3.897 21 5 21H19C20.103 21 21 20.103 21 19V4.00001C21 3.57501 20.731 3.19701 20.331 3.05601C19.931 2.91801 19.485 3.04401 19.219 3.37501L16 7.39901L12.781 3.37501C12.4 2.90101 11.6 2.90101 11.219 3.37501ZM5 19V17H19.001V19H5ZM15.219 9.62501C15.6 10.1 16.401 10.1 16.782 9.62501L19 6.85101L19.001 15H5V6.85101L7.219 9.62501C7.6 10.1 8.401 10.1 8.782 9.62501L12 5.60101L15.219 9.62501Z" fill="#0B0F19"/>
</svg>
