<svg width="24" height="24" viewBox="0 0 24 24" fill="none" xmlns="http://www.w3.org/2000/svg">
<path d="M8 13H10V20H8V13ZM11 15H13V22H11V15ZM14 13H16V20H14V13Z" fill="#0B0F19"/>
<path d="M18.944 10.113C18.507 6.671 15.56 4.001 12 4.001C9.244 4.001 6.85 5.612 5.757 8.151C3.609 8.793 2 10.82 2 13.001C2 15.758 4.243 18.001 7 18.001V16.001C5.346 16.001 4 14.655 4 13.001C4 11.598 5.199 10.245 6.673 9.986L7.254 9.883L7.446 9.324C8.149 7.274 9.895 6.001 12 6.001C14.757 6.001 17 8.244 17 11.001V12.001H18C19.103 12.001 20 12.898 20 14.001C20 15.104 19.103 16.001 18 16.001H17V18.001H18C20.206 18.001 22 16.207 22 14.001C22 12.12 20.695 10.539 18.944 10.113Z" fill="#0B0F19"/>
</svg>
