<svg width="24" height="24" viewBox="0 0 24 24" fill="none" xmlns="http://www.w3.org/2000/svg">
<path d="M8.999 20.133C10.335 20.133 11.591 19.612 12.535 18.668L19.669 11.535C21.618 9.585 21.618 6.412 19.668 4.463C18.723 3.52 17.467 3 16.132 3C14.797 3 13.541 3.52 12.598 4.464L5.464 11.598C3.516 13.547 3.515 16.719 5.464 18.67C6.408 19.613 7.664 20.133 8.999 20.133ZM14.012 5.878C14.578 5.312 15.331 5 16.132 5C16.934 5 17.688 5.313 18.254 5.878C19.424 7.048 19.424 8.951 18.255 10.121L15.362 13.013L11.12 8.77L14.012 5.878ZM6.878 13.012L9.706 10.184L13.948 14.427L11.121 17.254C9.988 18.387 8.011 18.386 6.878 17.255C5.709 16.085 5.709 14.182 6.878 13.012Z" fill="#0B0F19"/>
</svg>
