<svg width="24" height="24" viewBox="0 0 24 24" fill="none" xmlns="http://www.w3.org/2000/svg">
<path d="M8.648 14.711L11.997 18L15.347 14.711C16.218 13.857 16.218 12.501 15.347 11.642C14.472 10.787 13.092 10.787 12.221 11.642L11.997 11.861L11.773 11.642C10.903 10.787 9.523 10.787 8.648 11.642C7.777 12.501 7.777 13.856 8.648 14.711Z" fill="#0B0F19"/>
<path d="M19 4H17V2H15V4H9V2H7V4H5C3.897 4 3 4.897 3 6V8V20C3 21.103 3.897 22 5 22H19C20.103 22 21 21.103 21 20V8V6C21 4.897 20.103 4 19 4ZM19.002 20H5V8H19L19.002 20Z" fill="#0B0F19"/>
</svg>
