<svg width="24" height="24" viewBox="0 0 24 24" fill="none" xmlns="http://www.w3.org/2000/svg">
<path d="M18.944 10.112C18.507 6.67 15.56 4 12 4C9.244 4 6.85 5.611 5.757 8.15C3.609 8.792 2 10.819 2 13C2 15.757 4.243 18 7 18V16C5.346 16 4 14.654 4 13C4 11.597 5.199 10.244 6.673 9.985L7.254 9.882L7.446 9.323C8.149 7.273 9.895 6 12 6C14.757 6 17 8.243 17 11V12H18C19.103 12 20 12.897 20 14C20 15.103 19.103 16 18 16H17V18H18C20.206 18 22 16.206 22 14C22 12.119 20.695 10.538 18.944 10.112Z" fill="#0B0F19"/>
<path d="M15 17C15.5523 17 16 16.5523 16 16C16 15.4477 15.5523 15 15 15C14.4477 15 14 15.4477 14 16C14 16.5523 14.4477 17 15 17Z" fill="#0B0F19"/>
<path d="M15 20C15.5523 20 16 19.5523 16 19C16 18.4477 15.5523 18 15 18C14.4477 18 14 18.4477 14 19C14 19.5523 14.4477 20 15 20Z" fill="#0B0F19"/>
<path d="M12 19C12.5523 19 13 18.5523 13 18C13 17.4477 12.5523 17 12 17C11.4477 17 11 17.4477 11 18C11 18.5523 11.4477 19 12 19Z" fill="#0B0F19"/>
<path d="M12 22C12.5523 22 13 21.5523 13 21C13 20.4477 12.5523 20 12 20C11.4477 20 11 20.4477 11 21C11 21.5523 11.4477 22 12 22Z" fill="#0B0F19"/>
<path d="M9 20C9.55228 20 10 19.5523 10 19C10 18.4477 9.55228 18 9 18C8.44772 18 8 18.4477 8 19C8 19.5523 8.44772 20 9 20Z" fill="#0B0F19"/>
<path d="M9 17C9.55228 17 10 16.5523 10 16C10 15.4477 9.55228 15 9 15C8.44772 15 8 15.4477 8 16C8 16.5523 8.44772 17 9 17Z" fill="#0B0F19"/>
</svg>
