<svg width="24" height="24" viewBox="0 0 24 24" fill="none" xmlns="http://www.w3.org/2000/svg">
<path d="M9.00002 22H10V20H9.01102C8.70302 19.994 6.00002 19.827 6.00002 16C6.00002 14.007 5.33502 12.754 4.49802 12C5.33502 11.246 6.00002 9.993 6.00002 8C6.00002 4.173 8.70302 4.006 9.00002 4H10V2H8.99802C7.26902 2.004 4.00002 3.264 4.00002 8C4.00002 10.8 2.32202 10.99 1.98602 11L2.00002 13C2.08202 13 4.00002 13.034 4.00002 16C4.00002 20.736 7.26902 21.996 9.00002 22ZM22 11C21.918 11 20 10.966 20 8C20 3.264 16.731 2.004 15 2H14V4H14.989C15.297 4.006 18 4.173 18 8C18 9.993 18.665 11.246 19.502 12C18.665 12.754 18 14.007 18 16C18 19.827 15.297 19.994 15 20H14V22H15.002C16.731 21.996 20 20.736 20 16C20 13.2 21.678 13.01 22.014 13L22 11Z" fill="#0B0F19"/>
</svg>
