<svg width="24" height="24" viewBox="0 0 24 24" fill="none" xmlns="http://www.w3.org/2000/svg">
<path d="M21.406 6.08601L12.406 2.08601C12.146 1.97101 11.853 1.97101 11.593 2.08601L2.593 6.08601C2.573 6.09501 2.559 6.11001 2.539 6.12101C2.511 6.13501 2.481 6.14401 2.455 6.16101C2.433 6.17601 2.416 6.19501 2.395 6.21101C2.367 6.23201 2.34 6.25501 2.315 6.27901C2.274 6.31801 2.238 6.36001 2.205 6.40501C2.185 6.43301 2.164 6.45801 2.146 6.48601C2.115 6.53901 2.092 6.59401 2.07 6.65101C2.061 6.67801 2.047 6.70301 2.039 6.73001C2.015 6.81701 2 6.90701 2 7.00001V17C2 17.396 2.232 17.753 2.594 17.914L11.594 21.914C11.724 21.972 11.862 22 12 22C12.139 22 12.273 21.961 12.402 21.904L12.406 21.914L21.406 17.914C21.768 17.753 22 17.396 22 17V7.00001C22 6.60401 21.768 6.24701 21.406 6.08601ZM12 4.09501L18.538 7.00001L12 9.90501L10.692 9.32401L5.463 7.00001L12 4.09501ZM4 16.351V8.53901L11 11.65V19.461L4 16.351ZM13 19.461V11.65L20 8.53901V16.351L13 19.461Z" fill="#0B0F19"/>
</svg>
