<svg width="24" height="24" viewBox="0 0 24 24" fill="none" xmlns="http://www.w3.org/2000/svg">
<path d="M7.375 16.781L8.625 15.219L4.601 12L8.625 8.78097L7.375 7.21897L2.375 11.219C2.138 11.409 2 11.696 2 12C2 12.304 2.138 12.591 2.375 12.781L7.375 16.781ZM16.625 7.21897L15.375 8.78097L19.399 12L15.375 15.219L16.625 16.781L21.625 12.781C21.862 12.591 22 12.304 22 12C22 11.696 21.862 11.409 21.625 11.219L16.625 7.21897Z" fill="#0B0F19"/>
<path d="M14.976 3.21636L10.9766 21.2164L9.02323 20.7824L13.0226 2.78235L14.976 3.21636Z" fill="#0B0F19"/>
</svg>
