<svg width="24" height="24" viewBox="0 0 24 24" fill="none" xmlns="http://www.w3.org/2000/svg">
<path d="M17.813 3.838C17.439 3.313 16.831 3 16.187 3H7.81302C7.16902 3 6.56102 3.313 6.14602 3.899L2.14602 10.48C1.91702 10.857 1.96102 11.34 2.25702 11.668L11.257 21.668C11.446 21.88 11.717 22 12 22C12.283 22 12.554 21.88 12.743 21.669L21.743 11.669C22.039 11.341 22.084 10.857 21.854 10.481L17.813 3.838ZM12 19.505L5.24502 12H18.754L12 19.505ZM4.77702 10L7.81302 5L16.145 4.938L19.222 10H4.77702Z" fill="#0B0F19"/>
</svg>
