<svg width="24" height="24" viewBox="0 0 24 24" fill="none" xmlns="http://www.w3.org/2000/svg">
<path d="M11.001 10H13.001V15H11.001V10ZM11 16H13V18H11V16Z" fill="#0B0F19"/>
<path d="M13.768 4.2C13.42 3.545 12.742 3.138 12 3.138C11.258 3.138 10.58 3.545 10.232 4.201L2.89398 18.064C2.56298 18.69 2.58298 19.425 2.94798 20.032C3.31298 20.638 3.95298 21 4.66098 21H19.339C20.047 21 20.688 20.638 21.053 20.032C21.417 19.426 21.438 18.69 21.107 18.064L13.768 4.2ZM4.66098 19L12 5.137L19.344 19H4.66098Z" fill="#0B0F19"/>
</svg>
