<svg width="24" height="24" viewBox="0 0 24 24" fill="none" xmlns="http://www.w3.org/2000/svg">
<path d="M9 6C10.1046 6 11 5.10457 11 4C11 2.89543 10.1046 2 9 2C7.89543 2 7 2.89543 7 4C7 5.10457 7.89543 6 9 6Z" fill="#0B0F19"/>
<path d="M16.98 14.804C16.887 14.337 16.477 14 16 14H11.867L11.438 11H16V9H11.153L10.99 7.858C10.92 7.366 10.498 7 10 7H9.00003C8.71003 7 8.43503 7.126 8.24403 7.345C8.05503 7.563 7.96903 7.854 8.01003 8.142L8.88703 14.284C9.02603 15.262 9.87803 16 10.867 16H15.18L16.019 20.196C16.113 20.663 16.523 21 17 21H20V19H17.819L16.98 14.804Z" fill="#0B0F19"/>
<path d="M12.51 17.5C11.771 18.976 10.26 20 8.5 20C6.019 20 4 17.981 4 15.5C4 13.614 5.169 12.002 6.817 11.333L6.528 9.308C3.905 10.145 2 12.604 2 15.5C2 19.084 4.916 22 8.5 22C10.848 22 12.902 20.744 14.045 18.874L13.771 17.5H12.51Z" fill="#0B0F19"/>
</svg>
