<svg width="24" height="24" viewBox="0 0 24 24" fill="none" xmlns="http://www.w3.org/2000/svg">
<path d="M3.00001 13H4.00001V15V20C4.00001 21.103 4.89701 22 6.00001 22H18C19.103 22 20 21.103 20 20V15V13H21C21.404 13 21.77 12.756 21.924 12.383C22.079 12.009 21.993 11.579 21.707 11.293L12.707 2.29301C12.316 1.90201 11.684 1.90201 11.293 2.29301L2.29301 11.293C2.00701 11.579 1.92101 12.009 2.07601 12.383C2.23101 12.756 2.59601 13 3.00001 13ZM12 4.41401L18 10.414V15L18.001 20H6.00001V15V12V10.415L12 4.41401Z" fill="#0B0F19"/>
<path d="M12 17C14.206 17 16 15.206 16 13C16 10.794 14.206 9 12 9C9.794 9 8 10.794 8 13C8 15.206 9.794 17 12 17ZM12 11C13.103 11 14 11.897 14 13C14 14.103 13.103 15 12 15C10.897 15 10 14.103 10 13C10 11.897 10.897 11 12 11Z" fill="#0B0F19"/>
</svg>
