<svg width="24" height="24" viewBox="0 0 24 24" fill="none" xmlns="http://www.w3.org/2000/svg">
<path d="M15.566 11.021C17.685 9.771 19 7.464 19 5V4H20V2H19H5H4V4H5V5C5 7.464 6.315 9.771 8.434 11.021C8.788 11.229 9 11.566 9 11.921V12.079C9 12.433 8.788 12.769 8.434 12.979C6.315 14.229 5 16.536 5 19V20H4V22H5H19H20V20H19V19C19 16.536 17.685 14.229 15.567 12.98C15.212 12.77 15 12.433 15 12.079V11.921C15 11.566 15.212 11.229 15.566 11.021ZM14.551 14.702C16.062 15.594 17 17.24 17 19V20H7V19C7 17.24 7.938 15.594 9.45 14.701C10.421 14.128 11 13.147 11 12.079V11.921C11 10.852 10.42 9.87 9.449 9.298C7.938 8.406 7 6.76 7 5V4H17V5C17 6.76 16.062 8.406 14.551 9.298C13.58 9.87 13 10.852 13 11.921V12.079C13 13.147 13.579 14.128 14.551 14.702Z" fill="#0B0F19"/>
</svg>
