<svg width="24" height="24" viewBox="0 0 24 24" fill="none" xmlns="http://www.w3.org/2000/svg">
<path d="M12 4.595C10.896 3.589 9.48801 3.037 8.00401 3.037C6.42601 3.037 4.93201 3.66 3.79101 4.795C1.43801 7.158 1.43901 10.854 3.79301 13.207L11.125 20.539C11.295 20.838 11.623 21.031 12 21.031C12.322 21.031 12.609 20.868 12.792 20.622L20.207 13.207C22.561 10.853 22.561 7.158 20.205 4.791C19.068 3.66 17.574 3.037 15.996 3.037C14.513 3.037 13.104 3.589 12 4.595ZM18.791 6.205C20.354 7.776 20.355 10.23 18.793 11.793L12 18.586L5.20701 11.793C3.64501 10.23 3.64601 7.776 5.20501 6.209C5.96501 5.453 6.95901 5.037 8.00401 5.037C9.04901 5.037 10.039 5.453 10.793 6.207L11.293 6.707C11.684 7.098 12.316 7.098 12.707 6.707L13.207 6.207C14.719 4.698 17.281 4.702 18.791 6.205Z" fill="#0B0F19"/>
</svg>
