<svg width="24" height="24" viewBox="0 0 24 24" fill="none" xmlns="http://www.w3.org/2000/svg">
<path d="M12.279 8.833L12 9.112L11.721 8.833C10.633 7.745 8.90801 7.745 7.81501 8.833C6.72601 9.927 6.72601 11.651 7.81501 12.74L12 16.926L16.186 12.74C17.275 11.652 17.275 9.927 16.186 8.833C15.092 7.745 13.367 7.745 12.279 8.833Z" fill="#0B0F19"/>
<path d="M12 2C6.486 2 2 6.486 2 12C2 17.514 6.486 22 12 22C17.514 22 22 17.514 22 12C22 6.486 17.514 2 12 2ZM12 20C7.589 20 4 16.411 4 12C4 7.589 7.589 4 12 4C16.411 4 20 7.589 20 12C20 16.411 16.411 20 12 20Z" fill="#0B0F19"/>
</svg>
