<svg width="24" height="24" viewBox="0 0 24 24" fill="none" xmlns="http://www.w3.org/2000/svg">
<path d="M12 19C12.946 19 13.81 18.897 14.598 18.719L12.841 16.962C12.568 16.983 12.291 17 12 17C6.64899 17 4.57599 13.154 4.07399 12C4.27799 11.53 4.74799 10.619 5.58199 9.703L4.18399 8.305C2.64599 9.972 2.06299 11.651 2.05199 11.684C1.98299 11.889 1.98299 12.112 2.05199 12.317C2.07299 12.383 4.36699 19 12 19ZM12 5C10.163 5 8.65399 5.396 7.39599 5.981L3.70699 2.293L2.29299 3.707L20.293 21.707L21.707 20.293L18.388 16.974C21.002 15.023 21.935 12.359 21.949 12.317C22.018 12.112 22.018 11.889 21.949 11.684C21.927 11.617 19.633 5 12 5ZM16.972 15.558L14.692 13.278C14.882 12.888 15 12.459 15 12C15 10.359 13.641 9 12 9C11.541 9 11.112 9.118 10.723 9.309L8.91499 7.501C9.79599 7.193 10.814 7 12 7C17.351 7 19.424 10.846 19.926 12C19.624 12.692 18.76 14.342 16.972 15.558Z" fill="#0B0F19"/>
</svg>
