<svg width="24" height="24" viewBox="0 0 24 24" fill="none" xmlns="http://www.w3.org/2000/svg">
<path d="M20 12V10.293C20 5.851 16.521 2.132 12.245 2.003C10.041 1.952 7.994 2.739 6.429 4.259C4.862 5.779 4 7.818 4 10V12C2.897 12 2 12.897 2 14V18C2 19.103 2.897 20 4 20H6V10C6 8.363 6.646 6.834 7.821 5.694C8.995 4.554 10.556 3.955 12.184 4.003C15.392 4.099 18 6.921 18 10.293V20H20C21.103 20 22 19.103 22 18V14C22 12.897 21.103 12 20 12Z" fill="#0B0F19"/>
<path d="M7 12H9V20H7V12ZM15 12H17V20H15V12Z" fill="#0B0F19"/>
</svg>
