<svg width="24" height="24" viewBox="0 0 24 24" fill="none" xmlns="http://www.w3.org/2000/svg">
<path d="M11.998 17L16.184 12.814C17.273 11.726 17.273 10.001 16.184 8.907C15.09 7.819 13.366 7.819 12.277 8.907L11.999 9.186L11.72 8.907C10.632 7.819 8.90701 7.819 7.81301 8.907C6.72501 10.001 6.72501 11.725 7.81301 12.814L11.998 17Z" fill="#0B0F19"/>
<path d="M21 4C21 3.448 20.553 3 20 3H4C3.447 3 3 3.448 3 4V20C3 20.552 3.447 21 4 21H20C20.553 21 21 20.552 21 20V4ZM19 19H5V5H19V19Z" fill="#0B0F19"/>
</svg>
