<svg width="24" height="24" viewBox="0 0 24 24" fill="none" xmlns="http://www.w3.org/2000/svg">
<path d="M2.99998 20H13H21C21.358 20 21.688 19.809 21.867 19.498C22.046 19.187 22.044 18.806 21.864 18.496L14.864 6.496C14.505 5.881 13.495 5.883 13.135 6.496L9.86598 12.1L8.84598 10.468C8.66398 10.177 8.34398 10 7.99998 10H7.99898C7.65398 10 7.33498 10.178 7.15198 10.47L2.15198 18.47C1.95898 18.779 1.94898 19.167 2.12498 19.485C2.30198 19.803 2.63698 20 2.99998 20ZM14 8.985L19.259 18H13.555L11.069 14.013L14 8.985ZM8.00098 12.885L11.197 18H4.80498L8.00098 12.885ZM5.99998 8C7.65398 8 8.99998 6.654 8.99998 5C8.99998 3.346 7.65398 2 5.99998 2C4.34598 2 2.99998 3.346 2.99998 5C2.99998 6.654 4.34598 8 5.99998 8ZM5.99998 4C6.55198 4 6.99998 4.448 6.99998 5C6.99998 5.552 6.55198 6 5.99998 6C5.44798 6 4.99998 5.552 4.99998 5C4.99998 4.448 5.44798 4 5.99998 4Z" fill="#0B0F19"/>
</svg>
