<svg width="24" height="24" viewBox="0 0 24 24" fill="none" xmlns="http://www.w3.org/2000/svg">
<path d="M5.282 12.064C4.854 12.392 4.562 12.673 4.407 12.915C4.252 13.155 4.158 13.413 4.128 13.683H6.807V12.935H5.413C5.494 12.854 5.565 12.784 5.625 12.734C5.687 12.684 5.807 12.592 5.986 12.464C6.289 12.246 6.497 12.044 6.612 11.86C6.728 11.674 6.785 11.485 6.785 11.282C6.785 11.093 6.735 10.919 6.634 10.77C6.534 10.617 6.397 10.502 6.222 10.429C6.048 10.353 5.803 10.318 5.489 10.318C5.189 10.318 4.952 10.356 4.783 10.432C4.611 10.51 4.481 10.622 4.387 10.77C4.293 10.913 4.228 11.116 4.193 11.374L5.087 11.45C5.112 11.262 5.161 11.133 5.234 11.056C5.306 10.983 5.4 10.948 5.513 10.948C5.623 10.948 5.713 10.983 5.785 11.056C5.858 11.127 5.893 11.212 5.893 11.314C5.893 11.405 5.856 11.504 5.785 11.611C5.711 11.713 5.544 11.865 5.282 12.064ZM5.337 18.45C5.223 18.45 5.129 18.414 5.055 18.345C4.981 18.275 4.927 18.15 4.893 17.967L4 18.085C4.059 18.289 4.142 18.457 4.251 18.591C4.36 18.724 4.499 18.826 4.668 18.897C4.836 18.966 5.067 19 5.36 19C5.66 19 5.901 18.953 6.085 18.86C6.27 18.764 6.41 18.632 6.509 18.457C6.607 18.282 6.655 18.103 6.655 17.913C6.655 17.761 6.626 17.631 6.567 17.52C6.507 17.413 6.425 17.325 6.318 17.259C6.252 17.217 6.157 17.181 6.032 17.149C6.187 17.064 6.3 16.966 6.377 16.85C6.453 16.735 6.49 16.61 6.49 16.467C6.49 16.228 6.397 16.03 6.209 15.871C6.022 15.712 5.719 15.633 5.3 15.633C4.935 15.633 4.652 15.705 4.453 15.852C4.253 15.995 4.119 16.205 4.049 16.478L4.893 16.629C4.916 16.467 4.96 16.355 5.026 16.291C5.092 16.227 5.177 16.193 5.283 16.193C5.386 16.193 5.466 16.225 5.524 16.282C5.583 16.342 5.611 16.421 5.611 16.52C5.611 16.624 5.573 16.713 5.494 16.79C5.415 16.867 5.317 16.902 5.201 16.902C5.173 16.902 5.135 16.898 5.085 16.891L5.04 17.54C5.163 17.504 5.26 17.484 5.329 17.484C5.461 17.484 5.566 17.525 5.642 17.61C5.719 17.692 5.757 17.809 5.757 17.962C5.757 18.108 5.717 18.228 5.638 18.316C5.558 18.403 5.458 18.45 5.337 18.45ZM6.285 8.367V5H5.546C5.451 5.208 5.319 5.383 5.152 5.523C4.984 5.665 4.748 5.785 4.444 5.888V6.642C4.65 6.577 4.821 6.509 4.958 6.438C5.095 6.369 5.235 6.276 5.381 6.162V8.368H6.285V8.367ZM9 6H20V8H9V6ZM9 11H20V13H9V11ZM9 16H20V18H9V16Z" fill="#0B0F19"/>
</svg>
