<svg width="24" height="24" viewBox="0 0 24 24" fill="none" xmlns="http://www.w3.org/2000/svg">
<path d="M12 22C13.1046 22 14 21.1046 14 20C14 18.8954 13.1046 18 12 18C10.8954 18 10 18.8954 10 20C10 21.1046 10.8954 22 12 22Z" fill="#0B0F19"/>
<path d="M12 6C13.1046 6 14 5.10457 14 4C14 2.89543 13.1046 2 12 2C10.8954 2 10 2.89543 10 4C10 5.10457 10.8954 6 12 6Z" fill="#0B0F19"/>
<path d="M6.34299 19.657C7.44756 19.657 8.34299 18.7616 8.34299 17.657C8.34299 16.5524 7.44756 15.657 6.34299 15.657C5.23842 15.657 4.34299 16.5524 4.34299 17.657C4.34299 18.7616 5.23842 19.657 6.34299 19.657Z" fill="#0B0F19"/>
<path d="M17.657 8.34302C18.7616 8.34302 19.657 7.44759 19.657 6.34302C19.657 5.23845 18.7616 4.34302 17.657 4.34302C16.5524 4.34302 15.657 5.23845 15.657 6.34302C15.657 7.44759 16.5524 8.34302 17.657 8.34302Z" fill="#0B0F19"/>
<path d="M3.99999 14.001C5.10511 14.001 6.00099 13.1051 6.00099 12C6.00099 10.8949 5.10511 9.99902 3.99999 9.99902C2.89487 9.99902 1.99899 10.8949 1.99899 12C1.99899 13.1051 2.89487 14.001 3.99999 14.001Z" fill="#0B0F19"/>
<path d="M20 14C21.1046 14 22 13.1046 22 12C22 10.8954 21.1046 10 20 10C18.8954 10 18 10.8954 18 12C18 13.1046 18.8954 14 20 14Z" fill="#0B0F19"/>
<path d="M6.34299 8.34399C7.44756 8.34399 8.34299 7.44856 8.34299 6.34399C8.34299 5.23942 7.44756 4.34399 6.34299 4.34399C5.23842 4.34399 4.34299 5.23942 4.34299 6.34399C4.34299 7.44856 5.23842 8.34399 6.34299 8.34399Z" fill="#0B0F19"/>
<path d="M17.657 19.658C18.7616 19.658 19.657 18.7626 19.657 17.658C19.657 16.5535 18.7616 15.658 17.657 15.658C16.5524 15.658 15.657 16.5535 15.657 17.658C15.657 18.7626 16.5524 19.658 17.657 19.658Z" fill="#0B0F19"/>
</svg>
