<svg width="24" height="24" viewBox="0 0 24 24" fill="none" xmlns="http://www.w3.org/2000/svg">
<path d="M10.998 16L15.998 12L10.998 8V11H1.99799V13H10.998V16Z" fill="#0B0F19"/>
<path d="M12.999 2.99902C10.594 2.99902 8.33401 3.93602 6.63501 5.63602L8.04901 7.05002C9.37101 5.72802 11.129 4.99902 12.999 4.99902C14.869 4.99902 16.627 5.72802 17.949 7.05002C19.271 8.37202 20 10.13 20 12C20 13.87 19.271 15.628 17.949 16.95C16.627 18.272 14.869 19.001 12.999 19.001C11.129 19.001 9.37101 18.272 8.04901 16.95L6.63501 18.364C8.33401 20.064 10.594 21.001 12.999 21.001C15.404 21.001 17.664 20.064 19.363 18.364C21.063 16.665 22 14.405 22 12C22 9.59502 21.063 7.33502 19.363 5.63602C17.664 3.93602 15.404 2.99902 12.999 2.99902Z" fill="#0B0F19"/>
</svg>
