<svg width="24" height="24" viewBox="0 0 24 24" fill="none" xmlns="http://www.w3.org/2000/svg">
<path d="M22 7.99899C22 7.63599 21.803 7.30199 21.484 7.12499L12.462 2.12499C12.161 1.95899 11.795 1.95899 11.494 2.12499L2.516 7.08499C2.198 7.26099 2.001 7.59499 2 7.95799C1.999 8.31999 2.195 8.65599 2.513 8.83299L11.535 13.873C11.687 13.958 11.854 14 12.022 14C12.19 14 12.357 13.958 12.508 13.874L21.486 8.87399C21.804 8.69699 22 8.36199 22 7.99899ZM12.023 11.854L5.06 7.96499L11.977 4.14299L18.941 8.00199L12.023 11.854Z" fill="#0B0F19"/>
<path d="M20.515 11.126L12 15.856L3.48501 11.126L2.51401 12.874L11.514 17.874C11.665 17.958 11.833 18 12 18C12.167 18 12.335 17.958 12.485 17.874L21.485 12.874L20.515 11.126Z" fill="#0B0F19"/>
<path d="M20.515 15.126L12 19.856L3.48501 15.126L2.51401 16.874L11.514 21.874C11.665 21.958 11.833 22 12 22C12.167 22 12.335 21.958 12.485 21.874L21.485 16.874L20.515 15.126Z" fill="#0B0F19"/>
</svg>
