<svg width="24" height="24" viewBox="0 0 24 24" fill="none" xmlns="http://www.w3.org/2000/svg">
<path d="M8.46499 11.293C9.59799 10.16 11.574 10.16 12.707 11.293L13.414 12L14.828 10.586L14.121 9.879C13.178 8.935 11.922 8.414 10.586 8.414C9.24999 8.414 7.99399 8.935 7.05099 9.879L4.92899 12C2.98099 13.949 2.98099 17.122 4.92899 19.071C5.90399 20.046 7.18399 20.533 8.46399 20.533C9.74499 20.533 11.026 20.046 12 19.071L12.707 18.364L11.293 16.95L10.586 17.657C9.41599 18.824 7.51299 18.826 6.34299 17.657C5.17399 16.487 5.17399 14.584 6.34299 13.414L8.46499 11.293Z" fill="#0B0F19"/>
<path d="M12 4.929L11.293 5.636L12.707 7.05L13.414 6.343C14.583 5.176 16.486 5.174 17.657 6.343C18.826 7.513 18.826 9.416 17.657 10.586L15.535 12.707C14.402 13.84 12.426 13.84 11.293 12.707L10.586 12L9.172 13.414L9.879 14.121C10.822 15.065 12.078 15.586 13.414 15.586C14.75 15.586 16.006 15.065 16.949 14.121L19.071 12C21.019 10.051 21.019 6.878 19.071 4.929C17.121 2.979 13.948 2.98 12 4.929Z" fill="#0B0F19"/>
</svg>
