<svg width="24" height="24" viewBox="0 0 24 24" fill="none" xmlns="http://www.w3.org/2000/svg">
<path d="M2 11H7V13H2V11ZM17 11H22V13H17V11ZM11 17H13V22H11V17ZM11 2H13V7H11V2Z" fill="#0B0F19"/>
<path d="M4.22211 5.63635L5.6363 4.22211L9.17189 7.75759L7.7577 9.17182L4.22211 5.63635Z" fill="#0B0F19"/>
<path d="M19.7779 18.3636L18.3637 19.7779L14.8281 16.2424L16.2423 14.8282L19.7779 18.3636Z" fill="#0B0F19"/>
<path d="M7.75769 14.8281L9.17188 16.2424L5.63628 19.7778L4.2221 18.3636L7.75769 14.8281Z" fill="#0B0F19"/>
<path d="M14.828 7.75732L18.364 4.22228L19.778 5.6367L16.242 9.17174L14.828 7.75732Z" fill="#0B0F19"/>
</svg>
