<svg width="24" height="24" viewBox="0 0 24 24" fill="none" xmlns="http://www.w3.org/2000/svg">
<path d="M12 2C6.486 2 2 5.589 2 10C2 12.908 3.898 15.515 7 16.934V22L12.34 17.995C17.697 17.852 22 14.32 22 10C22 5.589 17.514 2 12 2ZM12 16H11.667L9 18V15.583L8.359 15.336C5.67 14.301 4 12.256 4 10C4 6.691 7.589 4 12 4C16.411 4 20 6.691 20 10C20 13.309 16.411 16 12 16Z" fill="#0B0F19"/>
<path d="M14.293 6.29303L12 8.58603L9.707 6.29303L8.293 7.70703L10.586 10L8.293 12.293L9.707 13.707L12 11.414L14.293 13.707L15.707 12.293L13.414 10L15.707 7.70703L14.293 6.29303Z" fill="#0B0F19"/>
</svg>
