<svg width="24" height="24" viewBox="0 0 24 24" fill="none" xmlns="http://www.w3.org/2000/svg">
<path d="M20.742 13.045C20.065 13.225 19.366 13.316 18.665 13.316C16.53 13.316 14.525 12.486 13.019 10.98C11.011 8.97201 10.22 6.01301 10.955 3.25701C11.047 2.91201 10.948 2.54401 10.696 2.29201C10.444 2.04001 10.077 1.93801 9.73 2.03401C8.028 2.48901 6.47601 3.38201 5.241 4.61601C1.343 8.51401 1.343 14.859 5.241 18.759C7.13 20.648 9.642 21.689 12.313 21.689C14.984 21.689 17.495 20.649 19.383 18.76C20.619 17.523 21.513 15.969 21.966 14.269C22.058 13.924 21.958 13.556 21.706 13.304C21.454 13.051 21.085 12.951 20.742 13.045ZM17.97 17.346C16.459 18.857 14.45 19.689 12.314 19.689C10.177 19.689 8.168 18.856 6.656 17.345C3.538 14.226 3.538 9.15001 6.656 6.03101C7.25801 5.42901 7.954 4.92901 8.716 4.54801C8.494 7.43301 9.53 10.32 11.606 12.396C13.674 14.465 16.533 15.516 19.454 15.287C19.072 16.046 18.571 16.743 17.97 17.346Z" fill="#0B0F19"/>
</svg>
