<svg width="24" height="24" viewBox="0 0 24 24" fill="none" xmlns="http://www.w3.org/2000/svg">
<path d="M19.684 5.82099L10.684 2.54899C10.071 2.32599 9.387 2.41499 8.853 2.78999C8.318 3.16299 8 3.77499 8 4.42799V10.557C7.409 10.212 6.731 9.99999 6 9.99999C3.794 9.99999 2 11.794 2 14C2 16.206 3.794 18 6 18C8.206 18 10 16.206 10 14V4.42799L19 7.69999V14.556C18.409 14.212 17.731 14 17 14C14.794 14 13 15.794 13 18C13 20.206 14.794 22 17 22C19.206 22 21 20.206 21 18V7.69999C21 6.86199 20.471 6.10599 19.684 5.82099ZM6 16C4.897 16 4 15.103 4 14C4 12.897 4.897 12 6 12C7.103 12 8 12.897 8 14C8 15.103 7.103 16 6 16ZM17 20C15.897 20 15 19.103 15 18C15 16.897 15.897 16 17 16C18.103 16 19 16.897 19 18C19 19.103 18.103 20 17 20Z" fill="#0B0F19"/>
</svg>
