<svg width="24" height="24" viewBox="0 0 24 24" fill="none" xmlns="http://www.w3.org/2000/svg">
<path d="M21.707 20.293L18.319 16.905C19.368 15.553 20 13.861 20 12.021H18C18 13.31 17.585 14.499 16.891 15.477L15.439 14.025C15.787 13.434 16 12.755 16 12.021V6.021C16 3.804 14.215 2 12.021 2C11.951 2 11.881 2.009 11.812 2.025C9.693 2.124 8 3.878 8 6.021V6.586L3.707 2.293L2.293 3.707L20.293 21.707L21.707 20.293ZM10 6.021C10 4.918 10.897 4.021 12 4.021C12.054 4.021 12.109 4.016 12.164 4.006C13.188 4.08 14 4.956 14 6.021V12.021C14 12.193 13.971 12.356 13.929 12.515L10 8.586V6.021ZM6 12.021H4C4 16.093 7.06 19.457 11 19.952V22.021H13V19.951C13.778 19.852 14.524 19.646 15.218 19.34L13.66 17.782C13.133 17.934 12.577 18.021 12 18.021C8.691 18.021 6 15.329 6 12.021Z" fill="#0B0F19"/>
<path d="M8.011 12.132C8.071 14.247 9.773 15.949 11.888 16.009L8.011 12.132Z" fill="#0B0F19"/>
</svg>
