<svg width="24" height="24" viewBox="0 0 24 24" fill="none" xmlns="http://www.w3.org/2000/svg">
<path d="M15.535 2.808C14.779 2.052 13.463 2.052 12.707 2.808L2.80799 12.707C2.02799 13.486 2.02799 14.756 2.80799 15.535L8.46499 21.192C8.84299 21.57 9.34499 21.778 9.87899 21.778C10.413 21.778 10.915 21.57 11.293 21.192L21.192 11.293C21.57 10.915 21.778 10.413 21.778 9.879C21.778 9.345 21.57 8.843 21.192 8.465L15.535 2.808ZM9.87899 19.778V20.778V19.778L4.22199 14.121L14.121 4.222L19.778 9.879L9.87899 19.778Z" fill="#0B0F19"/>
<path d="M9 16C9.55228 16 10 15.5523 10 15C10 14.4477 9.55228 14 9 14C8.44772 14 8 14.4477 8 15C8 15.5523 8.44772 16 9 16Z" fill="#0B0F19"/>
<path d="M15.7068 21.7073L14.2926 20.2931L20.2925 14.2934L21.7067 15.7076L15.7068 21.7073Z" fill="#0B0F19"/>
<path d="M8.29321 2.29269L9.7074 3.70693L3.7075 9.70663L2.29331 8.29239L8.29321 2.29269Z" fill="#0B0F19"/>
</svg>
