<svg width="24" height="24" viewBox="0 0 24 24" fill="none" xmlns="http://www.w3.org/2000/svg">
<path d="M20 2H4C2.897 2 2 2.897 2 4V16C2 17.103 2.897 18 4 18H7V21.767L13.277 18H20C21.103 18 22 17.103 22 16V4C22 2.897 21.103 2 20 2ZM20 16H12.723L9 18.233V16H4V4H20V16Z" fill="#0B0F19"/>
<path d="M13.803 9.18902L12.404 7.79102L8.535 11.655V13.054H9.934L13.803 9.18902Z" fill="#0B0F19"/>
<path d="M14.1295 6.06622L15.5282 7.4649L14.4618 8.5312L13.0632 7.13252L14.1295 6.06622Z" fill="#0B0F19"/>
</svg>
