<svg width="24" height="24" viewBox="0 0 24 24" fill="none" xmlns="http://www.w3.org/2000/svg">
<path d="M12 2C6.486 2 2 5.589 2 10C2 12.908 3.898 15.515 7 16.934V22L12.34 17.995C17.697 17.852 22 14.32 22 10C22 5.589 17.514 2 12 2ZM12 16H11.667L9 18V15.583L8.359 15.336C5.67 14.301 4 12.256 4 10C4 6.691 7.589 4 12 4C16.411 4 20 6.691 20 10C20 13.309 16.411 16 12 16Z" fill="#0B0F19"/>
<path d="M8.50299 11.589V12.987H9.90099L13.771 9.12298L12.372 7.72498L8.50299 11.589Z" fill="#0B0F19"/>
<path d="M14.4302 8.46448L13.0315 7.0658L14.0986 5.99879L15.4972 7.39747L14.4302 8.46448Z" fill="#0B0F19"/>
</svg>
