<svg width="24" height="24" viewBox="0 0 24 24" fill="none" xmlns="http://www.w3.org/2000/svg">
<path d="M2.00201 9.63C1.97901 10.041 2.20901 10.424 2.58301 10.596L10.087 14.038L13.529 21.541C13.693 21.897 14.049 22.124 14.438 22.124C14.457 22.124 14.475 22.123 14.495 22.122C14.905 22.1 15.26 21.827 15.389 21.436L20.984 4.404C21.101 4.046 21.007 3.651 20.741 3.384C20.475 3.117 20.081 3.026 19.721 3.141L2.68801 8.736C2.29701 8.865 2.02401 9.22 2.00201 9.63ZM18.466 5.659L14.284 18.389L11.75 12.867C11.649 12.649 11.476 12.474 11.258 12.375L5.73401 9.841L18.466 5.659Z" fill="#0B0F19"/>
</svg>
