<svg width="24" height="24" viewBox="0 0 24 24" fill="none" xmlns="http://www.w3.org/2000/svg">
<path d="M12 2C9.33 2 6.818 3.04 4.929 4.929C3.04 6.818 2 9.33 2 12C2 14.67 3.04 17.182 4.929 19.071C6.818 20.96 9.33 22 12 22C14.67 22 17.182 20.96 19.071 19.071C20.96 17.182 22 14.67 22 12C22 9.33 20.96 6.818 19.071 4.929C17.182 3.04 14.67 2 12 2ZM17.657 17.657C16.146 19.168 14.137 20 12 20C9.863 20 7.854 19.168 6.343 17.657C4.832 16.146 4 14.137 4 12C4 9.863 4.832 7.854 6.343 6.343C7.615 5.07 9.242 4.287 11 4.069V12C11 12.553 11.447 13 12 13H19.931C19.713 14.758 18.93 16.385 17.657 17.657ZM13 11V4.062C14.758 4.28 16.384 5.071 17.657 6.343C18.93 7.616 19.721 9.242 19.938 11H13Z" fill="#0B0F19"/>
</svg>
