<svg width="24" height="24" viewBox="0 0 24 24" fill="none" xmlns="http://www.w3.org/2000/svg">
<path d="M16.566 21.999C16.571 21.999 16.589 21.999 16.594 21.999C17.122 21.999 17.621 21.791 17.999 21.413L20.711 18.701C21.102 18.31 21.102 17.678 20.711 17.287L16.711 13.287C16.32 12.896 15.688 12.896 15.297 13.287L13.703 14.881C12.964 14.661 11.585 14.161 10.711 13.287C9.83697 12.413 9.33697 11.034 9.11697 10.295L10.711 8.701C11.102 8.31 11.102 7.678 10.711 7.287L6.71097 3.287C6.33597 2.912 5.67197 2.912 5.29697 3.287L2.58597 5.999C2.20597 6.379 1.99197 6.901 1.99997 7.434C2.02297 8.858 2.39997 13.804 6.29797 17.702C10.196 21.6 15.142 21.976 16.566 21.999ZM6.00497 5.408L8.59097 7.994L7.29797 9.287C7.05897 9.525 6.95697 9.869 7.02697 10.199C7.05097 10.314 7.63797 13.041 9.29797 14.701C10.958 16.361 13.685 16.948 13.8 16.972C14.133 17.042 14.474 16.94 14.712 16.701L16.005 15.408L18.591 17.994L16.585 19.999C15.337 19.978 11.067 19.643 7.71197 16.287C4.34597 12.921 4.01997 8.636 3.99997 7.413L6.00497 5.408ZM19.999 10.999H21.999C21.999 5.869 18.126 2 12.989 2V4C17.051 4 19.999 6.943 19.999 10.999Z" fill="#0B0F19"/>
<path d="M12.999 8C15.102 8 15.999 8.897 15.999 11H17.999C17.999 7.775 16.224 6 12.999 6V8Z" fill="#0B0F19"/>
</svg>
