<svg width="24" height="24" viewBox="0 0 24 24" fill="none" xmlns="http://www.w3.org/2000/svg">
<path d="M2.76001 20.205C3.27701 20.786 4.01701 21.046 4.90701 21.046C5.88201 21.046 7.04001 20.727 8.28001 20.186C9.42401 20.705 10.676 20.997 11.989 20.997C13.608 20.997 15.205 20.554 16.605 19.715C18.67 18.481 20.129 16.523 20.712 14.2C21.124 12.557 21.056 10.871 20.549 9.292C21.859 7.056 22.302 5.029 21.221 3.812C20.56 3.068 19.641 2.721 18.646 2.829C17.815 2.919 16.96 3.33 16.098 4.02C14.855 3.38 13.464 3.02 12.001 3.02C10.383 3.02 8.78601 3.463 7.38601 4.302C5.31901 5.536 3.86101 7.495 3.27701 9.817C2.82801 11.605 2.94401 13.447 3.58301 15.142C2.51801 16.346 1.52901 18.819 2.76001 20.205ZM4.25601 18.877C4.03901 18.633 4.25901 17.807 4.63301 17.117C5.08501 17.773 5.61101 18.354 6.19801 18.856C5.17401 19.158 4.48601 19.139 4.25601 18.877ZM18.773 13.712C18.32 15.516 17.186 17.037 15.579 17.997C14.488 18.65 13.246 18.996 11.989 18.996C11.567 18.996 11.156 18.946 10.752 18.874C12.239 17.963 13.756 16.834 15.165 15.582C16.576 14.329 17.887 12.956 18.968 11.586C19.012 12.292 18.95 13.008 18.773 13.712ZM18.864 4.815C19.22 4.782 19.496 4.879 19.725 5.138C19.956 5.399 19.894 6.084 19.473 7.067C19.012 6.366 18.468 5.748 17.856 5.214C18.287 4.952 18.632 4.841 18.864 4.815ZM5.21701 10.305C5.67001 8.501 6.80501 6.979 8.41201 6.019C9.50301 5.366 10.744 5.02 12.001 5.02C14.474 5.02 16.71 6.293 17.984 8.425C18.114 8.643 18.229 8.865 18.335 9.092C17.364 10.533 15.902 12.252 13.837 14.086C11.774 15.919 9.89501 17.168 8.34901 17.962C7.41001 17.384 6.60001 16.586 6.00601 15.591C5.04401 13.985 4.76401 12.107 5.21701 10.305Z" fill="#0B0F19"/>
</svg>
