<svg width="24" height="24" viewBox="0 0 24 24" fill="none" xmlns="http://www.w3.org/2000/svg">
<path d="M16.97 4.757C16.863 4.326 16.483 4.017 16.038 4.001C15.606 3.976 15.192 4.262 15.052 4.684L11.866 14.238L8.914 7.594C8.751 7.227 8.372 6.986 7.981 7C7.579 7.008 7.22 7.255 7.071 7.628L5.323 12H2V14H5.323C6.146 14 6.875 13.506 7.179 12.743L8.048 10.571L11.085 17.406C11.247 17.769 11.606 18 12 18C12.016 18 12.032 18 12.048 17.999C12.461 17.978 12.819 17.708 12.948 17.316L15.862 8.574L16.841 12.485C17.063 13.377 17.861 14 18.781 14H22V12H18.78L16.97 4.757Z" fill="#0B0F19"/>
</svg>
