<svg width="24" height="24" viewBox="0 0 24 24" fill="none" xmlns="http://www.w3.org/2000/svg">
<path d="M20.563 3.34C20.271 3.141 19.896 3.111 19.574 3.261L2.57399 11.261C2.21899 11.429 1.99499 11.788 1.99999 12.18C2.00599 12.572 2.23999 12.925 2.59999 13.082L7.99999 15.445V22.167L13.836 17.999L18.6 20.083C18.728 20.14 18.865 20.167 19 20.167C19.181 20.167 19.36 20.118 19.52 20.021C19.798 19.852 19.977 19.558 19.999 19.233L20.999 4.233C21.021 3.879 20.856 3.54 20.563 3.34ZM18.097 17.68L12.828 15.374L16 9.167L8.35099 13.417L5.41899 12.134L18.89 5.794L18.097 17.68Z" fill="#0B0F19"/>
</svg>
