<svg width="24" height="24" viewBox="0 0 24 24" fill="none" xmlns="http://www.w3.org/2000/svg">
<path d="M16.712 13.288C16.321 12.897 15.689 12.897 15.298 13.288L13.701 14.884C12.877 14.639 11.535 14.113 10.711 13.288C9.83703 12.414 9.33703 11.035 9.11703 10.296L10.711 8.70199C11.102 8.31099 11.102 7.67899 10.711 7.28799L6.71103 3.28799C6.33603 2.91299 5.67203 2.91299 5.29703 3.28799L2.58803 5.99799C2.20603 6.37799 1.99103 6.90199 2.00003 7.43499C2.02203 8.85799 2.39603 13.802 6.29703 17.703C10.195 21.6 15.142 21.977 16.566 22C16.571 22 16.589 22 16.594 22C17.122 22 17.621 21.792 17.999 21.414L20.711 18.702C21.102 18.311 21.102 17.679 20.711 17.288L16.712 13.288ZM16.585 20C15.337 19.979 11.067 19.644 7.71103 16.288C4.34303 12.92 4.01903 8.63599 4.00003 7.41399L6.00403 5.40899L8.59003 7.99499L7.29703 9.28799C7.05903 9.52599 6.95703 9.86999 7.02603 10.2C7.05003 10.315 7.63703 13.042 9.29703 14.702C10.957 16.362 13.684 16.949 13.799 16.973C14.13 17.044 14.472 16.941 14.711 16.702L16.004 15.409L18.59 17.995L16.585 20Z" fill="#0B0F19"/>
<path d="M15.795 6.79099L13.005 3.99999V10.995H20L17.209 8.20499L21.712 3.70199L20.298 2.28799L15.795 6.79099Z" fill="#0B0F19"/>
</svg>
