<svg width="24" height="24" viewBox="0 0 24 24" fill="none" xmlns="http://www.w3.org/2000/svg">
<path d="M4.00301 21C4.08401 21 4.16501 20.99 4.24501 20.97L8.24501 19.97C8.42101 19.926 8.58201 19.835 8.71001 19.707L21.003 7.414C21.381 7.036 21.589 6.534 21.589 6C21.589 5.466 21.381 4.964 21.003 4.586L19.417 3C18.661 2.244 17.345 2.244 16.589 3L4.29601 15.293C4.16801 15.421 4.07701 15.582 4.03301 15.757L3.03301 19.757C2.94701 20.098 3.04801 20.458 3.29601 20.707C3.48501 20.897 3.74101 21 4.00301 21ZM18.003 4.414L19.589 6L18.003 7.586L16.417 6L18.003 4.414ZM5.90601 16.511L15.003 7.414L16.589 9L7.49101 18.097L5.37701 18.625L5.90601 16.511Z" fill="#0B0F19"/>
</svg>
