<svg width="24" height="24" viewBox="0 0 24 24" fill="none" xmlns="http://www.w3.org/2000/svg">
<path d="M16.712 13.288C16.321 12.897 15.689 12.897 15.298 13.288L13.704 14.882C12.965 14.662 11.586 14.162 10.712 13.288C9.83797 12.414 9.33797 11.035 9.11797 10.296L10.712 8.702C11.103 8.311 11.103 7.679 10.712 7.288L6.71197 3.288C6.32097 2.897 5.68897 2.897 5.29797 3.288L2.58597 6C2.20597 6.38 1.99197 6.902 1.99997 7.435C2.02297 8.859 2.39997 13.805 6.29797 17.703C10.196 21.601 15.142 21.977 16.566 22C16.571 22 16.589 22 16.594 22C17.122 22 17.621 21.792 17.999 21.414L20.711 18.702C21.102 18.311 21.102 17.679 20.711 17.288L16.712 13.288ZM16.585 20C15.337 19.979 11.067 19.644 7.71197 16.288C4.34597 12.922 4.01997 8.637 3.99997 7.414L6.00497 5.409L8.59097 7.995L7.29797 9.288C7.05897 9.526 6.95697 9.87 7.02597 10.2C7.04997 10.315 7.63697 13.042 9.29697 14.702C10.957 16.362 13.684 16.949 13.799 16.973C14.13 17.044 14.473 16.941 14.711 16.702L16.004 15.409L18.59 17.995L16.585 20Z" fill="#0B0F19"/>
<path d="M16.795 5.791L12.298 10.288L13.712 11.702L18.209 7.205L21.005 10V2.995H14L16.795 5.791Z" fill="#0B0F19"/>
</svg>
