<svg width="24" height="24" viewBox="0 0 24 24" fill="none" xmlns="http://www.w3.org/2000/svg">
<path d="M18.404 2.998C17.647 2.244 16.327 2.247 15.576 3.003L13.792 4.794L11.586 7H6.99999C6.57899 7 6.20399 7.263 6.06099 7.658L2.06099 18.658C1.92799 19.023 2.01899 19.432 2.29299 19.707L4.29299 21.707C4.48299 21.898 4.73899 22 4.99999 22C5.11399 22 5.22999 21.98 5.34199 21.939L16.342 17.939C16.737 17.796 17 17.421 17 17V12.414L19.207 10.207C19.207 10.207 19.207 10.207 19.207 10.206C19.208 10.206 19.208 10.206 19.208 10.206L21 8.409C21.378 8.031 21.586 7.528 21.585 6.994C21.585 6.459 21.376 5.956 20.997 5.579L18.404 2.998ZM15.293 11.293C15.105 11.48 15 11.734 15 12V16.3L5.75099 19.663L10.422 14.992C10.448 14.993 10.474 15 10.5 15C11.328 15 12 14.328 12 13.5C12 12.672 11.328 12 10.5 12C9.67199 12 8.99999 12.672 8.99999 13.5C8.99999 13.526 9.00699 13.552 9.00799 13.578L4.33699 18.249L7.69999 9H12C12.266 9 12.52 8.895 12.707 8.707L14.5 6.914L17.086 9.5L15.293 11.293ZM18.499 8.085L15.913 5.499L16.992 4.415L19.585 6.996L18.499 8.085Z" fill="#0B0F19"/>
</svg>
