<svg width="24" height="24" viewBox="0 0 24 24" fill="none" xmlns="http://www.w3.org/2000/svg">
<path d="M5.553 19.105L6.317 20.948C7.498 20.555 9.422 20 10 20C10.838 20 11.462 20.208 12.184 20.448C12.959 20.707 13.838 21 15 21C16.177 21 18.078 20.079 18.447 19.895L17.552 18.106C16.831 18.466 15.521 19 15 19C14.162 19 13.538 18.792 12.816 18.552C12.041 18.293 11.162 18 10 18C9.771 18 9.474 18.037 9.143 18.099C9.702 16.95 10 15.561 10 14H13V12H9.626C9.584 11.893 9.542 11.784 9.501 11.683C9.243 11.052 9 10.455 9 9C9 7.631 9.521 6 12 6C14.224 6 15.021 8.227 15.052 8.316L16.948 7.683C16.898 7.533 15.679 4 12 4C8.313 4 7 6.583 7 9C7 10.491 7.234 11.35 7.478 12H5V14H8C8 16.467 7.108 18.328 5.553 19.105Z" fill="#0B0F19"/>
</svg>
