<svg width="24" height="24" viewBox="0 0 24 24" fill="none" xmlns="http://www.w3.org/2000/svg">
<path d="M6.758 8.758L5.344 7.344C4.537 8.15 3.9 9.139 3.503 10.203L5.376 10.904C5.675 10.105 6.152 9.363 6.758 8.758ZM19 12.999C19 10.861 18.168 8.853 16.656 7.344C15.385 6.07 13.758 5.287 12 5.069V2L7 6L12 10V7.089C13.222 7.293 14.349 7.864 15.242 8.758C16.376 9.891 17 11.397 17 13C17 13.001 17 13.002 17 13.002C17 13.332 16.967 13.657 16.914 13.979C16.907 14.022 16.903 14.067 16.895 14.11C16.837 14.417 16.753 14.716 16.648 15.012C16.44 15.597 16.142 16.147 15.757 16.646C15.597 16.855 15.426 17.058 15.241 17.243C15.058 17.426 14.862 17.592 14.658 17.749C14.61 17.786 14.562 17.821 14.513 17.856C14.32 17.997 14.12 18.127 13.912 18.244C13.389 18.536 12.826 18.748 12.236 18.871C12.094 18.901 11.951 18.921 11.806 18.94C11.744 18.949 11.684 18.961 11.622 18.967C10.989 19.031 10.342 18.998 9.724 18.864L9.3 20.819C9.857 20.939 10.429 21 11 21C11.28 21 11.559 20.984 11.834 20.955C11.903 20.948 11.972 20.934 12.041 20.925C12.246 20.899 12.45 20.869 12.651 20.827C12.669 20.823 12.686 20.822 12.704 20.818L12.703 20.813C13.452 20.652 14.17 20.385 14.839 20.018L14.84 20.019C14.85 20.013 14.859 20.006 14.868 20C15.152 19.843 15.425 19.663 15.689 19.471C15.753 19.425 15.816 19.378 15.878 19.33C16.148 19.121 16.41 18.9 16.655 18.655C16.903 18.408 17.125 18.142 17.336 17.87C17.357 17.842 17.385 17.817 17.406 17.789L17.4 17.785C17.862 17.171 18.228 16.5 18.493 15.788L18.501 15.791C18.53 15.713 18.551 15.633 18.577 15.554C18.614 15.444 18.652 15.333 18.684 15.221C18.724 15.081 18.757 14.94 18.789 14.798C18.811 14.699 18.837 14.603 18.855 14.503C18.887 14.332 18.911 14.159 18.931 13.987C18.941 13.911 18.954 13.837 18.961 13.76C18.984 13.511 18.998 13.26 18.998 13.007C19 13.005 19 13.003 19 12.999ZM6.197 16.597L4.597 17.798C4.826 18.103 5.077 18.392 5.343 18.656C5.884 19.197 6.498 19.657 7.166 20.023L8.127 18.269C7.625 17.994 7.164 17.649 6.756 17.24C6.557 17.042 6.369 16.825 6.197 16.597ZM5 13C5 12.855 5.005 12.713 5.015 12.571L3.021 12.428C3.007 12.617 3 12.807 3 13C3 13.964 3.17 14.905 3.504 15.8L5.377 15.099C5.127 14.43 5 13.724 5 13Z" fill="#0B0F19"/>
</svg>
