<svg width="24" height="24" viewBox="0 0 24 24" fill="none" xmlns="http://www.w3.org/2000/svg">
<path d="M16.242 17.242C15.835 17.649 15.374 17.994 14.872 18.269L15.833 20.023C16.501 19.657 17.115 19.197 17.655 18.658C17.922 18.391 18.173 18.102 18.402 17.798L16.802 16.597C16.631 16.825 16.443 17.042 16.242 17.242ZM17.985 12.571C17.995 12.713 18 12.855 18 13C18 13.724 17.873 14.43 17.623 15.099L19.496 15.8C19.83 14.905 20 13.964 20 13C20 12.807 19.993 12.617 19.979 12.429L17.985 12.571ZM19.497 10.203C19.1 9.139 18.463 8.15 17.656 7.344L16.242 8.758C16.847 9.363 17.325 10.106 17.624 10.904L19.497 10.203ZM11.369 18.966C11.322 18.961 11.275 18.951 11.228 18.945C11.071 18.924 10.915 18.902 10.76 18.87C10.171 18.747 9.609 18.535 9.085 18.243C8.877 18.127 8.678 17.996 8.484 17.855C8.435 17.82 8.387 17.785 8.339 17.748C8.135 17.591 7.939 17.425 7.756 17.242C7.571 17.057 7.401 16.854 7.24 16.645C6.855 16.146 6.557 15.596 6.349 15.011C6.244 14.715 6.16 14.415 6.102 14.109C6.094 14.066 6.09 14.021 6.083 13.978C6.033 13.657 6 13.332 6 13.002C6 13.002 6 13.001 6 13C6 11.397 6.624 9.891 7.758 8.758C8.651 7.864 9.778 7.293 11 7.089V10L16 6L11 2V5.069C9.242 5.287 7.615 6.07 6.344 7.344C4.832 8.854 4 10.861 4 12.999C4 12.999 4 12.999 4 13C4 13.003 4 13.005 4 13.008C4 13.261 4.014 13.512 4.037 13.761C4.044 13.837 4.058 13.911 4.067 13.988C4.088 14.16 4.111 14.333 4.143 14.504C4.162 14.604 4.187 14.7 4.209 14.799C4.241 14.941 4.274 15.082 4.314 15.222C4.346 15.334 4.384 15.445 4.421 15.555C4.447 15.634 4.468 15.714 4.497 15.792L4.505 15.789C4.771 16.5 5.138 17.171 5.6 17.785L5.593 17.79C5.614 17.818 5.642 17.843 5.663 17.871C5.874 18.143 6.096 18.409 6.344 18.656C6.589 18.901 6.852 19.122 7.121 19.331C7.184 19.379 7.246 19.426 7.31 19.472C7.575 19.664 7.847 19.844 8.131 20.001C8.141 20.007 8.15 20.014 8.159 20.02L8.16 20.019C8.829 20.386 9.547 20.653 10.296 20.814L10.295 20.819C10.313 20.823 10.33 20.824 10.348 20.828C10.549 20.87 10.753 20.899 10.958 20.926C11.027 20.935 11.096 20.949 11.165 20.956C11.441 20.984 11.72 21 12 21C12.571 21 13.143 20.939 13.697 20.819L13.273 18.864C12.654 18.998 12.004 19.031 11.369 18.966Z" fill="#0B0F19"/>
</svg>
