<svg width="24" height="24" viewBox="0 0 24 24" fill="none" xmlns="http://www.w3.org/2000/svg">
<path d="M11.003 7.05399V3.99999C11.003 3.59599 10.76 3.23099 10.386 3.07599C10.013 2.92199 9.582 3.00699 9.296 3.29299L2.296 10.293C1.905 10.684 1.905 11.316 2.296 11.707L9.296 18.707C9.583 18.994 10.013 19.079 10.386 18.924C10.76 18.769 11.003 18.404 11.003 18V14.904C11.287 14.884 11.568 14.875 11.846 14.875C17.272 14.875 20.085 18.447 20.208 18.605C20.4 18.859 20.697 19 21.003 19C21.109 19 21.217 18.983 21.321 18.948C21.728 18.811 22.003 18.43 22.003 18C22.003 8.87599 13.917 7.31899 11.003 7.05399ZM11.846 12.875C11.199 12.875 10.534 12.92 9.871 13.008C9.374 13.075 9.003 13.499 9.003 14V15.586L4.417 11L9.003 6.41399V7.99999C9.003 8.55199 9.474 8.99999 10.025 8.99999C10.935 8.99999 18.139 9.20099 19.704 15.425C18.05 14.207 15.423 12.875 11.846 12.875Z" fill="#0B0F19"/>
</svg>
