<svg width="24" height="24" viewBox="0 0 24 24" fill="none" xmlns="http://www.w3.org/2000/svg">
<path d="M20.48 6.105L12.48 2.105C12.199 1.964 11.867 1.964 11.585 2.105L3.58502 6.105C3.27902 6.259 3.07202 6.559 3.03802 6.9C3.02702 7.007 2.07702 17.667 11.627 21.914C11.756 21.972 11.895 22 12.033 22C12.171 22 12.31 21.972 12.439 21.914C21.989 17.667 21.039 7.008 21.028 6.9C20.994 6.559 20.787 6.259 20.48 6.105ZM12.033 19.897C5.26502 16.625 4.94402 9.642 4.99902 7.635L12.033 4.118L19.062 7.633C19.1 9.622 18.734 16.651 12.033 19.897Z" fill="#0B0F19"/>
<path d="M14.293 8.293L12 10.586L9.70703 8.293L8.29303 9.707L10.586 12L8.29303 14.293L9.70703 15.707L12 13.414L14.293 15.707L15.707 14.293L13.414 12L15.707 9.707L14.293 8.293Z" fill="#0B0F19"/>
</svg>
