<svg width="24" height="24" viewBox="0 0 24 24" fill="none" xmlns="http://www.w3.org/2000/svg">
<path d="M21.426 11.095L4.42599 3.095C4.07599 2.932 3.66299 2.983 3.36499 3.228C3.06599 3.473 2.93699 3.868 3.02999 4.242L4.96899 12L3.02999 19.758C2.93599 20.132 3.06599 20.528 3.36499 20.773C3.54799 20.923 3.77199 21 3.99999 21C4.14499 21 4.28999 20.969 4.42599 20.905L21.426 12.905C21.776 12.74 22 12.388 22 12C22 11.612 21.776 11.26 21.426 11.095ZM5.48099 18.197L6.31999 14.84L12 12L6.31999 9.16L5.48099 5.803L18.651 12L5.48099 18.197Z" fill="#0B0F19"/>
</svg>
