<svg width="24" height="24" viewBox="0 0 24 24" fill="none" xmlns="http://www.w3.org/2000/svg">
<path d="M20.995 6.903C20.962 6.561 20.756 6.26 20.448 6.106L12.475 2.106C12.194 1.963 11.862 1.964 11.58 2.104L3.55298 6.104C3.25598 6.254 3.05098 6.541 3.00898 6.871C2.99598 6.968 1.86398 16.612 11.55 21.879C11.698 21.96 11.863 22 12.027 22C12.197 22 12.367 21.957 12.519 21.87C21.826 16.611 21.033 7.297 20.995 6.903ZM12.018 19.847C5.15797 15.837 4.87798 9.495 4.95498 7.642L12.026 4.119L19.024 7.63C19.029 9.5 18.543 15.873 12.018 19.847Z" fill="#0B0F19"/>
</svg>
