<svg width="24" height="24" viewBox="0 0 24 24" fill="none" xmlns="http://www.w3.org/2000/svg">
<path d="M3 20C3 21.103 3.897 22 5 22H19C20.103 22 21 21.103 21 20V5C21 3.897 20.103 3 19 3H17C17 2.447 16.553 2 16 2H8C7.447 2 7 2.447 7 3H5C3.897 3 3 3.897 3 5V20ZM5 5H7V7H17V5H19V20H5V5Z" fill="#0B0F19"/>
<path d="M14.2919 10.295L11.9999 12.587L9.70795 10.295L8.29395 11.709L10.5859 14.001L8.29395 16.293L9.70795 17.707L11.9999 15.415L14.2919 17.707L15.7059 16.293L13.4139 14.001L15.7059 11.709L14.2919 10.295Z" fill="#0B0F19"/>
</svg>
