<svg width="24" height="24" viewBox="0 0 24 24" fill="none" xmlns="http://www.w3.org/2000/svg">
<path d="M16 9C14.372 9 13 10.372 13 12C13 13.628 14.372 15 16 15C17.628 15 19 13.628 19 12C19 10.372 17.628 9 16 9Z" fill="#0B0F19"/>
<path d="M16 6H8C4.704 6 2.018 8.682 2 11.986C2 11.991 2 11.995 2 12V12.016C2 12.02 2 12.024 2 12.028C2.015 15.322 4.703 18 8 18H16C19.309 18 22 15.309 22 12C22 8.691 19.309 6 16 6ZM16 16H8C5.798 16 4.004 14.208 4 12.01C4.004 9.799 5.798 8 8 8H16C18.206 8 20 9.794 20 12C20 14.206 18.206 16 16 16Z" fill="#0B0F19"/>
</svg>
