<svg width="24" height="24" viewBox="0 0 24 24" fill="none" xmlns="http://www.w3.org/2000/svg">
<path d="M14.844 20H6.5C5.121 20 4 18.879 4 17.5C4 16.121 5.121 15 6.5 15H13.5C15.43 15 17 13.43 17 11.5C17 9.57 15.43 8 13.5 8H8.639C8.248 8.771 7.771 9.443 7.285 10H13.5C14.327 10 15 10.673 15 11.5C15 12.327 14.327 13 13.5 13H6.5C4.019 13 2 15.019 2 17.5C2 19.981 4.019 22 6.5 22H16.093C15.636 21.422 15.2 20.753 14.844 20ZM5 2C3.346 2 2 3.346 2 5C2 8.188 5 10 5 10C5 10 8 8.187 8 5C8 3.346 6.654 2 5 2ZM5 6.5C4.172 6.5 3.5 5.828 3.5 5C3.5 4.172 4.172 3.5 5 3.5C5.828 3.5 6.5 4.172 6.5 5C6.5 5.828 5.828 6.5 5 6.5Z" fill="#0B0F19"/>
<path d="M19 14C17.346 14 16 15.346 16 17C16 20.188 19 22 19 22C19 22 22 20.187 22 17C22 15.346 20.654 14 19 14ZM19 18.5C18.172 18.5 17.5 17.828 17.5 17C17.5 16.172 18.172 15.5 19 15.5C19.828 15.5 20.5 16.172 20.5 17C20.5 17.828 19.828 18.5 19 18.5Z" fill="#0B0F19"/>
</svg>
