<svg width="24" height="24" viewBox="0 0 24 24" fill="none" xmlns="http://www.w3.org/2000/svg">
<path d="M16.949 14.121L19.071 12C21.019 10.051 21.019 6.878 19.071 4.929C17.121 2.979 13.948 2.981 12 4.929L11.293 5.636L12.707 7.05L13.414 6.343C14.583 5.176 16.486 5.174 17.657 6.343C18.826 7.513 18.826 9.416 17.657 10.586L15.535 12.707C15.288 12.954 15.001 13.142 14.691 13.277L13.414 12L14.828 10.586L14.121 9.879C13.178 8.935 11.922 8.414 10.586 8.414C10.351 8.414 10.122 8.446 9.895 8.48L3.707 2.293L2.293 3.707L20.293 21.707L21.707 20.293L16.171 14.757C16.448 14.573 16.709 14.361 16.949 14.121ZM10.586 17.657C9.417 18.824 7.514 18.826 6.343 17.657C5.174 16.487 5.174 14.584 6.343 13.414L7.819 11.939L6.405 10.525L4.929 12C2.981 13.949 2.981 17.122 4.929 19.071C5.904 20.046 7.184 20.533 8.464 20.533C9.745 20.533 11.026 20.046 12 19.071L12.707 18.364L11.293 16.95L10.586 17.657Z" fill="#0B0F19"/>
</svg>
