<svg width="24" height="24" viewBox="0 0 24 24" fill="none" xmlns="http://www.w3.org/2000/svg">
<path d="M5.12198 21C5.49998 21.378 6.00198 21.586 6.53598 21.586C7.06998 21.586 7.57198 21.378 7.94998 21L12.286 16.664C13.002 16.885 13.745 16.997 14.503 16.997C16.506 16.997 18.39 16.218 19.805 14.802C21.951 12.655 22.592 9.453 21.437 6.644L20.867 5.256L16.623 9.499L14.502 7.377L18.745 3.134L17.356 2.563C16.446 2.189 15.485 2 14.499 2C12.496 2 10.613 2.78 9.19798 4.196C7.21298 6.18 6.51598 9.068 7.33598 11.714L2.99998 16.05C2.21998 16.829 2.21998 18.099 2.99998 18.878L5.12198 21ZM9.66998 12.209L9.41598 11.593C8.56798 9.532 9.03798 7.183 10.612 5.61C11.65 4.572 13.03 4 14.499 4C14.676 4 14.851 4.008 15.025 4.025L11.672 7.378L16.621 12.328L19.976 8.973C20.132 10.581 19.573 12.204 18.389 13.389C16.839 14.939 14.425 15.416 12.405 14.585L11.79 14.33L6.53598 19.586H6.53698L6.53598 20.586V19.586L4.41398 17.464L9.66998 12.209Z" fill="#0B0F19"/>
</svg>
