<svg width="24" height="24" viewBox="0 0 24 24" fill="none" xmlns="http://www.w3.org/2000/svg">
<path d="M11.474 14.42C9.72701 14.42 8.31201 15.836 8.31201 17.583C8.31201 19.328 9.72701 20.744 11.474 20.744C13.22 20.744 14.636 19.328 14.636 17.583C14.636 15.836 13.22 14.42 11.474 14.42ZM15.41 13.814C16.346 14.792 16.923 16.119 16.923 17.583C16.923 19.437 15.998 21.067 14.588 22.053C17.197 21.25 19.359 19.286 20.325 16.911C21.663 13.623 20.415 11.15 18.326 8.90598C18.392 9.19398 18.429 9.49798 18.429 9.80398C18.423 11.715 17.151 13.316 15.41 13.814ZM11.833 9.81098C11.833 11.151 12.92 12.23 14.253 12.23C15.586 12.23 16.676 11.143 16.676 9.81098C16.676 8.47398 15.59 7.39398 14.259 7.39398C12.926 7.39398 11.833 8.47398 11.833 9.81098Z" fill="#0B0F19"/>
<path d="M7.303 21.093C6.506 20.145 6.027 18.92 6.027 17.583C6.027 14.792 8.12 12.493 10.827 12.175C10.365 11.503 10.089 10.689 10.089 9.81099C10.089 7.50799 11.954 5.64899 14.26 5.64899C14.451 5.64899 14.637 5.66099 14.817 5.68299C13.456 4.50699 12.093 3.31399 11.018 2.01099C11.565 7.72499 5.818 5.64899 3.686 10.915C2.264 14.442 3.548 18.807 7.303 21.093Z" fill="#0B0F19"/>
</svg>
