<svg width="24" height="24" viewBox="0 0 24 24" fill="none" xmlns="http://www.w3.org/2000/svg">
<path d="M13.444 8.256C13.044 8.468 12.9 8.818 12.9 9.786C12.9 9.786 13.102 9.592 13.399 9.483C13.617 9.408 13.801 9.288 13.911 9.208C14.249 8.961 14.296 8.646 14.296 8.112C14.296 8.112 13.743 8.096 13.444 8.256ZM11.095 8.485C10.775 8.771 10.677 9.224 10.677 9.224L9.599 13.365L8.71 9.97C8.623 9.615 8.464 9.162 8.215 8.863C7.905 8.485 7.271 8.462 7.2 8.462C7.132 8.462 6.491 8.485 6.174 8.869C5.928 9.172 5.768 9.62 5.681 9.977L4.792 13.372L3.726 9.225C3.726 9.225 3.634 8.766 3.308 8.486C2.779 8.021 1.994 8.119 1.994 8.119L4.042 15.883C4.042 15.883 4.719 15.935 5.057 15.757C5.498 15.533 5.716 15.356 5.986 14.294C6.227 13.354 6.898 10.59 6.96 10.389C6.989 10.291 7.03 10.057 7.201 10.057C7.38 10.057 7.415 10.286 7.442 10.389C7.506 10.584 8.171 13.354 8.418 14.294C8.686 15.349 8.899 15.521 9.347 15.757C9.685 15.935 10.362 15.883 10.362 15.883L12.41 8.124C12.408 8.124 11.621 8.025 11.095 8.485ZM14.296 9.385C14.296 9.385 14.167 9.58 13.876 9.752C13.688 9.856 13.509 9.93 13.314 10.023C12.991 10.177 12.9 10.355 12.9 10.618V15.884C12.9 15.884 13.422 15.947 13.754 15.78C14.19 15.558 14.287 15.345 14.295 14.376V9.385H14.296ZM19.408 12.017L22.007 8.142C22.007 8.142 20.911 7.953 20.366 8.451C20.016 8.766 19.628 9.336 19.628 9.336L18.676 10.722C18.623 10.791 18.572 10.872 18.476 10.872C18.377 10.872 18.315 10.797 18.274 10.722L17.312 9.34C17.312 9.34 16.927 8.772 16.572 8.456C16.032 7.957 14.931 8.146 14.931 8.146L17.534 12.011L14.931 15.869C14.931 15.869 16.077 16.018 16.619 15.519C16.969 15.204 17.307 14.682 17.307 14.682L18.257 13.299C18.31 13.231 18.361 13.152 18.457 13.152C18.557 13.152 18.618 13.227 18.659 13.299L19.611 14.682C19.611 14.682 19.966 15.192 20.311 15.519C20.849 16.018 21.978 15.869 21.978 15.869L19.408 12.017Z" fill="#0B0F19"/>
</svg>
