<svg width="24" height="24" viewBox="0 0 24 24" fill="none" xmlns="http://www.w3.org/2000/svg">
<path d="M21.838 8.44501C21.837 8.44401 21.838 8.44401 21.838 8.44501C21.836 8.44401 21.836 8.44301 21.835 8.44101C21.834 8.44101 21.834 8.44001 21.834 8.44001C21.834 8.43901 21.834 8.43901 21.834 8.43901C21.771 8.34601 21.689 8.26801 21.599 8.21101L12.435 2.13101C12.18 1.95601 11.791 1.95601 11.537 2.13101L2.37102 8.21401C2.27802 8.27101 2.19602 8.35101 2.13302 8.44501C2.04002 8.58501 1.99702 8.74201 2.00002 8.89701V15.057C1.99702 15.21 2.04002 15.366 2.13102 15.505C2.13102 15.505 2.13102 15.505 2.13102 15.506C2.13202 15.507 2.13202 15.507 2.13302 15.508C2.13602 15.514 2.14002 15.518 2.14302 15.523V15.525C2.14402 15.525 2.14402 15.525 2.14402 15.525C2.14502 15.525 2.14502 15.525 2.14502 15.526C2.14602 15.526 2.14602 15.527 2.14602 15.527C2.20902 15.615 2.28602 15.687 2.37202 15.742L11.537 21.824C11.665 21.912 11.819 21.963 11.985 21.963C12.154 21.963 12.308 21.912 12.435 21.824L21.6 15.742C21.691 15.684 21.772 15.608 21.835 15.513C21.929 15.372 21.974 15.213 21.971 15.057V8.89701C21.974 8.74201 21.93 8.58501 21.838 8.44501ZM12.781 4.27301L19.734 8.88601L16.551 10.998L12.78 8.46201V4.27301H12.781ZM11.189 4.27301V8.46201L7.41803 10.998L4.23702 8.88701L11.189 4.27301ZM3.59402 10.371L5.98902 11.961L3.59402 13.572V10.371ZM11.189 19.682L4.22902 15.065L7.42402 12.915L11.189 15.413V19.682ZM11.984 14.029L8.85602 11.951L11.984 9.84601L15.115 11.951L11.984 14.029ZM12.781 19.682V15.412L16.547 12.914L19.74 15.064L12.781 19.682ZM20.378 13.572L17.982 11.961L20.378 10.371V13.572Z" fill="#0B0F19"/>
</svg>
