<svg width="24" height="24" viewBox="0 0 24 24" fill="none" xmlns="http://www.w3.org/2000/svg">
<path d="M20.886 9.26401C19.384 7.76401 16.945 7.76401 15.411 9.26401L9.281 15.395C8.905 15.77 8.905 16.395 9.281 16.772C9.656 17.147 10.281 17.147 10.657 16.772L16.787 10.641C17.536 9.89101 18.757 9.89101 19.509 10.641C20.261 11.391 20.261 12.614 19.509 13.364L13.472 19.399C14.223 20.149 15.443 20.149 16.195 19.399L20.855 14.739C22.386 13.205 22.386 10.766 20.886 9.26401ZM18.822 11.297C18.445 10.922 17.821 10.922 17.446 11.297L11.312 17.459C10.561 18.209 9.342 18.209 8.592 17.459C8.216 17.084 7.59 17.084 7.215 17.459C6.84 17.834 6.84 18.461 7.215 18.834C8.717 20.336 11.157 20.336 12.69 18.834L18.821 12.705C19.196 12.299 19.196 11.672 18.822 11.297ZM16.787 5.16801C15.286 3.66601 12.846 3.66601 11.312 5.16801L5.181 11.297C4.806 11.674 4.806 12.297 5.181 12.672C5.557 13.049 6.182 13.049 6.558 12.672L12.726 6.54301C13.477 5.79301 14.703 5.79301 15.453 6.54301C15.83 6.91801 16.455 6.91801 16.829 6.54301C17.181 6.13701 17.181 5.54301 16.805 5.16801H16.787ZM14.724 7.19901C14.348 6.82201 13.723 6.82201 13.348 7.19901L7.217 13.363C6.468 14.111 5.246 14.111 4.494 13.363C3.743 12.613 3.743 11.392 4.494 10.64L10.531 4.60101C9.78 3.85101 8.56 3.85101 7.809 4.60101L3.118 9.26401C1.617 10.766 1.617 13.205 3.118 14.739C4.619 16.241 7.058 16.241 8.593 14.739L14.722 8.60801C15.099 8.20001 15.099 7.57501 14.722 7.20001H14.724V7.19901Z" fill="#0B0F19"/>
</svg>
