<svg width="24" height="24" viewBox="0 0 24 24" fill="none" xmlns="http://www.w3.org/2000/svg">
<path d="M18.344 8.71001C17.637 8.71001 17.065 9.28201 17.065 9.98801V14.518C17.065 15.227 17.637 15.798 18.344 15.798C19.051 15.798 19.623 15.227 19.623 14.518V9.98801C19.623 9.28201 19.051 8.71001 18.344 8.71001ZM5.65601 8.71001C4.94901 8.71001 4.37701 9.28201 4.37701 9.98801V14.518C4.37701 15.227 4.94901 15.798 5.65601 15.798C6.36301 15.798 6.93501 15.227 6.93501 14.518V9.98801C6.93601 9.28201 6.36301 8.71001 5.65601 8.71001ZM14.545 4.90101L15.313 3.51301C15.409 3.34601 15.346 3.13601 15.18 3.04301C15.012 2.94901 14.801 3.01001 14.709 3.17801L13.92 4.59801C13.332 4.36301 12.684 4.23001 12 4.23001C11.316 4.23001 10.668 4.36201 10.08 4.59701L9.29101 3.17901C9.20101 3.01101 8.99001 2.95001 8.82001 3.04401C8.65401 3.13701 8.59301 3.34701 8.68701 3.51401L9.45501 4.90201C8.07201 5.69001 7.14801 7.09901 7.14801 8.71001C7.14801 8.72101 7.14801 8.73101 7.15001 8.74401C7.14801 8.75001 7.14801 8.75701 7.14801 8.76301V8.76401H16.851V8.76301C16.851 8.75701 16.851 8.75001 16.851 8.74401C16.851 8.73101 16.851 8.72101 16.851 8.71001C16.852 7.09901 15.928 5.69101 14.545 4.90101ZM9.76001 6.86901C9.57101 6.86901 9.41601 6.71301 9.41601 6.52301C9.41601 6.33301 9.57001 6.17701 9.76001 6.17701C9.95101 6.17701 10.108 6.33201 10.108 6.52301C10.107 6.71301 9.95101 6.86901 9.76001 6.86901ZM14.24 6.86901C14.049 6.86901 13.894 6.71301 13.894 6.52301C13.894 6.33301 14.048 6.17701 14.24 6.17701C14.429 6.17701 14.584 6.33201 14.584 6.52301C14.584 6.71301 14.43 6.86901 14.24 6.86901ZM7.14801 16.12C7.14801 16.766 7.67301 17.291 8.32201 17.291H8.90801V19.692C8.90801 20.399 9.48201 20.97 10.187 20.97C10.892 20.97 11.466 20.399 11.466 19.692V17.291H12.532V19.692C12.532 20.399 13.104 20.97 13.809 20.97C14.518 20.97 15.09 20.399 15.09 19.692V17.291H15.676C16.324 17.291 16.85 16.767 16.85 16.12V9.02801H7.14801V16.12Z" fill="#0B0F19"/>
</svg>
