<svg width="24" height="24" viewBox="0 0 24 24" fill="none" xmlns="http://www.w3.org/2000/svg">
<path d="M3.34497 6.935C1.58897 9.458 1.80697 12.741 3.14897 15.422C3.18097 15.486 3.21397 15.55 3.24697 15.612C3.26797 15.652 3.28797 15.694 3.30997 15.733C3.32197 15.757 3.33597 15.78 3.34897 15.802C3.37197 15.844 3.39497 15.885 3.41897 15.927C3.46097 16 3.50297 16.073 3.54697 16.146C3.57097 16.186 3.59497 16.226 3.61997 16.266C3.66797 16.344 3.71797 16.422 3.76797 16.498C3.78897 16.531 3.80997 16.564 3.83097 16.596C3.89997 16.7 3.97197 16.804 4.04597 16.907C4.04797 16.909 4.04997 16.912 4.05197 16.915C4.06397 16.931 4.07597 16.947 4.08797 16.964C4.15097 17.052 4.21697 17.139 4.28397 17.225C4.30897 17.257 4.33297 17.288 4.35797 17.319C4.41797 17.394 4.47797 17.467 4.53997 17.542C4.56197 17.569 4.58597 17.597 4.60897 17.624C4.69097 17.721 4.77597 17.818 4.86097 17.913C4.86197 17.914 4.86397 17.916 4.86597 17.918C4.86997 17.922 4.87297 17.924 4.87597 17.929C4.95897 18.02 5.04597 18.11 5.13197 18.2C5.15897 18.227 5.18697 18.255 5.21497 18.283C5.28197 18.35 5.35097 18.417 5.41997 18.484C5.44797 18.511 5.47597 18.538 5.50397 18.564C5.59597 18.651 5.68997 18.736 5.78497 18.82C5.78597 18.821 5.78797 18.822 5.78897 18.824C5.80497 18.838 5.82197 18.852 5.83797 18.865C5.92097 18.938 6.00697 19.01 6.09297 19.08C6.12797 19.108 6.16297 19.137 6.19797 19.164C6.26797 19.22 6.33897 19.276 6.40997 19.33C6.44797 19.359 6.48597 19.388 6.52397 19.417C6.60297 19.475 6.68197 19.532 6.76297 19.588C6.79197 19.609 6.81997 19.63 6.84997 19.65C6.85797 19.656 6.86597 19.662 6.87397 19.667C6.94997 19.72 7.02797 19.77 7.10497 19.82C7.13797 19.842 7.17097 19.865 7.20597 19.887C7.32497 19.963 7.44597 20.037 7.56897 20.109C7.60197 20.128 7.63497 20.147 7.66897 20.165C7.75897 20.217 7.84897 20.269 7.94097 20.318C7.99097 20.344 8.04097 20.37 8.09197 20.396C8.15697 20.43 8.22097 20.464 8.28697 20.497C8.30197 20.505 8.31697 20.512 8.33197 20.519C8.35797 20.531 8.38497 20.544 8.41197 20.558C8.51397 20.606 8.61697 20.655 8.71997 20.701C8.74197 20.71 8.76397 20.72 8.78597 20.73C8.90497 20.782 9.02497 20.832 9.14597 20.879C9.17497 20.891 9.20497 20.902 9.23397 20.914C9.34697 20.958 9.45997 21 9.57397 21.041C9.58897 21.046 9.60297 21.051 9.61597 21.056C9.74097 21.1 9.86797 21.141 9.99597 21.18C10.026 21.189 10.057 21.199 10.088 21.208C10.216 21.247 10.344 21.293 10.478 21.318C18.97 22.866 21.436 16.216 21.436 16.216C19.364 18.914 15.688 19.626 12.204 18.834C12.072 18.804 11.943 18.763 11.814 18.725C11.782 18.715 11.75 18.705 11.717 18.696C11.592 18.657 11.467 18.617 11.342 18.573C11.327 18.568 11.308 18.561 11.293 18.555C11.181 18.516 11.071 18.475 10.962 18.432C10.931 18.42 10.9 18.408 10.869 18.396C10.749 18.349 10.63 18.299 10.513 18.248C10.488 18.238 10.466 18.227 10.442 18.217C10.34 18.171 10.24 18.125 10.141 18.077C10.113 18.063 10.083 18.05 10.054 18.035C9.97597 17.997 9.89897 17.956 9.82197 17.917C9.77097 17.89 9.71797 17.864 9.66697 17.835C9.57297 17.785 9.47997 17.732 9.38897 17.679C9.35797 17.661 9.32597 17.645 9.29497 17.627C9.17297 17.555 9.05197 17.481 8.93197 17.404C8.89897 17.383 8.86697 17.361 8.83397 17.339C8.74697 17.283 8.66097 17.226 8.57497 17.167C8.54697 17.148 8.51997 17.127 8.49197 17.108C8.40997 17.05 8.32797 16.992 8.24797 16.932C8.21097 16.905 8.17597 16.878 8.13997 16.85C8.06597 16.793 7.99297 16.736 7.91997 16.677C7.88697 16.651 7.85397 16.625 7.82097 16.598C7.72897 16.522 7.63697 16.446 7.54697 16.367C7.53797 16.359 7.52697 16.35 7.51697 16.342C7.41897 16.256 7.32297 16.168 7.22797 16.079C7.19997 16.053 7.17297 16.028 7.14697 16.001C7.07597 15.934 7.00697 15.867 6.93897 15.798C6.91197 15.771 6.88397 15.744 6.85797 15.717C6.77197 15.629 6.68697 15.539 6.60397 15.448C6.59997 15.444 6.59597 15.44 6.59197 15.436C6.50397 15.34 6.41797 15.241 6.33397 15.143C6.31097 15.115 6.28897 15.089 6.26697 15.062C6.20397 14.987 6.14197 14.91 6.08097 14.833C6.05897 14.805 6.03597 14.777 6.01297 14.749C5.93997 14.654 5.86797 14.56 5.79797 14.463C3.86397 11.825 3.16997 8.186 4.71497 5.198" fill="#0B0F19"/>
<path d="M8.79401 4.80897C7.52401 6.63597 7.59401 9.08197 8.58401 11.014C8.75001 11.338 8.93701 11.653 9.14501 11.952C9.33601 12.225 9.54601 12.549 9.79901 12.768C9.89101 12.869 9.98601 12.967 10.083 13.063C10.108 13.088 10.133 13.112 10.159 13.137C10.253 13.229 10.349 13.319 10.45 13.408C10.453 13.411 10.457 13.415 10.461 13.418C10.463 13.419 10.464 13.419 10.464 13.42C10.575 13.517 10.688 13.61 10.804 13.701C10.83 13.721 10.855 13.741 10.882 13.761C10.998 13.85 11.116 13.938 11.237 14.021C11.24 14.024 11.243 14.026 11.248 14.029C11.301 14.066 11.356 14.101 11.409 14.136C11.435 14.153 11.46 14.171 11.487 14.187C11.574 14.243 11.661 14.297 11.75 14.349C11.763 14.356 11.775 14.363 11.788 14.371C11.864 14.415 11.943 14.458 12.021 14.501C12.047 14.516 12.076 14.53 12.103 14.544C12.158 14.572 12.211 14.601 12.266 14.627C12.275 14.631 12.283 14.635 12.29 14.639C12.402 14.694 12.516 14.747 12.631 14.798C12.656 14.809 12.68 14.818 12.705 14.829C12.798 14.868 12.891 14.906 12.986 14.942C13.024 14.957 13.066 14.972 13.103 14.986C13.189 15.018 13.274 15.046 13.359 15.075C13.399 15.087 13.437 15.1 13.476 15.112C13.597 15.15 13.719 15.197 13.846 15.219C20.402 16.305 21.914 11.258 21.914 11.258C20.55 13.222 17.908 14.16 15.089 13.428C14.964 13.395 14.841 13.36 14.718 13.321C14.679 13.309 14.644 13.298 14.605 13.285C14.519 13.257 14.433 13.227 14.346 13.196C14.306 13.182 14.269 13.167 14.228 13.153C14.136 13.117 14.04 13.079 13.951 13.04C13.924 13.03 13.899 13.02 13.875 13.008C13.76 12.958 13.646 12.905 13.531 12.849C13.474 12.821 13.418 12.791 13.361 12.762C13.329 12.745 13.295 12.728 13.262 12.711C13.189 12.671 13.116 12.63 13.044 12.588C13.026 12.578 13.01 12.569 12.993 12.558C12.903 12.507 12.816 12.453 12.729 12.398C12.703 12.381 12.676 12.362 12.649 12.345C12.592 12.308 12.535 12.27 12.481 12.232C12.36 12.149 12.242 12.062 12.127 11.973C12.099 11.952 12.072 11.931 12.047 11.91C10.813 10.936 9.83401 9.60397 9.36901 8.09497C8.88101 6.52897 8.98701 4.77197 9.83101 3.34497" fill="#0B0F19"/>
<path d="M13.379 3.221C12.63 4.323 12.556 5.69 13.075 6.907C13.623 8.199 14.746 9.211 16.056 9.692C16.109 9.712 16.163 9.73 16.218 9.748C16.242 9.756 16.266 9.764 16.29 9.771C16.367 9.795 16.442 9.824 16.523 9.838C20.143 10.537 21.124 7.981 21.385 7.604C20.525 8.843 19.079 9.14 17.307 8.709C17.166 8.675 17.012 8.625 16.877 8.577C16.704 8.514 16.533 8.445 16.368 8.365C16.053 8.214 15.754 8.03 15.473 7.82C13.888 6.616 12.9 4.319 13.937 2.448" fill="#0B0F19"/>
</svg>
