<svg width="24" height="24" viewBox="0 0 24 24" fill="none" xmlns="http://www.w3.org/2000/svg">
<path d="M15.539 14.059L13.665 15.934L11.888 17.711L11.541 18.061C10.515 19.085 9.068 19.434 7.756 19.109C7.511 20.177 6.553 20.976 5.408 20.976C4.079 20.976 3 19.899 3 18.567C3 17.429 3.792 16.475 4.852 16.225C4.518 14.906 4.865 13.447 5.899 12.414L6.034 12.279L7.811 14.057L7.673 14.192C7.096 14.777 7.096 15.711 7.673 16.284C8.25 16.87 9.19 16.87 9.763 16.284L10.112 15.935L11.887 14.157L13.764 12.278L15.539 14.059ZM16.232 19.047C14.866 19.47 13.318 19.138 12.236 18.059L12.101 17.92L13.874 16.143L14.009 16.282C14.587 16.858 15.523 16.858 16.099 16.282C16.673 15.708 16.676 14.774 16.097 14.196L15.747 13.847L13.974 12.07L12.097 10.192L13.874 8.416L15.749 10.295L17.523 12.072L17.872 12.421C18.895 13.441 19.256 14.879 18.93 16.187C20.101 16.353 21 17.354 21 18.57C21 19.908 19.921 20.977 18.594 20.977C17.435 20.977 16.455 20.155 16.242 19.053L16.232 19.047ZM8.231 10.085L10.112 8.206L11.889 6.429L12.236 6.083C13.304 5.014 14.829 4.677 16.185 5.081C16.344 3.91 17.352 3 18.569 3C19.898 3 20.977 4.078 20.977 5.407C20.977 6.63 20.065 7.639 18.884 7.797C19.274 9.146 18.936 10.658 17.872 11.722L17.735 11.861L15.958 10.084L16.097 9.946C16.673 9.368 16.673 8.434 16.097 7.859C15.522 7.284 14.589 7.283 14.011 7.861L13.664 8.207L11.887 9.983L10.008 11.859L8.231 10.085ZM6.241 12.069L5.895 11.722C4.822 10.65 4.489 9.116 4.896 7.757C3.825 7.511 3.022 6.555 3.022 5.407C3.022 4.079 4.103 3 5.43 3C6.627 3 7.62 3.875 7.808 5.019C9.106 4.715 10.528 5.068 11.542 6.08L11.68 6.22L9.902 7.996L9.765 7.86C9.188 7.286 8.253 7.286 7.677 7.86C7.098 8.446 7.099 9.379 7.673 9.952L8.022 10.302L9.799 12.079L11.678 13.958L9.903 15.735L8.02 13.856L6.242 12.079V12.069H6.241Z" fill="#0B0F19"/>
</svg>
