<svg width="24" height="24" viewBox="0 0 24 24" fill="none" xmlns="http://www.w3.org/2000/svg">
<path d="M20.3489 13.684H8.87395C8.87395 14.117 8.93695 14.509 9.06895 14.862C9.20995 15.211 9.39195 15.522 9.62595 15.795C9.85695 16.067 10.1309 16.299 10.4499 16.496C10.7589 16.692 11.0959 16.855 11.4549 16.98C11.8109 17.11 12.1839 17.206 12.5619 17.268C13.3829 17.398 14.2199 17.391 15.0389 17.247C15.4619 17.169 15.8709 17.064 16.2739 16.934C16.6779 16.801 17.0689 16.644 17.4599 16.464C17.8529 16.284 18.2499 16.088 18.6609 15.87V19.675C18.2019 19.898 17.754 20.087 17.304 20.248C16.856 20.406 16.4069 20.544 15.9499 20.653C15.4929 20.765 15.0299 20.849 14.5539 20.899C14.0679 20.953 13.5789 20.978 13.0899 20.978C12.4159 20.978 11.766 20.899 11.1399 20.746C10.5279 20.597 9.93595 20.372 9.37795 20.078C8.83195 19.789 8.32395 19.433 7.86795 19.016C6.94495 18.183 6.27195 17.109 5.92695 15.913C5.74595 15.277 5.65595 14.62 5.65995 13.96C5.65995 13.223 5.76095 12.521 5.96295 11.85C6.16795 11.176 6.45695 10.565 6.83895 10.004C7.22195 9.438 7.69095 8.933 8.22695 8.508C8.78795 8.065 9.40995 7.706 10.0739 7.442C9.69595 7.821 9.39995 8.273 9.20495 8.771C8.99995 9.263 8.86495 9.779 8.80395 10.309H15.1949C15.1949 9.663 15.1319 9.102 14.9989 8.62C14.8679 8.136 14.6569 7.735 14.3619 7.419C14.07 7.099 13.6939 6.856 13.2299 6.7C12.7679 6.54 12.209 6.459 11.5549 6.459C10.7839 6.459 10.0119 6.57 9.24095 6.803C8.46995 7.029 7.73595 7.351 7.04095 7.758C6.34595 8.17 5.70595 8.655 5.12195 9.21C4.53895 9.772 4.04795 10.375 3.64795 11.029C3.73195 10.287 3.89495 9.555 4.13295 8.849C4.36595 8.156 4.67395 7.51 5.04495 6.911C5.41295 6.324 5.85095 5.784 6.34795 5.302C6.84395 4.819 7.39395 4.404 8.00295 4.067C8.61095 3.731 9.25595 3.459 9.95795 3.275C10.6899 3.107 11.4389 3.022 12.1909 3.021C12.6509 3.021 13.1079 3.062 13.5659 3.145C14.0229 3.229 14.4689 3.341 14.9049 3.487C15.7689 3.784 16.5399 4.2 17.2199 4.726C17.8829 5.242 18.4609 5.861 18.9309 6.559C19.3939 7.251 19.7439 8.018 19.9859 8.851C20.2279 9.684 20.3509 10.552 20.3509 11.453V13.683H20.3489V13.684Z" fill="#0B0F19"/>
</svg>
