<svg width="24" height="24" viewBox="0 0 24 24" fill="none" xmlns="http://www.w3.org/2000/svg">
<path d="M20.205 16.392C17.736 19.681 12.464 18.571 9.083 18.73C9.083 18.73 8.484 18.764 7.882 18.863C7.882 18.863 8.11 18.766 8.401 18.665C10.775 17.844 11.897 17.679 13.34 16.938C16.05 15.55 18.748 12.525 19.297 9.38301C18.265 12.405 15.127 15.006 12.27 16.062C10.315 16.784 6.778 17.486 6.777 17.486C6.779 17.488 6.636 17.412 6.634 17.41C4.229 16.24 4.159 11.03 8.528 9.35101C10.444 8.61501 12.275 9.01901 14.346 8.52601C16.554 8.00101 19.112 6.34601 20.151 4.18201C21.316 7.64001 22.716 13.048 20.205 16.392ZM20.247 3.11201C19.954 3.81001 19.595 4.43901 19.182 5.00201C17.363 3.13501 14.823 1.97101 12.015 1.97101C6.492 1.97101 2 6.46301 2 11.985C2 14.88 3.235 17.49 5.205 19.319L5.425 19.513C5.059 19.215 5.002 18.677 5.299 18.31C5.598 17.943 6.136 17.887 6.502 18.184C6.869 18.482 6.926 19.021 6.628 19.388C6.332 19.755 5.793 19.811 5.426 19.514L5.575 19.646C7.317 21.114 9.563 22 12.015 22C17.293 22 21.628 17.892 21.999 12.708C22.273 10.169 21.523 6.94501 20.247 3.11201Z" fill="#0B0F19"/>
</svg>
