<svg width="24" height="24" viewBox="0 0 24 24" fill="none" xmlns="http://www.w3.org/2000/svg">
<path d="M10.7422 2.04006C9.3379 2.22266 7.6826 2.84768 6.4609 3.66608C5.4511 4.33018 4.0644 5.68658 4.1523 5.91708C4.3447 6.41808 7.4326 11.5753 7.4814 11.4786C7.5195 11.4122 7.5771 11.2003 7.6054 10.9884C7.8554 9.60358 9.0302 8.28528 10.5019 7.73638C11.0703 7.51468 11.1845 7.51467 15.997 7.46687L20.914 7.41897L20.5195 6.77347C19.1338 4.51277 16.997 2.95417 14.3222 2.26077C13.5908 2.06837 11.5127 1.94336 10.7422 2.04006Z" fill="#0B0F19"/>
<path d="M3.19919 7.21682C2.74709 8.01562 2.21679 9.63182 2.09279 10.5752C1.50489 14.8477 3.66119 18.9756 7.47169 20.8897C8.36619 21.3418 9.64549 21.7754 10.2041 21.8233L10.5596 21.8516L12.2344 19.0137C13.1485 17.4551 13.8887 16.1651 13.8701 16.1465C13.8506 16.127 13.6387 16.1846 13.3887 16.2715C11.8203 16.8008 10.002 16.3574 8.81839 15.1553C8.39549 14.7315 7.81739 13.7979 5.97949 10.6133C4.70899 8.40923 3.64159 6.60062 3.60249 6.60062C3.57419 6.60062 3.39059 6.87992 3.19919 7.21682Z" fill="#0B0F19"/>
<path d="M15.1494 8.8037C16.3721 10.0459 16.8047 11.8066 16.2656 13.3945C16.1797 13.6543 15.0537 15.665 13.7646 17.8789C12.4746 20.082 11.416 21.9102 11.416 21.9385C11.416 22.0537 12.7441 21.9961 13.5908 21.8516C17.9111 21.1114 21.164 17.8496 21.8564 13.5762C22.1162 12.0176 22.0205 10.6514 21.5488 9.0733L21.2988 8.2364H17.9404H14.5918L15.1494 8.8037Z" fill="#0B0F19"/>
<path d="M10.6084 8.5635C9.59768 8.9873 8.90528 9.6992 8.52928 10.709C8.35638 11.1621 8.32718 11.4219 8.35638 12.1328C8.38568 12.8838 8.42378 13.0957 8.70308 13.6445C9.06928 14.3945 9.66498 14.9726 10.4541 15.3466C10.916 15.5683 11.1084 15.5976 11.9932 15.5976C12.8887 15.5976 13.0713 15.5683 13.5528 15.3378C14.2647 15.0107 15.0147 14.2597 15.3428 13.5478C15.5733 13.0664 15.6016 12.8837 15.6016 11.9892C15.6016 11.1035 15.5733 10.9111 15.3516 10.4492C14.9766 9.66109 14.3995 9.06351 13.6485 8.69821C13.0811 8.41891 12.9073 8.3808 12.0899 8.3515C11.3008 8.3321 11.0996 8.3614 10.6084 8.5635Z" fill="#0B0F19"/>
</svg>
