<svg width="24" height="24" viewBox="0 0 24 24" fill="none" xmlns="http://www.w3.org/2000/svg">
<path d="M21.142 10.843C21.142 10.203 21.24 9.82501 21.24 9.13601C21.24 8.06901 20.847 7.72501 19.977 7.72501H19.336V8.48001H19.532C19.976 8.48001 20.074 8.62701 20.074 9.16901C20.074 9.67801 20.025 10.187 20.025 10.777C20.025 11.532 20.271 11.827 20.764 11.942V11.991C20.271 12.107 20.025 12.402 20.025 13.157C20.025 13.748 20.074 14.224 20.074 14.765C20.074 15.323 19.96 15.47 19.532 15.47V15.487H19.336V16.275H19.977C20.847 16.275 21.24 15.931 21.24 14.864C21.24 14.158 21.142 13.797 21.142 13.157C21.142 12.812 21.355 12.451 21.996 12.418V11.565C21.354 11.549 21.142 11.188 21.142 10.843ZM17.843 11.844C17.35 11.648 16.891 11.532 16.891 11.204C16.891 10.958 17.088 10.809 17.449 10.809C17.81 10.809 18.138 10.957 18.499 11.22L19.156 10.35C18.747 10.037 18.188 9.70901 17.432 9.70901C16.317 9.70901 15.561 10.35 15.561 11.253C15.561 12.057 16.267 12.467 16.859 12.696C17.367 12.892 17.86 13.057 17.86 13.385C17.86 13.631 17.663 13.795 17.219 13.795C16.809 13.795 16.398 13.631 15.956 13.286L15.299 14.238C15.791 14.648 16.546 14.927 17.17 14.927C18.483 14.927 19.189 14.238 19.189 13.335C19.188 12.435 18.482 12.058 17.843 11.844ZM6.633 13.698C6.519 13.698 6.371 13.6 6.371 13.288V8.51301V7.79001V7.72501H4.039C3.153 7.72501 2.76 8.06901 2.76 9.13601C2.76 9.84201 2.859 10.237 2.859 10.843C2.859 11.188 2.646 11.549 2.005 11.582V12.435C2.646 12.452 2.859 12.813 2.859 13.158C2.859 13.764 2.76 14.126 2.76 14.832C2.76 15.899 3.154 16.243 4.024 16.243H4.664V15.488H4.467C4.056 15.488 3.925 15.324 3.925 14.782C3.925 14.241 3.974 13.781 3.974 13.175C3.974 12.419 3.729 12.125 3.236 12.01V11.959C3.729 11.845 3.974 11.55 3.974 10.794C3.974 10.204 3.925 9.72801 3.925 9.18701C3.925 8.64501 4.039 8.49801 4.467 8.49801H4.909C4.909 9.56401 4.909 13.209 4.909 13.209C4.909 14.21 5.254 14.866 6.255 14.866C6.56801 14.866 6.814 14.816 6.994 14.751L6.829 13.685C6.731 13.698 6.683 13.698 6.633 13.698ZM13.871 11.844C13.362 11.648 12.902 11.532 12.902 11.204C12.902 10.958 13.099 10.809 13.46 10.809C13.821 10.809 14.149 10.957 14.511 11.22L15.167 10.35C14.757 10.037 14.199 9.70901 13.444 9.70901C12.328 9.70901 11.572 10.35 11.572 11.253C11.572 12.057 12.279 12.467 12.869 12.696C13.379 12.892 13.871 13.057 13.871 13.385C13.871 13.631 13.674 13.795 13.23 13.795C12.82 13.795 12.41 13.631 11.966 13.286L11.326 14.238C11.818 14.648 12.573 14.927 13.197 14.927C14.51 14.927 15.216 14.238 15.216 13.335C15.217 12.435 14.511 12.058 13.871 11.844ZM9.02901 9.69401C7.83101 9.69401 6.682 10.695 6.715 12.271C6.715 13.895 7.781 14.847 9.19401 14.847C9.78501 14.847 10.441 14.633 10.95 14.289L10.458 13.419C10.098 13.632 9.75201 13.731 9.392 13.731C8.735 13.731 8.22701 13.419 8.09501 12.665H11.066C11.083 12.55 11.115 12.32 11.115 12.058C11.131 10.728 10.408 9.69401 9.02901 9.69401ZM8.094 11.762C8.193 11.107 8.586 10.793 9.045 10.793C9.637 10.793 9.866 11.204 9.866 11.762H8.094Z" fill="#0B0F19"/>
</svg>
