<svg width="24" height="24" viewBox="0 0 24 24" fill="none" xmlns="http://www.w3.org/2000/svg">
<path d="M20.66 6.98C19.766 5.447 18.553 4.233 17.019 3.34C15.486 2.447 13.813 2 12 2C10.187 2 8.514 2.447 6.98 3.34C5.447 4.233 4.233 5.447 3.34 6.98C2.447 8.513 2 10.187 2 12C2 13.813 2.446 15.487 3.34 17.02C4.234 18.554 5.447 19.767 6.981 20.66C8.514 21.553 10.187 22 12 22C13.813 22 15.486 21.553 17.02 20.66C18.553 19.767 19.767 18.554 20.661 17.02C21.554 15.487 22 13.813 22 12C22 10.187 21.554 8.513 20.66 6.98ZM12 3.66C14 3.66 15.772 4.3 17.32 5.579C16.4 6.753 15.034 7.719 13.22 8.479C12.218 6.666 11.132 5.152 9.959 3.939C10.641 3.753 11.319 3.66 12 3.66ZM5.51 6.8C6.264 5.853 7.166 5.114 8.221 4.58C9.433 5.781 10.546 7.28 11.561 9.08C9.561 9.68 7.447 9.98 5.22 9.98C4.647 9.98 4.214 9.967 3.92 9.94C4.227 8.793 4.757 7.747 5.51 6.8ZM3.66 12C3.66 11.946 3.663 11.88 3.67 11.8C3.677 11.72 3.68 11.654 3.68 11.6C3.934 11.614 4.321 11.62 4.841 11.62C7.507 11.62 9.987 11.253 12.28 10.52C12.467 10.893 12.661 11.313 12.86 11.78C11.54 12.073 10.186 12.786 8.799 13.92C7.412 15.054 6.4 16.247 5.76 17.5C4.36 15.913 3.66 14.08 3.66 12ZM12 20.34C10.106 20.34 8.406 19.753 6.899 18.581C7.5 17.394 8.423 16.259 9.67 15.18C10.916 14.1 12.153 13.427 13.38 13.16C14.152 15.293 14.673 17.499 14.94 19.78C13.966 20.153 12.986 20.34 12 20.34ZM19.08 16.38C18.414 17.446 17.554 18.32 16.5 19.001C16.26 16.921 15.8 14.894 15.121 12.92C16.053 12.854 16.886 12.82 17.621 12.82C18.42 12.82 19.307 12.854 20.28 12.92C20.146 14.16 19.746 15.313 19.08 16.38ZM17.84 11.38C16.68 11.38 15.607 11.427 14.62 11.52C14.366 10.867 14.14 10.327 13.94 9.9C16.006 8.994 17.472 7.894 18.339 6.6C19.539 8.014 20.193 9.627 20.299 11.44C19.487 11.4 18.667 11.38 17.84 11.38Z" fill="#0B0F19"/>
</svg>
