<svg width="24" height="24" viewBox="0 0 24 24" fill="none" xmlns="http://www.w3.org/2000/svg">
<path d="M20 3H4C3.447 3 3 3.448 3 4V20C3 20.552 3.447 21 4 21H20C20.553 21 21 20.552 21 20V4C21 3.448 20.553 3 20 3ZM17.954 7.265L16.988 8.19C16.905 8.253 16.864 8.357 16.882 8.461V15.262C16.864 15.365 16.905 15.47 16.988 15.533L17.93 16.459V16.663H13.189V16.459L14.166 15.511C14.263 15.415 14.263 15.386 14.263 15.24V9.742L11.547 16.638H11.179L8.018 9.742V14.364C7.993 14.558 8.057 14.754 8.194 14.895L9.465 16.436V16.639H5.861V16.436L7.132 14.895C7.268 14.754 7.328 14.557 7.296 14.364V9.02C7.311 8.872 7.255 8.725 7.144 8.625L6.014 7.265V7.062H9.52L12.23 13.005L14.612 7.062H17.955V7.265H17.954Z" fill="#0B0F19"/>
</svg>
