<svg width="24" height="24" viewBox="0 0 24 24" fill="none" xmlns="http://www.w3.org/2000/svg">
<path d="M12.642 8.08401C12.278 8.27301 11.852 8.50401 11.4 8.50401C10.948 8.50401 10.59 8.29501 10.334 8.09101C10.204 7.99001 10.1 7.88901 10.021 7.81501C9.884 7.70701 9.901 7.55601 9.957 7.56101C10.051 7.57301 10.065 7.69701 10.125 7.75201C10.205 7.82701 10.305 7.92401 10.427 8.02101C10.67 8.21301 10.994 8.40101 11.4 8.40101C11.806 8.40101 12.278 8.16301 12.567 8.00101C12.73 7.90901 12.938 7.74501 13.108 7.62001C13.238 7.52501 13.233 7.41001 13.34 7.42201C13.447 7.43501 13.368 7.54901 13.218 7.68001C13.067 7.81101 12.832 7.98501 12.642 8.08401Z" fill="#0B0F19"/>
<path d="M19.649 17.77C19.507 17.61 19.44 17.314 19.368 16.999C19.296 16.684 19.215 16.345 18.957 16.125C18.956 16.125 18.955 16.124 18.955 16.124C18.903 16.079 18.851 16.041 18.798 16.01C18.745 15.978 18.692 15.953 18.638 15.932C18.997 14.867 18.857 13.806 18.493 12.848C18.049 11.671 17.271 10.646 16.678 9.94501C16.014 9.10701 15.365 8.31201 15.377 7.13701C15.398 5.34401 15.574 2.01901 12.419 2.01501C12.291 2.01501 12.157 2.02001 12.018 2.03201C8.492 2.31501 9.428 6.04002 9.375 7.28701C9.311 8.19902 9.126 8.91801 8.498 9.81001C7.762 10.686 6.724 12.105 6.232 13.581C6 14.278 5.89 14.988 5.991 15.661C5.96 15.689 5.93 15.719 5.9 15.75C5.684 15.981 5.524 16.261 5.345 16.449C5.179 16.616 4.942 16.678 4.681 16.772C4.42 16.866 4.134 17.003 3.96 17.337C3.96 17.337 3.96 17.338 3.959 17.339C3.877 17.491 3.851 17.656 3.851 17.823C3.851 17.977 3.874 18.134 3.897 18.284C3.945 18.597 3.994 18.893 3.929 19.094C3.723 19.658 3.697 20.048 3.842 20.331C3.988 20.615 4.286 20.74 4.625 20.81C5.301 20.951 6.217 20.916 6.939 21.299L7.001 21.182L6.94 21.3C7.713 21.704 8.497 21.847 9.122 21.705C9.576 21.601 9.943 21.331 10.133 20.916C10.622 20.914 11.158 20.707 12.018 20.66C12.601 20.613 13.33 20.867 14.167 20.82C14.189 20.911 14.221 20.999 14.265 21.082C14.265 21.082 14.265 21.083 14.266 21.084C14.59 21.733 15.194 22.03 15.837 21.98C16.48 21.93 17.166 21.55 17.72 20.891L17.618 20.806L17.72 20.89C18.247 20.25 19.123 19.985 19.704 19.635C19.994 19.46 20.229 19.24 20.248 18.922C20.266 18.604 20.079 18.247 19.649 17.77ZM11.859 6.06201C11.856 5.82801 11.895 5.62701 11.985 5.42301C12.075 5.21901 12.186 5.07201 12.343 4.95301C12.5 4.83401 12.655 4.77901 12.837 4.77701H12.846C13.025 4.77701 13.178 4.83001 13.335 4.94401C13.494 5.06001 13.609 5.20501 13.701 5.40701C13.792 5.60401 13.836 5.79701 13.841 6.02601C13.841 6.03201 13.841 6.03701 13.842 6.04301C13.844 6.27801 13.804 6.47801 13.715 6.68201C13.664 6.79801 13.606 6.89601 13.535 6.98101C13.512 6.97001 13.486 6.95901 13.461 6.94801C13.372 6.91001 13.294 6.87901 13.224 6.85201C13.154 6.82501 13.1 6.80801 13.043 6.78801C13.084 6.73901 13.165 6.68001 13.194 6.60701C13.24 6.49701 13.262 6.38801 13.266 6.26001C13.266 6.25501 13.268 6.25001 13.268 6.24401C13.271 6.12001 13.254 6.01501 13.218 5.90701C13.18 5.79401 13.132 5.71201 13.063 5.64401C12.994 5.57601 12.924 5.54501 12.84 5.54301C12.836 5.54301 12.833 5.54301 12.829 5.54301C12.75 5.54301 12.683 5.57001 12.612 5.62901C12.538 5.69101 12.483 5.77001 12.438 5.87901C12.392 5.98901 12.37 6.09801 12.366 6.22701C12.365 6.23201 12.365 6.23701 12.365 6.24201C12.363 6.31301 12.368 6.37901 12.379 6.44201C12.219 6.36201 12.014 6.30401 11.872 6.27101C11.864 6.20901 11.859 6.14601 11.858 6.08101V6.06201H11.859ZM9.715 6.11401C9.703 5.91201 9.724 5.73801 9.779 5.55801C9.834 5.37801 9.909 5.24701 10.017 5.14001C10.125 5.03301 10.234 4.97901 10.366 4.97201C10.376 4.97201 10.386 4.97201 10.396 4.97201C10.514 4.97201 10.621 5.01201 10.731 5.09901C10.85 5.19401 10.94 5.31601 11.015 5.48801C11.091 5.65901 11.131 5.83101 11.142 6.03301V6.03501C11.148 6.12001 11.147 6.20001 11.14 6.27801C11.117 6.28401 11.094 6.29201 11.072 6.29901C10.944 6.34301 10.842 6.39201 10.744 6.45701C10.754 6.38901 10.755 6.32001 10.747 6.24301C10.747 6.23901 10.747 6.23501 10.747 6.23101C10.736 6.12901 10.715 6.04301 10.679 5.95701C10.641 5.86701 10.598 5.80301 10.541 5.75401C10.489 5.71001 10.441 5.68901 10.388 5.69001C10.382 5.69001 10.377 5.69001 10.371 5.69101C10.31 5.69601 10.261 5.72501 10.214 5.78301C10.167 5.84001 10.136 5.91101 10.113 6.00601C10.091 6.10001 10.085 6.19301 10.094 6.29901C10.094 6.30301 10.095 6.30601 10.095 6.31101C10.105 6.41401 10.126 6.50001 10.162 6.58601C10.2 6.67501 10.244 6.73901 10.301 6.78801C10.31 6.79601 10.32 6.80401 10.328 6.81001C10.269 6.85501 10.23 6.88801 10.182 6.92301C10.152 6.94501 10.115 6.97201 10.072 7.00401C9.979 6.91702 9.906 6.80701 9.843 6.66201C9.767 6.49002 9.727 6.31801 9.715 6.11601V6.11401ZM9.87 7.34201C10.057 7.20201 10.185 7.10802 10.272 7.04401C10.358 6.98101 10.393 6.95801 10.42 6.93201H10.421C10.561 6.80001 10.783 6.55801 11.12 6.44201C11.235 6.40201 11.365 6.37701 11.51 6.37601C11.785 6.37501 12.118 6.46501 12.52 6.72401C12.767 6.88401 12.959 6.89801 13.402 7.08701H13.403C13.616 7.17401 13.741 7.28901 13.802 7.40801C13.863 7.52801 13.865 7.65801 13.814 7.79501C13.711 8.06801 13.385 8.35701 12.927 8.50001H12.926C12.702 8.57201 12.508 8.73301 12.279 8.86401C12.05 8.99501 11.79 9.10101 11.437 9.08101C11.287 9.07201 11.166 9.04201 11.063 8.99801C10.96 8.95401 10.875 8.89501 10.793 8.83101C10.632 8.70001 10.49 8.53601 10.283 8.41501H10.282H10.281C9.948 8.22501 9.766 8.00701 9.708 7.81701C9.651 7.62801 9.705 7.46601 9.87 7.34201ZM10.001 20.36V20.361C9.954 20.984 9.603 21.322 9.063 21.446C8.524 21.569 7.793 21.446 7.064 21.065H7.063C6.255 20.638 5.295 20.68 4.679 20.551C4.371 20.487 4.17 20.39 4.077 20.21C3.985 20.03 3.983 19.716 4.179 19.182L4.18 19.18L4.181 19.178C4.278 18.879 4.206 18.552 4.16 18.244C4.113 17.937 4.09 17.658 4.194 17.463L4.195 17.461C4.33 17.202 4.527 17.109 4.771 17.022C5.016 16.934 5.305 16.865 5.535 16.636L5.536 16.635L5.537 16.634C5.749 16.411 5.908 16.131 6.094 15.932C6.251 15.765 6.408 15.653 6.645 15.652C6.648 15.652 6.651 15.652 6.654 15.652C6.695 15.652 6.739 15.655 6.786 15.663C7.1 15.71 7.374 15.931 7.639 16.288L8.401 17.677H8.402C8.604 18.1 9.033 18.567 9.396 19.042C9.758 19.517 10.04 19.994 10.003 20.359L10.001 20.36ZM9.938 19.35C9.838 19.192 9.723 19.036 9.605 18.881C9.53 18.782 9.453 18.684 9.376 18.588C9.527 18.588 9.656 18.564 9.76 18.516C9.89 18.457 9.981 18.363 10.026 18.242C10.116 18 10.026 17.659 9.738 17.269C9.448 16.879 8.96 16.439 8.244 16C7.717 15.672 7.423 15.271 7.285 14.835C7.147 14.399 7.166 13.928 7.272 13.462C7.476 12.568 8.001 11.7 8.335 11.154C8.425 11.088 8.367 11.277 7.996 11.965C7.664 12.594 7.043 14.046 7.893 15.179C7.915 14.372 8.108 13.55 8.431 12.781C8.903 11.714 9.887 9.86201 9.965 8.38601C10.006 8.41501 10.145 8.50901 10.206 8.54401C10.388 8.65001 10.522 8.80601 10.698 8.94701C10.875 9.08901 11.094 9.21101 11.427 9.23001C11.458 9.23201 11.49 9.23301 11.52 9.23301C11.863 9.23301 12.13 9.12101 12.353 8.99401C12.595 8.85601 12.789 8.70201 12.971 8.64301H12.972C13.359 8.52101 13.666 8.30801 13.841 8.05801C14.143 9.24401 14.842 10.955 15.291 11.791C15.53 12.234 16.006 13.176 16.211 14.311C16.341 14.307 16.484 14.326 16.638 14.365C17.175 12.972 16.183 11.473 15.729 11.055C15.545 10.877 15.537 10.797 15.627 10.801C16.119 11.237 16.766 12.112 17.001 13.101C17.108 13.552 17.131 14.026 17.017 14.494C17.073 14.517 17.13 14.542 17.188 14.57C18.05 14.99 18.369 15.355 18.215 15.853C18.165 15.851 18.115 15.852 18.067 15.853C18.063 15.853 18.058 15.853 18.053 15.853C18.178 15.458 17.902 15.166 17.164 14.833C16.4 14.497 15.791 14.53 15.688 15.212C15.681 15.248 15.675 15.284 15.671 15.321C15.614 15.341 15.557 15.366 15.499 15.397C15.141 15.594 14.944 15.95 14.835 16.387C14.727 16.824 14.695 17.351 14.665 17.945C14.646 18.243 14.524 18.647 14.399 19.074C13.15 19.971 11.413 20.357 9.938 19.35ZM19.566 19.407C19.042 19.724 18.11 20 17.516 20.72C16.999 21.335 16.37 21.672 15.816 21.716C15.261 21.76 14.783 21.53 14.501 20.964V20.963L14.5 20.96C14.325 20.627 14.398 20.102 14.545 19.548C14.692 18.994 14.904 18.425 14.933 17.963V17.962C14.963 17.37 14.996 16.852 15.096 16.453C15.196 16.054 15.352 15.784 15.629 15.632C15.643 15.625 15.655 15.618 15.668 15.612C15.699 16.125 15.953 16.648 16.402 16.761C16.893 16.89 17.601 16.469 17.9 16.125C17.96 16.123 18.018 16.119 18.075 16.118C18.337 16.112 18.556 16.127 18.782 16.323V16.324H18.783C18.956 16.47 19.038 16.747 19.109 17.057C19.18 17.367 19.237 17.704 19.451 17.945H19.452C19.862 18.401 19.994 18.709 19.983 18.905C19.972 19.103 19.83 19.249 19.566 19.407Z" fill="#0B0F19"/>
<path d="M11.738 6.762C11.753 6.81 11.831 6.802 11.876 6.825C11.916 6.845 11.947 6.89 11.992 6.891C12.034 6.892 12.099 6.876 12.105 6.834C12.113 6.778 12.032 6.743 11.979 6.723C11.912 6.697 11.826 6.684 11.763 6.719C11.749 6.727 11.733 6.746 11.738 6.762ZM11.278 6.762C11.262 6.81 11.184 6.802 11.139 6.825C11.1 6.845 11.068 6.89 11.024 6.891C10.982 6.892 10.916 6.876 10.91 6.834C10.903 6.778 10.984 6.743 11.036 6.723C11.103 6.697 11.189 6.684 11.253 6.719C11.268 6.727 11.283 6.746 11.278 6.762Z" fill="#0B0F19"/>
</svg>
