<svg width="24" height="24" viewBox="0 0 24 24" fill="none" xmlns="http://www.w3.org/2000/svg">
<path d="M12.427 13.011C12.464 12.344 12.79 11.757 13.283 11.34C13.766 10.93 14.417 10.681 15.127 10.68C15.837 10.68 16.487 10.93 16.972 11.34C17.464 11.757 17.791 12.345 17.828 13.011C17.866 13.697 17.591 14.334 17.107 14.806C16.614 15.286 15.912 15.588 15.128 15.588C14.342 15.588 13.64 15.286 13.147 14.806C12.664 14.334 12.388 13.697 12.427 13.011Z" fill="#0B0F19"/>
<path d="M8.12402 14.361C8.12902 14.621 8.21302 15.128 8.33702 15.525C8.60002 16.363 9.04502 17.14 9.66502 17.824C10.301 18.527 11.084 19.092 11.988 19.491C12.939 19.912 13.969 20.128 15.038 20.126C16.107 20.124 17.138 19.905 18.089 19.481C18.992 19.076 19.775 18.51 20.41 17.806C21.029 17.119 21.473 16.342 21.736 15.503C21.87 15.079 21.952 14.649 21.986 14.218C22.019 13.793 22.005 13.366 21.945 12.941C21.827 12.112 21.54 11.334 21.098 10.624C20.693 9.97301 20.173 9.40201 19.553 8.92101L19.554 8.92001L13.305 4.12101C13.3 4.11601 13.294 4.11201 13.289 4.10701C12.878 3.79301 12.188 3.79401 11.738 4.10901C11.281 4.42801 11.23 4.95501 11.634 5.28901L11.633 5.29001L14.239 7.41101L6.29602 7.42001C6.29202 7.42001 6.28802 7.42001 6.28402 7.42001C5.62802 7.42001 4.99702 7.85201 4.87202 8.39601C4.74402 8.95101 5.19002 9.41101 5.87302 9.41301L5.87202 9.41601L9.89902 9.40801L2.71102 14.924C2.70202 14.931 2.69202 14.938 2.68402 14.945C2.00702 15.464 1.78802 16.327 2.21402 16.874C2.64802 17.43 3.56802 17.43 4.25402 16.876L8.17602 13.667C8.17702 13.667 8.12002 14.1 8.12402 14.361ZM18.202 15.811C17.394 16.635 16.264 17.102 15.039 17.104C13.813 17.106 12.683 16.643 11.874 15.821C11.478 15.42 11.188 14.96 11.01 14.469C10.834 13.987 10.766 13.475 10.811 12.958C10.855 12.453 11.004 11.971 11.245 11.536C11.481 11.107 11.807 10.721 12.207 10.392C12.992 9.75201 13.992 9.40501 15.039 9.40401C16.086 9.40301 17.085 9.74701 17.871 10.384C18.27 10.71 18.596 11.095 18.832 11.523C19.072 11.959 19.222 12.439 19.266 12.944C19.311 13.461 19.243 13.972 19.068 14.455C18.887 14.948 18.597 15.409 18.202 15.811Z" fill="#0B0F19"/>
</svg>
