<svg width="24" height="24" viewBox="0 0 24 24" fill="none" xmlns="http://www.w3.org/2000/svg">
<path d="M16.803 8.80002V15.601H20.003V16.4H16.803V18.002H22.003V8.80002H16.803ZM10.803 8.80002V15.601H14.002V16.4H10.803V18.002H16.002V8.80002H10.803ZM5.2 5.99902V8.80002H2V15.601H7.201V5.99902H5.2ZM10.001 8.80002H8.001V15.601H10.001V8.80002ZM20.003 14H18.803V10.399H20.003V14ZM5.2 14H4V10.399H5.2V14ZM14.002 14H12.802V10.399H14.002V14ZM10.001 5.99902H8.001V7.99902H10.001V5.99902Z" fill="#0B0F19"/>
</svg>
