<svg width="24" height="24" viewBox="0 0 24 24" fill="none" xmlns="http://www.w3.org/2000/svg">
<path d="M2.971 12.188C2.93 12.188 2.893 12.226 2.888 12.27L2.694 14.067L2.888 15.823C2.893 15.872 2.93 15.905 2.971 15.905C3.012 15.905 3.046 15.872 3.055 15.823L3.266 14.067L3.041 12.27C3.041 12.224 3.004 12.188 2.967 12.188H2.971ZM2.217 12.879C2.166 12.879 2.141 12.909 2.129 12.958L1.991 14.067L2.129 15.159C2.129 15.205 2.166 15.237 2.204 15.237C2.243 15.237 2.277 15.199 2.291 15.15L2.467 14.05L2.291 12.938C2.291 12.887 2.254 12.862 2.216 12.862L2.217 12.879ZM3.742 11.837C3.69 11.837 3.642 11.876 3.642 11.924L3.466 14.063L3.654 16.114C3.654 16.163 3.691 16.214 3.753 16.214C3.805 16.214 3.842 16.163 3.855 16.114L4.066 14.05L3.855 11.924C3.842 11.875 3.803 11.824 3.753 11.824L3.742 11.837ZM4.543 11.749C4.48 11.749 4.429 11.8 4.417 11.862L4.256 14.063L4.433 16.186C4.445 16.249 4.494 16.3 4.555 16.3C4.619 16.3 4.668 16.249 4.68 16.176L4.881 14.063L4.68 11.876C4.68 11.813 4.631 11.764 4.569 11.764L4.543 11.749ZM5.505 12.05C5.502 11.974 5.443 11.925 5.372 11.925C5.298 11.925 5.242 11.976 5.235 12.05L5.053 14.076L5.222 16.214C5.222 16.29 5.283 16.345 5.354 16.345C5.416 16.345 5.477 16.29 5.477 16.213L5.666 14.074L5.477 12.038L5.505 12.05ZM6.179 10.624C6.097 10.624 6.031 10.699 6.031 10.774L5.855 14.074L6.011 16.213C6.011 16.29 6.077 16.35 6.161 16.35C6.239 16.35 6.306 16.276 6.311 16.2L6.485 14.063L6.312 10.75C6.305 10.662 6.238 10.598 6.162 10.598L6.179 10.624ZM6.962 9.83598C6.875 9.83598 6.799 9.91098 6.792 9.99898L6.642 14.062L6.78 16.187C6.78 16.287 6.855 16.361 6.943 16.361C7.029 16.361 7.104 16.287 7.117 16.187L7.279 14.062L7.118 10.01C7.105 9.90998 7.03 9.83498 6.943 9.83498L6.962 9.83598ZM7.769 9.46298C7.667 9.46298 7.593 9.53598 7.581 9.63598L7.442 14.036L7.581 16.138C7.593 16.238 7.667 16.326 7.769 16.326C7.868 16.326 7.956 16.238 7.956 16.138L8.119 14.036L7.955 9.63598C7.955 9.53598 7.868 9.44798 7.767 9.44798L7.769 9.46298ZM8.805 9.48598C8.805 9.37298 8.717 9.28698 8.606 9.28698C8.505 9.28698 8.405 9.37298 8.405 9.48598L8.28 14.024L8.404 16.113C8.419 16.224 8.505 16.312 8.618 16.312C8.731 16.312 8.819 16.224 8.819 16.113L8.955 14.024L8.819 9.47398L8.805 9.48598ZM9.43 9.37498C9.317 9.37498 9.217 9.47498 9.217 9.58598L9.092 14.025L9.217 16.088C9.217 16.213 9.317 16.301 9.43 16.301C9.544 16.301 9.644 16.202 9.644 16.077L9.769 14.013L9.629 9.58498C9.629 9.46298 9.529 9.35998 9.404 9.35998L9.43 9.37498ZM10.242 9.49898C10.105 9.49898 10.005 9.60998 10.005 9.73598L9.919 14.026L10.032 16.089C10.032 16.213 10.132 16.32 10.268 16.32C10.393 16.32 10.495 16.22 10.505 16.083L10.606 14.045L10.494 9.77998C10.484 9.64298 10.381 9.54198 10.257 9.54198L10.242 9.49898ZM11.245 8.75598C11.206 8.73198 11.156 8.71898 11.106 8.71898C11.056 8.71898 11.006 8.73198 10.969 8.75598C10.893 8.80098 10.844 8.88098 10.844 8.96998V9.01998L10.758 14.064L10.854 16.107V16.114C10.86 16.164 10.878 16.226 10.914 16.264C10.964 16.315 11.034 16.35 11.11 16.35C11.177 16.35 11.242 16.314 11.285 16.276C11.334 16.225 11.361 16.163 11.361 16.088L11.374 15.887L11.471 14.049L11.358 8.97398C11.358 8.88698 11.307 8.81298 11.247 8.77498L11.245 8.75598ZM12.082 8.29898C12.046 8.26098 12.009 8.24698 11.958 8.24698C11.895 8.24698 11.835 8.26098 11.784 8.29898C11.722 8.34898 11.684 8.42498 11.684 8.49998V8.52298L11.57 14.036L11.633 15.05L11.685 16.038C11.685 16.176 11.809 16.301 11.958 16.301C12.109 16.301 12.233 16.176 12.233 16.026L12.358 14.013L12.233 8.47698C12.233 8.37498 12.171 8.29098 12.095 8.24598L12.082 8.29898ZM19.547 11.396C19.211 11.396 18.884 11.468 18.598 11.589C18.397 9.37498 16.547 7.63898 14.271 7.63898C13.721 7.63898 13.181 7.75098 12.696 7.93798C12.508 8.01298 12.469 8.08898 12.458 8.23898V16.051C12.472 16.203 12.582 16.327 12.733 16.341H19.56C20.91 16.353 22.01 15.266 22.01 13.903C22.01 12.54 20.909 11.44 19.56 11.44" fill="#0B0F19"/>
</svg>
