<svg width="24" height="24" viewBox="0 0 24 24" fill="none" xmlns="http://www.w3.org/2000/svg">
<path d="M11.454 17.021C11.502 17.062 11.554 17.103 11.605 17.143C10.624 17.793 9.44799 18.173 8.18499 18.173C4.77399 18.175 2.00999 15.412 2.00999 12C2.00999 8.59099 4.77499 5.82599 8.18399 5.82599C9.44799 5.82599 10.624 6.20499 11.602 6.85599C11.552 6.89899 11.502 6.93799 11.464 6.98199C10.003 8.24499 9.16599 10.076 9.16599 12C9.16599 13.925 9.99899 15.755 11.454 17.021ZM15.815 5.82599C14.551 5.82599 13.376 6.20499 12.399 6.85599C12.448 6.89899 12.498 6.93799 12.536 6.98199C13.998 8.24499 14.835 10.076 14.835 12C14.835 13.924 14 15.753 12.547 17.021C12.498 17.062 12.446 17.103 12.396 17.143C13.375 17.793 14.551 18.173 15.814 18.173C19.227 18.174 21.99 15.411 21.99 11.999C21.99 8.59299 19.228 5.82599 15.815 5.82599ZM12 7.14999C11.921 7.21299 11.843 7.27599 11.767 7.34199C10.465 8.47399 9.64399 10.14 9.64399 12C9.64399 13.862 10.465 15.528 11.767 16.659C11.843 16.725 11.921 16.79 12 16.853C12.08 16.79 12.157 16.725 12.233 16.659C13.533 15.528 14.357 13.862 14.357 12C14.357 10.14 13.535 8.47399 12.233 7.34299C12.158 7.27599 12.08 7.21299 12 7.14999Z" fill="#0B0F19"/>
</svg>
