<svg width="24" height="24" viewBox="0 0 24 24" fill="none" xmlns="http://www.w3.org/2000/svg">
<path d="M11.953 8.81897L11.406 11.009C12.025 11.163 13.935 11.793 14.244 10.553C14.566 9.26197 12.571 8.97397 11.953 8.81897ZM11.131 12.115L10.528 14.53C11.271 14.715 13.565 15.451 13.904 14.089C14.259 12.667 11.875 12.3 11.131 12.115Z" fill="#0B0F19"/>
<path d="M14.421 2.29899C9.06404 0.963986 3.64104 4.22399 2.30604 9.58099C0.970042 14.936 4.23004 20.361 9.58304 21.697C14.94 23.032 20.366 19.773 21.7 14.416C23.036 9.05999 19.776 3.63499 14.421 2.29899ZM16.412 10.574C16.267 11.548 15.726 12.019 15.01 12.185C15.995 12.697 16.495 13.483 16.019 14.846C15.427 16.537 14.021 16.68 12.149 16.326L11.695 18.146L10.599 17.873L11.046 16.079C10.763 16.008 10.472 15.933 10.171 15.851L9.72204 17.655L8.62704 17.38L9.08104 15.557C8.82404 15.491 8.56404 15.421 8.29904 15.355L6.87004 15L7.41604 13.744C7.41604 13.744 8.22404 13.959 8.21304 13.943C8.52404 14.02 8.66104 13.818 8.71504 13.682L9.43404 10.807C9.47404 10.817 9.51304 10.827 9.54904 10.836C9.50504 10.818 9.46604 10.807 9.43504 10.799L9.94704 8.74599C9.96004 8.51199 9.88104 8.21799 9.43604 8.10699C9.45404 8.09599 8.63904 7.90899 8.63904 7.90899L8.93004 6.73699L10.444 7.11499L10.443 7.11999C10.67 7.17699 10.904 7.23099 11.143 7.28499L11.592 5.48299L12.689 5.75599L12.249 7.52199C12.543 7.58899 12.84 7.65699 13.128 7.72899L13.566 5.97399L14.663 6.24699L14.214 8.04899C15.598 8.52799 16.61 9.24399 16.412 10.574Z" fill="#0B0F19"/>
</svg>
