<svg width="24" height="24" viewBox="0 0 24 24" fill="none" xmlns="http://www.w3.org/2000/svg">
<path d="M20.154 8.51401C21.004 6.47501 21.06 4.77601 20.041 3.75701C18.908 2.62501 16.189 2.96501 13.304 4.32201H12.963C10.926 4.32201 8.94301 5.06001 7.47101 6.36101C6.22701 7.49401 5.32101 8.96601 4.92401 10.607C5.20701 10.27 6.79301 8.40001 8.60401 7.38101C8.66201 7.38101 9.11401 7.09801 9.11401 7.09801C9.05701 7.09801 8.20901 7.94801 8.04001 8.11801C4.07501 12.194 1.75501 18.366 3.56701 20.177C4.75501 21.366 6.90701 21.083 9.39801 19.725C10.473 20.235 11.663 20.46 12.963 20.46C14.662 20.46 16.248 20.007 17.606 19.101C19.022 18.195 20.042 16.782 20.665 15.139H16.249C15.683 16.214 14.38 16.951 13.022 16.951C11.096 16.951 9.51001 15.365 9.45401 13.554V13.385H21.005V13.215C21.005 12.932 21.062 12.592 21.062 12.367C21.061 11.005 20.721 9.70301 20.154 8.51401ZM4.81101 19.838C3.90501 18.932 4.19001 17.176 5.26401 15.082C5.77401 16.498 6.62301 17.744 7.69901 18.649C8.04001 18.931 8.43401 19.214 8.83201 19.441C7.01801 20.404 5.54701 20.574 4.81101 19.838ZM16.417 11.232H9.51001V11.175C9.62301 9.41901 11.264 7.89001 13.191 7.89001C15.003 7.89001 16.475 9.30601 16.588 11.175V11.232H16.417ZM19.871 8.06101C19.531 7.49501 19.078 6.92901 18.568 6.47601C17.779 5.74201 16.856 5.16401 15.85 4.77701C17.663 3.92801 19.191 3.81601 19.984 4.60801C20.607 5.34401 20.551 6.58901 19.871 8.06101C19.871 8.11801 19.871 8.11801 19.871 8.06101C19.871 8.11801 19.871 8.11801 19.871 8.06101Z" fill="#0B0F19"/>
</svg>
