<svg width="24" height="24" viewBox="0 0 24 24" fill="none" xmlns="http://www.w3.org/2000/svg">
<path d="M14.49 20.937L19.871 19.771C19.871 19.771 17.93 6.63299 17.914 6.54599C17.898 6.45999 17.828 6.40199 17.756 6.40199C17.684 6.40199 16.317 6.30099 16.317 6.30099C16.317 6.30099 15.368 5.35199 15.253 5.25099C15.226 5.22199 15.196 5.20799 15.167 5.19299L14.49 20.937ZM14.936 5.16499C14.92 5.16499 14.893 5.17899 14.879 5.17899C14.863 5.17899 14.662 5.23799 14.346 5.33699C14.028 4.41799 13.467 3.56899 12.475 3.56899C12.446 3.56899 12.418 3.56899 12.389 3.56899C12.1 3.20799 11.756 3.04999 11.453 3.04999C9.137 3.04999 8.027 5.94199 7.683 7.40899C6.791 7.68399 6.145 7.88499 6.07 7.91399C5.566 8.07199 5.553 8.08599 5.496 8.56199C5.439 8.90599 4.129 19.051 4.129 19.051L14.246 20.95L14.936 5.16499ZM12.301 5.86899C12.301 5.89899 12.301 5.94199 12.301 5.97099C11.742 6.14399 11.123 6.33099 10.518 6.51799C10.864 5.19499 11.51 4.54599 12.071 4.30099C12.217 4.67599 12.301 5.17899 12.301 5.86899ZM11.381 3.66899C11.481 3.66899 11.582 3.69699 11.684 3.77099C10.952 4.11499 10.145 4.99299 9.813 6.74899C9.324 6.90599 8.848 7.04999 8.402 7.18099C8.791 5.84199 9.727 3.66899 11.381 3.66899ZM11.783 11.481C11.783 11.481 11.179 11.166 10.461 11.166C9.381 11.166 9.338 11.842 9.338 12.015C9.338 12.936 11.756 13.295 11.756 15.468C11.756 17.18 10.676 18.274 9.209 18.274C7.453 18.274 6.561 17.18 6.561 17.18L7.036 15.626C7.036 15.626 7.958 16.418 8.733 16.418C9.239 16.418 9.454 16.016 9.454 15.728C9.454 14.519 7.468 14.46 7.468 12.476C7.468 10.807 8.663 9.18099 11.095 9.18099C12.031 9.18099 12.49 9.45299 12.49 9.45299L11.783 11.481ZM12.705 4.19999C13.223 4.25999 13.555 4.84799 13.769 5.51099C13.511 5.59799 13.222 5.68399 12.906 5.78399C12.906 5.72599 12.906 5.66799 12.906 5.59699C12.906 5.03599 12.834 4.57499 12.705 4.19999Z" fill="#0B0F19"/>
</svg>
