<svg width="24" height="24" viewBox="0 0 24 24" fill="none" xmlns="http://www.w3.org/2000/svg">
<path d="M6.21699 12.486C8.18099 12.064 7.90999 9.714 7.85399 9.199C7.75799 8.411 6.82599 7.027 5.56299 7.138C3.97499 7.279 3.74199 9.578 3.74199 9.578C3.52599 10.638 4.25699 12.908 6.21699 12.486ZM9.86299 8.542C10.947 8.542 11.822 7.291 11.822 5.75C11.822 4.213 10.951 2.965 9.86699 2.965C8.78099 2.965 7.90099 4.207 7.90099 5.75C7.90099 7.293 8.78099 8.542 9.86599 8.542H9.86299ZM14.537 8.728C15.991 8.923 16.917 7.373 17.105 6.198C17.293 5.032 16.351 3.67 15.329 3.435C14.298 3.198 13.026 4.846 12.898 5.919C12.762 7.237 13.086 8.546 14.532 8.732L14.537 8.728ZM20.283 10.705C20.283 10.143 19.823 8.452 18.093 8.452C16.364 8.452 16.128 10.048 16.128 11.178C16.128 12.255 16.217 13.751 18.375 13.706C20.523 13.654 20.288 11.268 20.288 10.704L20.283 10.705ZM18.1 15.626C18.1 15.626 15.853 13.887 14.543 12.013C12.767 9.245 10.239 10.373 9.39899 11.774C8.55399 13.192 7.24599 14.08 7.05999 14.318C6.87199 14.55 4.35099 15.914 4.91299 18.397C5.47599 20.88 7.44099 20.836 7.44099 20.836C7.44099 20.836 8.88699 20.978 10.574 20.602C12.26 20.227 13.704 20.693 13.704 20.693C13.704 20.693 17.624 22.01 18.709 19.481C19.781 16.944 18.099 15.634 18.099 15.634" fill="#0B0F19"/>
</svg>
