<svg width="24" height="24" viewBox="0 0 24 24" fill="none" xmlns="http://www.w3.org/2000/svg">
<path d="M20.935 12.646C20.655 11.804 19.754 11.346 18.913 11.612L17.281 12.144C16.926 11.045 16.546 9.876 16.189 8.779C16.19 8.778 16.192 8.778 16.195 8.777C16.194 8.775 16.192 8.771 16.191 8.769C17.174 8.451 17.804 8.246 17.804 8.246C18.646 7.965 19.104 7.064 18.839 6.223C18.558 5.381 17.655 4.923 16.814 5.189L15.193 5.716C14.878 4.74 14.674 4.112 14.674 4.112C14.393 3.27 13.493 2.812 12.65 3.078C11.808 3.358 11.351 4.259 11.617 5.102L12.139 6.711L8.77101 7.803C8.45301 6.823 8.24701 6.192 8.24701 6.192C7.96801 5.351 7.06501 4.892 6.22501 5.158C5.38201 5.438 4.92401 6.34 5.19101 7.181L5.71501 8.797L4.05301 9.338C3.27101 9.619 2.82801 10.476 3.06501 11.288C3.31501 12.144 4.21701 12.661 5.04401 12.38C5.05001 12.38 5.70201 12.171 6.70901 11.844L7.80801 15.23H7.80602V15.232L6.13601 15.777C5.35401 16.057 4.91101 16.914 5.14901 17.726C5.39901 18.583 6.29901 19.1 7.12801 18.819C7.13501 18.819 7.78701 18.608 8.79302 18.281L8.79601 18.286C8.79801 18.286 8.80201 18.285 8.80401 18.284L9.34302 19.941C9.62402 20.724 10.481 21.167 11.292 20.93C12.149 20.68 12.665 19.779 12.386 18.951C12.386 18.945 12.177 18.297 11.853 17.297C11.852 17.294 11.851 17.291 11.85 17.288C12.954 16.93 14.126 16.549 15.226 16.19L15.769 17.858C16.049 18.64 16.907 19.083 17.718 18.847C18.574 18.596 19.092 17.695 18.81 16.868C18.81 16.861 18.601 16.209 18.275 15.205C18.282 15.203 18.288 15.201 18.294 15.199C18.293 15.197 18.292 15.194 18.291 15.192C19.27 14.875 19.9 14.67 19.9 14.67C20.743 14.389 21.201 13.488 20.935 12.646ZM10.86 14.238C10.501 13.136 10.121 11.961 9.76301 10.861C9.76501 10.861 9.76801 10.86 9.76801 10.86C9.76801 10.858 9.76801 10.856 9.76801 10.854C10.866 10.498 12.036 10.119 13.131 9.762L14.229 13.139L10.86 14.238Z" fill="#0B0F19"/>
</svg>
