<svg width="24" height="24" viewBox="0 0 24 24" fill="none" xmlns="http://www.w3.org/2000/svg">
<path d="M5.07703 9.45703C5.07703 8.67903 5.21303 7.94406 5.48103 7.25806C5.75103 6.57106 6.12403 5.96805 6.60203 5.45605C7.08103 4.94406 7.62503 4.50095 8.24603 4.12695C8.86603 3.75095 9.53203 3.47096 10.248 3.28296C10.961 3.09596 11.688 3.00195 12.433 3.00195C13.572 3.00195 14.632 3.24302 15.615 3.72302C16.594 4.20202 17.391 4.90002 18.006 5.81702C18.62 6.73202 18.925 7.76702 18.925 8.92102C18.925 9.61302 18.857 10.29 18.718 10.952C18.58 11.615 18.366 12.255 18.072 12.865C17.776 13.478 17.418 14.0171 16.99 14.4821C16.564 14.9461 16.043 15.3169 15.422 15.5959C14.801 15.8729 14.12 16.0129 13.377 16.0129C12.888 16.0129 12.4 15.898 11.918 15.667C11.436 15.437 11.09 15.1209 10.882 14.7159C10.809 14.9969 10.709 15.403 10.576 15.934C10.448 16.464 10.362 16.8061 10.324 16.9611C10.284 17.1151 10.21 17.372 10.102 17.728C9.99403 18.084 9.90003 18.3419 9.82103 18.4969C9.74203 18.6499 9.62803 18.875 9.47703 19.171C9.32503 19.467 9.15703 19.747 8.97903 20.009C8.79803 20.271 8.57403 20.584 8.30703 20.944L8.15803 20.9969L8.05903 20.889C7.95203 19.756 7.89703 19.078 7.89703 18.854C7.89703 18.191 7.97603 17.447 8.13203 16.621C8.28503 15.796 8.52703 14.759 8.85203 13.512C9.17703 12.266 9.36303 11.533 9.41303 11.316C9.18403 10.849 9.06803 10.239 9.06803 9.48901C9.06803 8.89001 9.25503 8.32903 9.63003 7.80103C10.006 7.27503 10.481 7.01196 11.057 7.01196C11.498 7.01196 11.84 7.15805 12.085 7.45105C12.331 7.74305 12.451 8.11106 12.451 8.56006C12.451 9.03606 12.293 9.72498 11.975 10.626C11.657 11.528 11.499 12.2009 11.499 12.6479C11.499 13.1009 11.661 13.48 11.985 13.777C12.309 14.076 12.704 14.226 13.164 14.226C13.56 14.226 13.927 14.136 14.268 13.955C14.609 13.776 14.891 13.53 15.117 13.222C15.344 12.911 15.548 12.569 15.723 12.193C15.9 11.817 16.038 11.4199 16.134 10.9969C16.23 10.5749 16.304 10.174 16.35 9.797C16.399 9.418 16.42 9.05997 16.42 8.71997C16.42 7.47297 16.024 6.50105 15.237 5.80505C14.446 5.10905 13.416 4.76294 12.149 4.76294C10.708 4.76294 9.50303 5.22894 8.53803 6.16394C7.57203 7.09594 7.08603 8.28102 7.08603 9.71802C7.08603 10.035 7.13403 10.341 7.22503 10.637C7.31403 10.932 7.41103 11.1669 7.51603 11.3409C7.62003 11.5119 7.71803 11.679 7.80703 11.833C7.89703 11.987 7.94403 12.097 7.94403 12.163C7.94403 12.365 7.89103 12.628 7.78403 12.953C7.67303 13.278 7.54203 13.4399 7.38403 13.4399C7.36903 13.4399 7.30703 13.429 7.19903 13.406C6.83103 13.298 6.50403 13.096 6.22003 12.801C5.93603 12.505 5.71503 12.1631 5.56103 11.7791C5.40803 11.3931 5.29003 11.004 5.20903 10.61C5.11403 10.216 5.07703 9.83203 5.07703 9.45703Z" fill="#0B0F19"/>
</svg>
