<svg width="24" height="24" viewBox="0 0 24 24" fill="none" xmlns="http://www.w3.org/2000/svg">
<path d="M19.545 15.025V12.604H21.967V10.789H19.545V8.368H17.73V10.789H15.309V12.604H17.73V15.025H19.545ZM8.052 8.302C9.185 8.302 9.948 8.786 10.382 9.198L12.104 7.528C11.056 6.548 9.689 5.948 8.052 5.948C4.714 5.947 2 8.659 2 12C2 15.341 4.714 18.053 8.052 18.053C11.545 18.053 13.864 15.596 13.864 12.14C13.864 11.637 13.8 11.28 13.711 10.9H8.049V13.151V13.156H11.381C11.223 14.107 10.37 15.712 8.052 15.712C6.049 15.712 4.415 14.047 4.415 12.008C4.415 9.966 6.049 8.302 8.052 8.302Z" fill="#0B0F19"/>
</svg>
