<svg width="24" height="24" viewBox="0 0 24 24" fill="none" xmlns="http://www.w3.org/2000/svg">
<path d="M12.102 21C13.508 21 19.087 14.671 19.087 10.429C19.087 6.368 15.915 3 12.102 3C8.085 3 4.914 6.366 4.914 10.429C4.913 14.67 10.492 21 12.102 21ZM10.979 5.885C11.342 5.794 11.725 5.746 12.122 5.746C14.372 5.746 16.308 7.659 16.308 10.144C16.308 12.382 14.372 14.295 12.112 14.295C9.603 14.295 7.668 12.382 7.668 10.144C7.668 9.097 8.006 8.164 8.59 7.421V7.443C8.59 8.377 9.345 9.119 10.278 9.119C11.211 9.121 12 8.355 12 7.422C12 6.733 11.58 6.141 10.98 5.882L10.979 5.885Z" fill="#0B0F19"/>
</svg>
