<svg width="24" height="24" viewBox="0 0 24 24" fill="none" xmlns="http://www.w3.org/2000/svg">
<path d="M18.002 2.99701H5.99901C4.34301 3.00201 3.00201 4.34301 2.99701 6.00001V18.002C2.99701 19.651 4.34901 21.003 5.99901 21.003H18.002C19.651 21.003 21.003 19.651 21.003 18.002V6.00001C21.003 4.34901 19.651 2.99701 18.002 2.99701ZM16.362 15.644C16.21 16.004 15.973 16.324 15.669 16.571C15.354 16.824 14.954 17.034 14.463 17.185C13.973 17.336 13.389 17.414 12.713 17.414H7.88801V6.90901H12.991C13.934 6.90901 14.691 7.12201 15.258 7.55501C15.827 7.99101 16.112 8.63701 16.112 9.51301C16.112 10.041 15.982 10.496 15.723 10.87C15.464 11.243 15.093 11.534 14.612 11.738V11.772C15.254 11.907 15.749 12.21 16.076 12.684C16.403 13.157 16.569 13.753 16.569 14.473C16.569 14.878 16.491 15.261 16.344 15.62L16.364 15.641V15.644H16.362ZM14.278 13.055C13.969 12.773 13.539 12.636 12.981 12.636H9.73701V15.912H12.99C13.544 15.912 13.981 15.768 14.288 15.477C14.596 15.188 14.752 14.776 14.752 14.248C14.747 13.73 14.596 13.329 14.288 13.055H14.274H14.278ZM13.827 10.936C14.126 10.685 14.271 10.323 14.271 9.85201C14.271 9.32601 14.14 8.95001 13.874 8.73601C13.61 8.52201 13.228 8.41001 12.728 8.41001H9.72701V11.308H12.728C13.164 11.309 13.538 11.181 13.827 10.936Z" fill="#0B0F19"/>
</svg>
