<svg width="24" height="24" viewBox="0 0 24 24" fill="none" xmlns="http://www.w3.org/2000/svg">
<path d="M12.001 16.709C10.988 15.438 10.392 14.323 10.193 13.369C9.99597 12.6 10.073 11.984 10.411 11.521C10.768 10.989 11.301 10.73 12 10.73C12.699 10.73 13.231 10.989 13.589 11.526C13.924 11.984 14.008 12.601 13.804 13.374C13.586 14.348 12.991 15.461 11.996 16.715L12.001 16.709ZM19.197 17.564C19.057 18.498 18.422 19.272 17.547 19.649C15.86 20.383 14.188 19.212 12.758 17.623C15.123 14.662 15.561 12.355 14.545 10.865C13.949 10.01 13.096 9.59401 12.001 9.59401C9.79497 9.59401 8.58197 11.461 9.05897 13.628C9.33497 14.801 10.072 16.134 11.245 17.624C10.51 18.437 9.81297 19.015 9.19797 19.372C8.71997 19.63 8.26397 19.79 7.82797 19.828C5.81997 20.127 4.24597 18.181 4.96097 16.172C5.06097 15.913 5.25797 15.438 5.59497 14.701L5.61397 14.662C6.71097 12.28 8.04397 9.57401 9.57497 6.57201L9.61397 6.47201L10.049 5.63601C10.387 5.02001 10.526 4.74401 11.063 4.40501C11.321 4.24801 11.639 4.17001 11.997 4.17001C12.712 4.17001 13.268 4.58801 13.508 4.92301C13.626 5.10301 13.767 5.34201 13.944 5.63901L14.363 6.45401L14.423 6.57301C15.953 9.57401 17.286 12.275 18.378 14.662L18.398 14.681L18.799 15.596L19.036 16.169C19.219 16.628 19.257 17.084 19.196 17.562L19.197 17.564ZM20.11 15.773C19.971 15.335 19.732 14.82 19.435 14.204V14.182C18.021 11.179 16.706 8.48001 15.459 6.05401L15.375 5.93301C14.486 4.10901 13.849 3.01401 12 3.01401C10.173 3.01401 9.39597 4.28401 8.60297 5.93601L8.54197 6.05501C7.29097 8.48101 5.97797 11.183 4.56697 14.185V14.224L4.14897 15.138C3.99097 15.516 3.91197 15.713 3.88997 15.774C2.87797 18.556 4.96397 21 7.48897 21C7.50997 21 7.58797 21 7.68697 20.979H7.96497C9.27797 20.82 10.629 19.986 12 18.494C13.371 19.984 14.725 20.82 16.033 20.979H16.312C16.412 21 16.492 21 16.512 21C19.037 21.002 21.122 18.556 20.11 15.773Z" fill="#0B0F19"/>
</svg>
