<svg width="24" height="24" viewBox="0 0 24 24" fill="none" xmlns="http://www.w3.org/2000/svg">
<path d="M12.081 12.932C11.301 14.543 10.232 16.724 9.702 17.708C9.189 18.604 8.762 18.484 8.424 17.732C7.252 14.962 4.844 10.107 3.712 7.38499C3.503 6.88299 3.345 6.56199 3.196 6.43499C3.045 6.30999 2.734 6.23499 2.26 6.20799C2.086 6.18899 2 6.14699 2 6.07699V5.69799L2.043 5.65999C2.814 5.65599 6.546 5.65999 6.546 5.65999L6.588 5.69799V6.05999C6.588 6.15999 6.525 6.20699 6.4 6.20699L5.93 6.23099C5.527 6.25699 5.325 6.36799 5.325 6.59599C5.325 6.70799 5.369 6.87099 5.464 7.09699C6.366 9.30299 9.481 15.869 9.481 15.869L9.595 15.908L11.605 11.896L11.203 11.006L9.82 8.28499C9.82 8.28499 9.555 7.73999 9.463 7.55799C8.856 6.35499 8.87 6.29299 8.257 6.21099C8.084 6.19099 7.996 6.16899 7.996 6.08599V5.69599L8.046 5.65899H11.624L11.719 5.68899V6.06499C11.719 6.15299 11.656 6.18999 11.53 6.18999L11.273 6.22899C10.613 6.27999 10.722 6.54699 11.16 7.41499L12.479 10.127L13.944 7.20499C14.188 6.67199 14.138 6.53699 14.037 6.41599C13.979 6.34599 13.782 6.23099 13.36 6.21599L13.192 6.19799C13.149 6.19799 13.11 6.18499 13.071 6.15499C13.034 6.12999 13.015 6.09199 13.015 6.04799V5.69099L13.066 5.65399C14.106 5.64699 16.437 5.65399 16.437 5.65399L16.487 5.69099V6.05499C16.487 6.15599 16.437 6.20299 16.326 6.20299C15.787 6.22699 15.674 6.28199 15.472 6.56899C15.372 6.72299 15.159 7.05899 14.934 7.43399L13.015 10.997L12.961 11.109L15.289 15.872L15.431 15.913L19.096 7.20899C19.225 6.85699 19.203 6.60699 19.043 6.46299C18.878 6.31899 18.754 6.23499 18.327 6.21699L17.977 6.20299C17.926 6.20299 17.889 6.19199 17.85 6.16599C17.814 6.14199 17.79 6.10299 17.79 6.06599V5.70499L17.839 5.66699H21.976L22.01 5.70499V6.06899C22.01 6.16899 21.948 6.21899 21.836 6.21899C21.295 6.24299 20.896 6.36899 20.633 6.56999C20.37 6.78299 20.168 7.08399 20.019 7.45999C20.019 7.45999 16.648 15.18 15.495 17.749C15.057 18.589 14.617 18.514 14.242 17.723C13.765 16.746 12.764 14.567 12.036 12.962L12.081 12.932Z" fill="#0B0F19"/>
</svg>
