<svg width="24" height="24" viewBox="0 0 24 24" fill="none" xmlns="http://www.w3.org/2000/svg">
<path d="M11.986 12.341C9.16099 12.341 6.81299 9.995 6.81299 7.219C6.81299 4.347 9.16099 2 11.987 2C14.909 2 17.16 4.346 17.16 7.219C17.15 10.057 14.841 12.351 12.003 12.342C11.997 12.342 11.992 12.342 11.986 12.341ZM11.986 5.017C10.79 5.017 9.87999 6.022 9.87999 7.22C9.87999 8.416 10.79 9.326 11.987 9.326C13.232 9.326 14.094 8.416 14.094 7.22C14.095 6.021 13.232 5.017 11.986 5.017ZM14.046 16.603L16.969 19.428C17.544 20.049 17.544 20.959 16.969 21.534C16.347 22.155 15.388 22.155 14.909 21.534L11.987 18.661L9.16099 21.534C8.87399 21.821 8.48999 21.964 8.05799 21.964C7.72299 21.964 7.33999 21.82 7.00399 21.534C6.42899 20.959 6.42899 20.049 7.00399 19.427L9.97399 16.602C8.90199 16.285 7.87199 15.834 6.91099 15.263C6.19199 14.88 6.04899 13.923 6.43199 13.204C6.91099 12.486 7.77299 12.295 8.53999 12.774C10.657 14.066 13.32 14.066 15.437 12.774C16.204 12.295 17.113 12.486 17.544 13.204C17.976 13.923 17.783 14.879 17.112 15.263C16.203 15.838 15.149 16.269 14.047 16.604L14.046 16.603Z" fill="#0B0F19"/>
</svg>
