<svg width="24" height="24" viewBox="0 0 24 24" fill="none" xmlns="http://www.w3.org/2000/svg">
<path d="M15.661 15.549C16.349 15.489 16.881 14.885 16.846 14.163C16.81 13.44 16.218 12.861 15.496 12.861H15.448C14.703 12.885 14.122 13.512 14.145 14.258C14.169 14.637 14.324 14.945 14.536 15.169C13.709 16.778 12.466 17.963 10.582 18.957C9.31602 19.62 7.97802 19.869 6.67702 19.691C5.58802 19.538 4.73702 19.051 4.21402 18.27C3.43402 17.085 3.36202 15.808 4.01302 14.53C4.48802 13.606 5.19802 12.931 5.67102 12.599C5.55302 12.292 5.41102 11.772 5.34002 11.381C1.83402 13.891 2.19202 17.323 3.25602 18.945C4.05002 20.129 5.67102 20.886 7.44602 20.886C7.92002 20.886 8.41802 20.851 8.90302 20.732C11.98 20.14 14.312 18.294 15.65 15.572L15.661 15.549Z" fill="#0B0F19"/>
<path d="M19.887 12.589C18.053 10.435 15.354 9.25202 12.276 9.25202H11.873C11.673 8.81402 11.212 8.54102 10.69 8.54102H10.654C9.91001 8.54102 9.32901 9.18101 9.35301 9.92601C9.37601 10.636 9.98001 11.228 10.703 11.228H10.762C11.295 11.205 11.756 10.874 11.945 10.4H12.384C14.208 10.4 15.935 10.932 17.51 11.974C18.716 12.766 19.582 13.808 20.067 15.051C20.492 16.07 20.469 17.064 20.032 17.894C19.357 19.196 18.22 19.882 16.718 19.882C15.771 19.882 14.847 19.586 14.373 19.373C14.09 19.608 13.615 19.999 13.271 20.236C14.313 20.709 15.367 20.982 16.384 20.982C18.693 20.982 20.407 19.68 21.06 18.425C21.769 17.003 21.711 14.612 19.899 12.566L19.887 12.589Z" fill="#0B0F19"/>
<path d="M7.64699 15.975C7.66999 16.685 8.27299 17.277 8.99699 17.277H9.04499C9.80199 17.254 10.382 16.627 10.347 15.88C10.347 15.17 9.73099 14.579 9.00899 14.579H8.96099C8.91299 14.579 8.84299 14.579 8.78299 14.601C7.80099 12.944 7.38599 11.167 7.54099 9.252C7.63499 7.807 8.10799 6.552 8.96099 5.51C9.67099 4.622 11.009 4.184 11.921 4.16C14.477 4.112 15.543 7.298 15.625 8.564L16.809 8.918C16.536 5.036 14.122 3 11.813 3C9.64699 3 7.64699 4.574 6.84199 6.884C5.73999 9.961 6.46299 12.92 7.81299 15.288C7.69499 15.442 7.62399 15.714 7.64699 15.975Z" fill="#0B0F19"/>
</svg>
