<svg width="24" height="24" viewBox="0 0 24 24" fill="none" xmlns="http://www.w3.org/2000/svg">
<path d="M2.005 10.238V11.928L12.007 18.182L21.995 11.928V10.238L12.007 16.467L2.005 10.238Z" fill="#0B0F19"/>
<path d="M15.938 12.469L17.403 11.531C16.242 9.83 14.25 8.655 12.007 8.655C9.74999 8.655 7.77099 9.79 6.63599 11.545C6.72899 11.452 6.78199 11.399 6.87399 11.334C9.68499 8.998 13.734 9.526 15.938 12.469Z" fill="#0B0F19"/>
<path d="M9.05101 13.063C9.57901 12.68 10.185 12.483 10.831 12.483C11.914 12.483 12.878 13.037 13.523 13.973L14.922 13.102C14.315 12.139 13.234 11.545 12.006 11.545C10.78 11.545 9.69701 12.165 9.05101 13.063ZM5.25001 9.01199C9.36701 5.76599 15.187 6.64999 18.287 10.965L18.313 10.991L19.83 10.053C18.168 7.50599 15.278 5.81799 12.007 5.81799C8.76101 5.81799 5.87101 7.48099 4.18201 10.053C4.48601 9.71099 4.86801 9.30199 5.25001 9.01199Z" fill="#0B0F19"/>
</svg>
