<svg width="24" height="24" viewBox="0 0 24 24" fill="none" xmlns="http://www.w3.org/2000/svg">
<path d="M12 21.985C11.725 21.985 11.468 21.911 11.228 21.783L8.789 20.335C8.424 20.132 8.607 20.058 8.717 20.021C9.213 19.856 9.305 19.82 9.818 19.528C9.874 19.491 9.947 19.508 10.003 19.545L11.873 20.665C11.947 20.701 12.039 20.701 12.094 20.665L19.413 16.428C19.487 16.392 19.523 16.318 19.523 16.226V7.76801C19.523 7.67701 19.487 7.60301 19.413 7.56701L12.094 3.34801C12.021 3.31101 11.929 3.31101 11.873 3.34801L4.552 7.56601C4.479 7.60201 4.442 7.69501 4.442 7.76701V16.224C4.442 16.297 4.479 16.39 4.552 16.426L6.552 17.583C7.634 18.131 8.314 17.488 8.314 16.848V8.50201C8.314 8.39201 8.405 8.28101 8.534 8.28101H9.47C9.578 8.28101 9.69 8.37301 9.69 8.50201V16.849C9.69 18.298 8.902 19.143 7.526 19.143C7.104 19.143 6.774 19.143 5.838 18.683L3.913 17.584C3.434 17.307 3.142 16.793 3.142 16.244V7.78601C3.142 7.23601 3.435 6.72201 3.913 6.44701L11.229 2.21001C11.69 1.95201 12.313 1.95201 12.773 2.21001L20.09 6.44701C20.569 6.72101 20.861 7.23601 20.861 7.78601V16.244C20.861 16.793 20.568 17.307 20.09 17.584L12.773 21.82C12.532 21.93 12.257 21.985 12 21.985ZM14.256 16.169C11.046 16.169 10.386 14.701 10.386 13.455C10.386 13.345 10.478 13.234 10.606 13.234H11.56C11.67 13.234 11.761 13.307 11.761 13.418C11.908 14.389 12.329 14.867 14.275 14.867C15.815 14.867 16.477 14.517 16.477 13.692C16.477 13.215 16.292 12.867 13.89 12.629C11.891 12.429 10.644 11.986 10.644 10.391C10.644 8.90601 11.891 8.02501 13.983 8.02501C16.33 8.02501 17.486 8.83401 17.632 10.593C17.632 10.648 17.613 10.702 17.576 10.758C17.539 10.794 17.485 10.831 17.43 10.831H16.477C16.383 10.831 16.292 10.758 16.275 10.667C16.054 9.65501 15.486 9.32701 13.983 9.32701C12.294 9.32701 12.092 9.91401 12.092 10.354C12.092 10.885 12.329 11.05 14.606 11.344C16.862 11.637 17.926 12.059 17.926 13.638C17.906 15.253 16.587 16.169 14.256 16.169Z" fill="#0B0F19"/>
</svg>
