<svg width="24" height="24" viewBox="0 0 24 24" fill="none" xmlns="http://www.w3.org/2000/svg">
<path d="M6.078 12C6.078 8.73398 8.734 6.07798 12 6.07798C14.107 6.07798 16.072 7.21198 17.129 9.03698L15.63 9.90399L20.657 7.00198C20.517 6.75998 20.325 6.54899 20.114 6.42698L12.769 2.18698C12.345 1.94198 11.653 1.94198 11.23 2.18698L3.885 6.42698C3.463 6.67098 3.117 7.27099 3.117 7.75998V16.24C3.117 16.485 3.203 16.757 3.343 16.998L6.872 14.96C6.367 14.089 6.078 13.078 6.078 12Z" fill="#0B0F19"/>
<path d="M14.564 10.519C14.036 9.606 13.053 9.039 12 9.039C10.367 9.039 9.039 10.367 9.039 12C9.039 12.539 9.185 13.044 9.436 13.48L12 12L14.564 10.519Z" fill="#0B0F19"/>
<path d="M20.657 7.00201L15.611 9.91501L14.565 10.52C14.565 10.52 14.565 10.52 14.564 10.519L12 12L9.43698 13.48C9.94998 14.364 10.907 14.961 12 14.961C13.054 14.961 14.037 14.394 14.565 13.48L17.128 14.963C16.071 16.788 14.107 17.922 11.999 17.922C9.81098 17.922 7.89598 16.729 6.87098 14.96L3.34198 16.998C3.48198 17.24 3.67398 17.451 3.88498 17.573L11.23 21.813C11.653 22.058 12.345 22.058 12.769 21.813L20.114 17.573C20.325 17.451 20.517 17.24 20.657 16.998C20.797 16.757 20.883 16.485 20.883 16.24V7.76001C20.883 7.51501 20.797 7.24301 20.657 7.00201ZM17.922 12.329H17.264V12.987H16.607V12.329H15.949V11.671H16.607V11.013H17.264V11.671H17.922V12.329ZM20.39 12.329H19.732V12.987H19.074V12.329H18.417V11.671H19.074V11.013H19.732V11.671H20.39V12.329Z" fill="#0B0F19"/>
</svg>
