<svg width="24" height="24" viewBox="0 0 24 24" fill="none" xmlns="http://www.w3.org/2000/svg">
<path d="M16.279 11.506C16.411 11.49 16.536 11.488 16.652 11.506C16.718 11.352 16.73 11.087 16.671 10.798C16.581 10.369 16.46 10.11 16.21 10.152C15.959 10.192 15.949 10.502 16.04 10.931C16.09 11.171 16.18 11.377 16.279 11.506ZM14.13 11.845C14.31 11.923 14.42 11.974 14.461 11.931C14.49 11.903 14.482 11.847 14.439 11.777C14.351 11.634 14.168 11.487 13.975 11.406C13.58 11.235 13.111 11.291 12.747 11.552C12.628 11.64 12.515 11.761 12.529 11.835C12.536 11.858 12.552 11.877 12.594 11.885C12.693 11.896 13.038 11.721 13.437 11.697C13.719 11.677 13.95 11.765 14.13 11.845ZM13.769 12.05C13.537 12.087 13.408 12.163 13.326 12.237C13.255 12.299 13.213 12.365 13.213 12.414L13.231 12.456L13.268 12.47C13.321 12.47 13.439 12.424 13.439 12.424C13.763 12.309 13.978 12.322 14.191 12.346C14.308 12.36 14.363 12.366 14.389 12.326C14.396 12.314 14.407 12.291 14.382 12.252C14.326 12.161 14.091 12.012 13.769 12.05ZM15.553 12.806C15.712 12.884 15.886 12.852 15.943 12.737C16.002 12.622 15.919 12.465 15.76 12.388C15.602 12.309 15.427 12.339 15.37 12.454C15.313 12.569 15.396 12.728 15.553 12.806ZM16.571 11.915C16.443 11.913 16.337 12.053 16.333 12.231C16.33 12.408 16.433 12.552 16.562 12.553C16.691 12.555 16.797 12.414 16.8 12.238C16.803 12.062 16.701 11.918 16.571 11.915ZM7.92701 15.098C7.895 15.058 7.842 15.069 7.791 15.083C7.755 15.09 7.715 15.1 7.672 15.099C7.577 15.097 7.49601 15.056 7.45101 14.988C7.39201 14.898 7.395 14.763 7.461 14.61L7.49101 14.541C7.59501 14.31 7.766 13.922 7.573 13.553C7.427 13.275 7.188 13.102 6.902 13.065C6.627 13.03 6.34401 13.132 6.16301 13.332C5.87901 13.645 5.836 14.073 5.89 14.225C5.911 14.281 5.94301 14.296 5.96501 14.299C6.01301 14.306 6.08401 14.27 6.12901 14.149L6.14301 14.111C6.16301 14.047 6.20001 13.927 6.26101 13.833C6.33401 13.718 6.44901 13.639 6.58401 13.611C6.72001 13.581 6.86001 13.607 6.97801 13.683C7.17801 13.814 7.25301 14.058 7.16801 14.291C7.12401 14.412 7.053 14.642 7.068 14.831C7.1 15.214 7.338 15.368 7.548 15.387C7.754 15.394 7.89801 15.279 7.935 15.194C7.956 15.141 7.938 15.11 7.92701 15.098Z" fill="#0B0F19"/>
<path d="M19.821 14.397C19.812 14.368 19.76 14.181 19.691 13.957L19.547 13.573C19.828 13.15 19.833 12.774 19.796 12.56C19.755 12.296 19.647 12.069 19.424 11.836C19.202 11.604 18.747 11.364 18.109 11.185L17.774 11.092C17.772 11.077 17.756 10.302 17.743 9.96899C17.732 9.72899 17.712 9.35299 17.595 8.98299C17.455 8.48099 17.214 8.04499 16.911 7.76199C17.746 6.89799 18.266 5.94499 18.265 5.12799C18.262 3.55699 16.332 3.07899 13.953 4.06499L13.45 4.27899C13.448 4.27699 12.539 3.38499 12.526 3.37399C9.81199 1.00799 1.33399 10.434 4.04599 12.723L4.63899 13.224C4.48499 13.623 4.42399 14.079 4.47299 14.569C4.53799 15.2 4.86199 15.803 5.38799 16.27C5.88799 16.712 6.54699 16.994 7.18399 16.993C8.23899 19.425 10.649 20.915 13.475 21C16.507 21.09 19.051 19.667 20.119 17.111C20.188 16.932 20.484 16.124 20.484 15.411C20.483 14.693 20.078 14.396 19.821 14.397ZM7.41599 16.309C7.32299 16.326 7.23099 16.332 7.13599 16.33C6.21999 16.304 5.23099 15.48 5.13299 14.503C5.02399 13.423 5.57599 12.591 6.55399 12.395C6.66999 12.37 6.81199 12.357 6.96399 12.364C7.51199 12.396 8.31799 12.816 8.50299 14.009C8.66699 15.064 8.40699 16.141 7.41599 16.309ZM6.39499 11.747C5.78599 11.865 5.24899 12.21 4.92199 12.687C4.72499 12.523 4.35999 12.207 4.29599 12.083C3.77199 11.089 4.86699 9.15499 5.63299 8.06299C7.52199 5.36499 10.484 3.32399 11.856 3.69199C12.078 3.75599 12.816 4.61299 12.816 4.61299C12.816 4.61299 11.446 5.37199 10.174 6.43199C8.46299 7.75199 7.16799 9.66799 6.39499 11.747ZM16.006 15.905C16.026 15.897 16.039 15.875 16.036 15.851C16.033 15.824 16.009 15.803 15.98 15.806C15.98 15.806 14.546 16.018 13.191 15.523C13.338 15.044 13.732 15.215 14.325 15.264C15.392 15.327 16.352 15.172 17.06 14.968C17.673 14.791 18.479 14.444 19.105 13.95C19.317 14.415 19.391 14.925 19.391 14.925C19.391 14.925 19.554 14.896 19.691 14.98C19.821 15.06 19.915 15.225 19.851 15.651C19.718 16.449 19.38 17.096 18.809 17.692C18.463 18.066 18.042 18.39 17.56 18.626C17.305 18.761 17.032 18.877 16.746 18.972C14.597 19.673 12.397 18.902 11.688 17.245C11.632 17.12 11.584 16.99 11.546 16.853C11.244 15.761 11.5 14.453 12.301 13.627V13.626C12.352 13.574 12.403 13.513 12.403 13.435C12.403 13.371 12.361 13.302 12.326 13.252C12.046 12.846 11.073 12.153 11.269 10.812C11.408 9.84799 12.251 9.16999 13.037 9.20999L13.237 9.22199C13.577 9.24199 13.874 9.28499 14.154 9.29799C14.624 9.31699 15.045 9.24899 15.545 8.83299C15.714 8.69099 15.849 8.56999 16.077 8.53199C16.101 8.52599 16.161 8.50699 16.28 8.51099C16.403 8.51699 16.518 8.55199 16.623 8.61999C17.023 8.88599 17.08 9.53199 17.102 10.005C17.114 10.274 17.147 10.927 17.157 11.113C17.183 11.541 17.296 11.602 17.522 11.676C17.651 11.72 17.77 11.75 17.945 11.801C18.474 11.948 18.79 12.101 18.988 12.294C19.106 12.415 19.161 12.543 19.176 12.666C19.241 13.123 18.823 13.687 17.721 14.199C16.515 14.758 15.052 14.9 14.042 14.787L13.688 14.747C12.878 14.639 12.419 15.683 12.904 16.398C13.217 16.859 14.068 17.159 14.921 17.159C16.874 17.161 18.376 16.327 18.936 15.605L18.98 15.542C19.006 15.5 18.985 15.479 18.95 15.501C18.495 15.813 16.467 17.053 14.299 16.681C14.299 16.681 14.035 16.637 13.795 16.543C13.605 16.471 13.204 16.285 13.156 15.875C14.903 16.418 16.006 15.906 16.006 15.905ZM9.88599 8.05299C10.558 7.27699 11.385 6.60099 12.127 6.22299C12.152 6.20899 12.179 6.23799 12.165 6.26099C12.106 6.36799 11.992 6.59599 11.957 6.76899C11.951 6.79599 11.98 6.81799 12.003 6.80099C12.465 6.48699 13.267 6.14999 13.971 6.10799C14.002 6.10599 14.017 6.14399 13.992 6.16299C13.886 6.24499 13.767 6.35799 13.682 6.47399C13.668 6.49399 13.681 6.52299 13.706 6.52299C14.2 6.52599 14.897 6.69799 15.35 6.95299C15.38 6.97099 15.358 7.02999 15.325 7.02199C14.637 6.86499 13.514 6.74499 12.346 7.02999C11.302 7.28399 10.506 7.67599 9.92699 8.09899C9.89699 8.11899 9.86199 8.07999 9.88599 8.05299Z" fill="#0B0F19"/>
</svg>
