<svg width="24" height="24" viewBox="0 0 24 24" fill="none" xmlns="http://www.w3.org/2000/svg">
<path d="M11.139 14.058C10.701 14.058 10.446 13.764 10.446 13V10.304L11.902 10.416L11.976 9.722L10.48 9.796V8.266H10.042C9.826 9.467 9.283 9.904 8.554 9.978V10.342H9.423V13.404C9.423 14.24 10.011 14.675 10.736 14.675C11.321 14.675 11.938 14.42 12.154 13.912L11.937 13.657C11.829 13.837 11.535 14.058 11.139 14.058ZM7.645 13.255C7.351 13.945 6.878 13.984 6.405 13.984H4.875C4.367 13.984 4.146 13.798 4.146 13.364V11.106C4.146 11.106 5.238 11.106 5.603 11.145C5.894 11.18 6.041 11.254 6.149 11.618L6.257 12.129H6.695L6.656 10.82L6.73 9.542H6.296L6.149 10.127C6.076 10.526 6.002 10.565 5.603 10.635C5.095 10.673 4.146 10.673 4.146 10.673V7.979C4.146 7.867 4.146 7.832 4.331 7.832H6.622C7.024 7.832 7.242 8.158 7.385 8.812L7.532 9.324H7.931C7.97 7.867 8.005 7.25 8.005 7.25C8.005 7.25 7.024 7.355 6.443 7.355H3.53L2 7.324V7.723L2.508 7.83C2.875 7.904 2.983 7.977 2.983 8.303C2.983 8.303 3.022 9.287 3.022 10.922C3.022 12.561 2.983 13.545 2.983 13.545C2.983 13.836 2.875 13.944 2.508 14.018L2 14.131V14.527L3.565 14.492H6.188C6.769 14.492 8.153 14.527 8.153 14.527C8.187 14.166 8.369 12.563 8.408 12.381H8.04L7.645 13.255ZM13.685 10.633C13.685 10.159 14.122 9.978 14.56 9.978C14.92 9.978 15.213 10.125 15.289 10.303L15.544 11.032L15.905 10.997C15.905 10.633 15.943 10.159 16.016 9.796C15.688 9.649 15.033 9.575 14.595 9.575C13.611 9.575 12.848 10.016 12.848 10.962C12.848 12.636 15.288 12.272 15.288 13.511C15.288 13.91 15.032 14.24 14.412 14.24C13.831 14.24 13.575 13.946 13.467 13.655L13.177 12.962H12.808C12.848 13.438 12.882 13.91 12.808 14.344C12.808 14.344 13.575 14.638 14.339 14.638C15.361 14.638 16.197 14.131 16.197 13.181C16.197 11.507 13.685 11.76 13.685 10.633ZM20.054 9.688V10.052L20.313 10.126C20.565 10.196 20.673 10.304 20.673 10.489C20.673 10.597 20.639 10.633 20.6 10.78C20.492 11.071 19.798 12.783 19.438 13.547C19 12.455 18.416 10.819 18.345 10.598C18.31 10.525 18.31 10.49 18.31 10.452C18.31 10.304 18.415 10.16 18.671 10.126L19 10.052V9.688L17.654 9.761L16.558 9.722V10.09L16.745 10.159C16.996 10.233 17.032 10.269 17.214 10.671C17.907 12.201 18.671 14.2 18.93 14.821C18.346 15.84 17.726 16.13 17.253 16.13C16.962 16.13 16.854 15.983 16.818 15.801L16.672 15.038L16.272 15.073C16.199 15.55 16.125 16.057 16.017 16.456C16.304 16.638 16.633 16.75 17.07 16.749C17.761 16.749 18.745 16.567 19.693 14.417L21.294 10.67C21.439 10.377 21.476 10.341 21.84 10.194L22.023 10.05V9.688L21.078 9.722L20.054 9.688Z" fill="#0B0F19"/>
</svg>
