<svg width="24" height="24" viewBox="0 0 24 24" fill="none" xmlns="http://www.w3.org/2000/svg">
<path d="M13.479 9.88297C11.853 9.27897 10.967 8.81597 10.967 8.07997C10.967 7.45797 11.478 7.10297 12.39 7.10297C14.057 7.10297 15.769 7.74497 16.948 8.32297L17.614 4.21197C16.679 3.76597 14.767 3.03497 12.124 3.03497C10.254 3.03497 8.699 3.52397 7.588 4.43597C6.433 5.38997 5.831 6.76997 5.831 8.43597C5.831 11.459 7.678 12.748 10.678 13.839C12.614 14.527 13.257 15.017 13.257 15.773C13.257 16.505 12.628 16.928 11.495 16.928C10.092 16.928 7.779 16.239 6.264 15.35L5.59 19.507C6.894 20.239 9.295 20.995 11.787 20.995C13.763 20.995 15.411 20.528 16.522 19.639C17.767 18.662 18.412 17.217 18.412 15.35C18.412 12.259 16.523 10.97 13.477 9.88197H13.479V9.88297Z" fill="#0B0F19"/>
</svg>
