<svg width="24" height="24" viewBox="0 0 24 24" fill="none" xmlns="http://www.w3.org/2000/svg">
<path d="M7.02097 12.111V8.00403H8.02197V10.529C8.51497 9.94303 9.19197 9.77303 9.85997 9.77303C10.978 9.77303 12.221 10.527 12.221 12.156C12.221 12.351 12.207 12.537 12.17 12.715C12.37 11.918 13.233 11.625 14.588 11.592C15.014 11.576 15.502 11.576 15.89 11.576V11.465C15.89 10.727 15.426 10.426 14.614 10.426C14.012 10.426 13.574 10.676 13.524 11.102H12.46C12.573 10.026 13.713 9.75003 14.702 9.75003C15.591 9.75003 16.368 9.97503 16.719 10.602L16.354 9.90003H17.531L19.247 13.343L20.963 9.89803H22L18.895 15.996H17.771L18.665 14.293L16.72 10.637C16.828 10.85 16.887 11.102 16.887 11.414V13.469C16.887 13.758 16.896 14.043 16.921 14.307H15.99C15.965 14.094 15.952 13.881 15.952 13.668C15.449 14.281 14.849 14.471 14.015 14.471C12.779 14.471 12.118 13.819 12.118 13.055C12.118 12.93 12.131 12.819 12.149 12.717C11.898 13.758 11.014 14.457 9.83897 14.457C9.11197 14.457 8.42497 14.195 8.00197 13.682C8.00197 13.883 7.98897 14.094 7.96897 14.293H6.98297C7.00097 13.969 7.01697 13.58 7.01697 13.256V12.379H2.98497C3.03897 13.293 3.66797 13.83 4.53197 13.83C5.13097 13.83 5.66297 13.58 5.84097 13.055H6.87597C6.67597 14.133 5.53197 14.494 4.54697 14.494C2.75797 14.512 1.96497 13.521 1.96497 12.193C1.96497 10.73 2.78397 9.76503 4.56697 9.76503C5.97597 9.76503 7.01197 10.503 7.02097 12.107V12.111ZM14.648 12.264C13.733 12.291 13.169 12.457 13.169 13.057C13.169 13.446 13.47 13.866 14.259 13.866C15.311 13.866 15.874 13.292 15.874 12.352V12.243C15.498 12.243 15.048 12.249 14.635 12.263H14.646L14.648 12.264ZM9.58897 13.828C10.516 13.828 11.155 13.156 11.155 12.142C11.155 11.128 10.513 10.456 9.57497 10.456C8.64697 10.456 7.99697 11.128 7.99697 12.142C7.99697 13.156 8.63597 13.828 9.56197 13.828H9.58597H9.58897ZM5.95797 11.73C5.92097 10.791 5.24397 10.439 4.51797 10.439C3.72997 10.439 3.10397 10.834 3.00197 11.73H5.95797Z" fill="#0B0F19"/>
</svg>
