<svg width="24" height="24" viewBox="0 0 24 24" fill="none" xmlns="http://www.w3.org/2000/svg">
<path d="M17.549 5.55698L17.146 7.66998C17.097 7.89898 16.809 8.13998 16.541 8.13998H12.781C12.356 8.13998 12.052 8.43598 12.052 8.85398V9.31698C12.052 9.74698 12.359 10.042 12.782 10.042H15.976C16.274 10.042 16.567 10.372 16.5 10.688L16.096 12.771C16.059 12.952 15.859 13.246 15.504 13.246H12.895C12.418 13.246 12.278 13.315 11.959 13.7C11.643 14.095 8.78401 17.527 8.78401 17.527C8.75801 17.56 8.73001 17.549 8.73001 17.516V5.52198C8.73001 5.25098 8.96401 4.93398 9.31601 4.93398H17.072C17.355 4.93398 17.621 5.20298 17.549 5.55198V5.55698ZM17.89 13.845C18.001 13.408 19.209 7.21498 19.612 5.25198L17.89 13.845ZM18.123 2.94098H8.45701C7.12701 2.94098 6.73401 3.94298 6.73401 4.57598V19.929C6.73401 20.639 7.11501 20.904 7.33001 20.991C7.54401 21.078 8.13701 21.152 8.49301 20.744C8.49301 20.744 13.056 15.448 13.133 15.371C13.258 15.253 13.258 15.253 13.371 15.253H16.325C17.57 15.253 17.763 14.368 17.899 13.848C18.013 13.419 19.224 7.22598 19.62 5.25298C19.927 3.75698 19.541 2.94198 18.125 2.94198H18.123V2.94098Z" fill="#0B0F19"/>
</svg>
