<svg width="24" height="24" viewBox="0 0 24 24" fill="none" xmlns="http://www.w3.org/2000/svg">
<path d="M5.23901 15.063L7.21001 2.381C7.24001 2.188 7.39001 2.035 7.58201 2.003C7.77301 1.97 7.96501 2.064 8.05701 2.236L10.177 6.215L5.23901 15.063ZM19.24 18.14L17.363 6.469C17.335 6.302 17.216 6.164 17.054 6.112C16.892 6.06 16.716 6.103 16.597 6.223L4.76001 18.14L11.31 21.831C11.721 22.061 12.222 22.061 12.633 21.831L19.24 18.14ZM13.917 7.955L12.4 5.052C12.322 4.903 12.168 4.809 12 4.809C11.832 4.809 11.678 4.903 11.6 5.052L4.93901 16.989L13.917 7.955Z" fill="#0B0F19"/>
</svg>
