<svg width="24" height="24" viewBox="0 0 24 24" fill="none" xmlns="http://www.w3.org/2000/svg">
<path d="M19.633 7.99698C19.646 8.17198 19.646 8.34598 19.646 8.51998C19.646 13.845 15.593 19.981 8.186 19.981C5.904 19.981 3.784 19.32 2 18.172C2.324 18.209 2.636 18.222 2.973 18.222C4.856 18.222 6.589 17.586 7.974 16.501C6.203 16.464 4.719 15.304 4.207 13.708C4.456 13.745 4.706 13.77 4.968 13.77C5.329 13.77 5.692 13.72 6.029 13.633C4.182 13.259 2.799 11.638 2.799 9.67998V9.62998C3.336 9.92898 3.959 10.116 4.619 10.141C3.534 9.41898 2.823 8.18398 2.823 6.78698C2.823 6.03898 3.022 5.35298 3.371 4.75498C5.354 7.19798 8.335 8.79498 11.677 8.96998C11.615 8.66998 11.577 8.35898 11.577 8.04698C11.577 5.82698 13.373 4.01898 15.605 4.01898C16.765 4.01898 17.812 4.50498 18.548 5.29098C19.458 5.11598 20.33 4.77898 21.104 4.31798C20.805 5.25298 20.168 6.03898 19.333 6.53798C20.144 6.44998 20.93 6.22598 21.652 5.91398C21.104 6.71198 20.419 7.42298 19.633 7.99698Z" fill="#0B0F19"/>
</svg>
