<svg width="24" height="24" viewBox="0 0 24 24" fill="none" xmlns="http://www.w3.org/2000/svg">
<path d="M19.327 3.98297H4.74601C3.79901 3.98297 3.01001 4.70897 3.01001 5.65597V11.052C3.01001 15.944 7.05001 20.016 12.036 20.016C16.991 20.016 21 15.944 21 11.052V5.65597C21 4.70897 20.242 3.98297 19.327 3.98297ZM17.149 10.674L12.856 14.714C12.635 14.967 12.289 15.062 12.036 15.062C11.721 15.062 11.405 14.967 11.152 14.714L6.92301 10.674C6.48201 10.201 6.41901 9.41197 6.92301 8.90597C7.39801 8.46497 8.18601 8.40197 8.65901 8.90597L12.036 12.157L15.476 8.90597C15.917 8.40197 16.706 8.46497 17.149 8.90597C17.591 9.41197 17.591 10.201 17.149 10.674Z" fill="#0B0F19"/>
</svg>
