<svg width="24" height="24" viewBox="0 0 24 24" fill="none" xmlns="http://www.w3.org/2000/svg">
<path d="M9.58501 11.692C12.181 11.692 13.913 11.692 13.913 11.692C13.913 11.692 16.345 11.731 16.345 9.342C16.345 6.952 16.345 5.391 16.345 5.391C16.345 5.391 16.714 3 11.936 3C7.36201 3 7.64701 4.983 7.64701 4.983L7.65301 7.038H12.016V7.655H5.92001C5.92001 7.655 2.99301 7.323 2.99301 11.937C2.99301 16.551 5.54801 16.387 5.54801 16.387H7.07201V14.246C7.07201 14.246 6.98901 11.692 9.58501 11.692ZM9.52901 5.952C9.09401 5.952 8.74401 5.601 8.74401 5.167C8.74401 4.733 9.09501 4.382 9.52901 4.382C9.96301 4.382 10.314 4.733 10.314 5.167C10.314 5.601 9.96301 5.952 9.52901 5.952Z" fill="#0B0F19"/>
<path d="M18.452 7.53202H16.928V9.67302C16.928 9.67302 17.011 12.227 14.415 12.227C11.819 12.227 10.087 12.227 10.087 12.227C10.087 12.227 7.65501 12.187 7.65501 14.577C7.65501 16.966 7.65501 18.528 7.65501 18.528C7.65501 18.528 7.28601 20.919 12.064 20.919C16.637 20.919 16.352 18.936 16.352 18.936L16.346 16.882H11.983V16.265H18.08C18.08 16.265 21.007 16.597 21.007 11.983C21.007 7.36902 18.452 7.53202 18.452 7.53202ZM14.471 17.968C14.906 17.968 15.256 18.319 15.256 18.753C15.256 19.188 14.905 19.538 14.471 19.538C14.037 19.538 13.686 19.187 13.686 18.753C13.686 18.318 14.037 17.968 14.471 17.968Z" fill="#0B0F19"/>
</svg>
