<svg width="24" height="24" viewBox="0 0 24 24" fill="none" xmlns="http://www.w3.org/2000/svg">
<path d="M19.58 11.375C19.588 11.258 19.598 11.144 19.598 11.025C19.598 7.782 16.93 5.154 13.639 5.154C11.354 5.146 9.264 6.447 8.26 8.502C7.781 8.132 7.194 7.934 6.586 7.934C5.065 7.934 3.834 9.144 3.834 10.638C3.834 10.921 3.877 11.192 3.959 11.446C2.736 12.152 1.982 13.454 1.979 14.864C1.979 17.037 3.752 18.802 5.954 18.836H17.852C17.926 18.836 18.002 18.848 18.079 18.848C20.257 18.848 22.022 17.109 22.022 14.955C22.012 13.379 21.053 11.967 19.59 11.376H19.58V11.375ZM7.355 15.842C6.957 15.481 6.705 15.041 6.607 14.524C6.572 14.343 6.554 14.161 6.554 13.98C6.554 13.24 6.824 12.633 7.363 12.153C7.9 11.673 8.584 11.431 9.412 11.431C10.266 11.431 11.066 11.751 11.775 12.388C11.951 12.546 12.127 12.726 12.289 12.924L13.201 13.995C13.359 14.212 13.525 14.394 13.701 14.555C14.172 14.977 14.678 15.187 15.109 15.187C15.474 15.187 15.779 15.075 16.021 14.851C16.23 14.661 16.357 14.401 16.384 14.121L16.392 13.998C16.394 13.88 16.374 13.764 16.337 13.651C16.148 13.133 15.649 12.796 15.099 12.813C14.646 12.813 14.197 12.966 13.703 13.444L12.896 12.494L12.808 12.386C13.521 11.695 14.222 11.436 15.175 11.436C16.013 11.436 16.7 11.673 17.212 12.148L17.226 12.162C17.765 12.636 18.027 13.251 18.027 14.004C18.027 14.181 18.013 14.369 17.978 14.532C17.876 15.043 17.626 15.47 17.238 15.833C16.842 16.196 16.345 16.432 15.81 16.51C15.624 16.534 15.435 16.548 15.222 16.548C14.359 16.548 13.546 16.235 12.857 15.61C12.662 15.433 12.482 15.238 12.32 15.034L11.406 13.969C11.263 13.767 11.101 13.575 10.918 13.406C10.455 12.981 9.941 12.78 9.49 12.78C9.361 12.78 9.23 12.798 9.101 12.831C8.906 12.882 8.724 12.98 8.578 13.12C8.346 13.336 8.213 13.64 8.213 13.959C8.213 14.283 8.326 14.559 8.565 14.784L8.579 14.797C8.829 15.024 9.142 15.135 9.505 15.135C9.968 15.135 10.419 14.973 10.905 14.496L11.706 15.434L11.794 15.533C11.069 16.236 10.366 16.498 9.452 16.498C8.614 16.498 7.927 16.26 7.401 15.785L7.355 15.842Z" fill="#0B0F19"/>
</svg>
