<svg width="24" height="24" viewBox="0 0 24 24" fill="none" xmlns="http://www.w3.org/2000/svg">
<path d="M21.62 11.108L12.889 2.379C12.386 1.877 11.571 1.877 11.066 2.379L9.257 4.19L11.556 6.49C12.093 6.311 12.705 6.431 13.13 6.857C13.56 7.287 13.678 7.906 13.495 8.44L15.709 10.657C16.247 10.471 16.865 10.592 17.292 11.019C17.893 11.619 17.893 12.588 17.292 13.188C16.693 13.788 15.726 13.788 15.126 13.188C14.677 12.738 14.564 12.075 14.789 11.526L12.715 9.463V14.9C12.861 14.971 13.001 15.069 13.122 15.19C13.717 15.791 13.717 16.758 13.122 17.356C12.523 17.957 11.548 17.957 10.948 17.356C10.349 16.757 10.349 15.791 10.948 15.192C11.1 15.042 11.27 14.928 11.452 14.853V9.363C11.271 9.287 11.099 9.177 10.952 9.029C10.498 8.575 10.389 7.911 10.622 7.355L8.362 5.084L2.375 11.066C1.875 11.57 1.875 12.386 2.375 12.89L11.106 21.619C11.609 22.123 12.424 22.123 12.927 21.619L21.617 12.93C22.124 12.429 22.124 11.612 21.62 11.108Z" fill="#0B0F19"/>
</svg>
