<svg width="24" height="24" viewBox="0 0 24 24" fill="none" xmlns="http://www.w3.org/2000/svg">
<path d="M4.28501 7.26902C4.30801 7.03702 4.22001 6.80602 4.04501 6.65002L2.27501 4.51702V4.19702H7.77301L12.023 13.517L15.759 4.19702H21V4.51602L19.485 5.96702C19.355 6.06702 19.292 6.23102 19.317 6.39202V17.058C19.292 17.22 19.355 17.383 19.485 17.483L20.964 18.934V19.253H13.528V18.934L15.057 17.447C15.209 17.297 15.209 17.252 15.209 17.023V8.40102L10.95 19.218H10.375L5.41701 8.40102V15.65C5.37601 15.955 5.47701 16.262 5.69201 16.483L7.68401 18.9V19.219H2.03601V18.9L4.02801 16.483C4.24001 16.262 4.33601 15.953 4.28501 15.65V7.26902Z" fill="#0B0F19"/>
</svg>
