<svg width="24" height="24" viewBox="0 0 24 24" fill="none" xmlns="http://www.w3.org/2000/svg">
<path d="M20.288 10.051C21.2307 10.051 21.995 9.28677 21.995 8.34402C21.995 7.40127 21.2307 6.63702 20.288 6.63702C19.3452 6.63702 18.581 7.40127 18.581 8.34402C18.581 9.28677 19.3452 10.051 20.288 10.051Z" fill="#0B0F19"/>
<path d="M18.581 11.513H21.994V15.169C21.994 16.111 21.229 16.875 20.287 16.875H18.581V11.513ZM2.00598 4.20001V19.8L13.219 21.779V2.22101L2.00598 4.20001ZM10.294 9.61101L8.34398 9.66001V15.412H6.88098V9.75701L4.93198 9.85501V8.53901L10.294 8.24701V9.61101ZM14.193 10.05V18.338H16.143C16.951 18.338 17.606 17.683 17.606 16.876V10.05H14.193ZM15.656 5.17501C15.07 5.17501 14.551 5.43901 14.193 5.84801V8.40301C14.55 8.81201 15.07 9.07601 15.656 9.07601C16.733 9.07601 17.606 8.20201 17.606 7.12601C17.606 6.05001 16.733 5.17501 15.656 5.17501Z" fill="#0B0F19"/>
</svg>
