<svg width="24" height="24" viewBox="0 0 24 24" fill="none" xmlns="http://www.w3.org/2000/svg">
<path d="M10.198 9.127L13.507 4.328C14.135 3.426 14.941 2.974 15.934 2.974C16.74 2.974 17.44 3.261 18.031 3.835C18.621 4.409 18.916 5.095 18.916 5.894C18.916 6.484 18.761 7.007 18.447 7.457L15.464 11.797L19.113 16.424C19.476 16.885 19.66 17.424 19.66 18.041C19.66 18.857 19.374 19.559 18.8 20.146C18.226 20.732 17.531 21.025 16.716 21.025C15.821 21.025 15.139 20.734 14.669 20.152L10.2 14.574V17.648C10.2 18.527 10.048 19.209 9.74298 19.697C9.18798 20.582 8.38698 21.025 7.32598 21.025C6.36298 21.025 5.61498 20.697 5.08598 20.048C4.58998 19.446 4.34198 18.652 4.34198 17.661V6.258C4.34198 5.322 4.59498 4.549 5.09698 3.94C5.62198 3.297 6.35198 2.975 7.28298 2.975C8.16998 2.975 8.90698 3.297 9.49898 3.94C9.82798 4.297 10.036 4.657 10.124 5.022C10.177 5.249 10.203 5.668 10.203 6.288V9.128H10.198V9.127Z" fill="#0B0F19"/>
</svg>
