<svg width="24" height="24" viewBox="0 0 24 24" fill="none" xmlns="http://www.w3.org/2000/svg">
<path d="M12 2C17.522 2 22 6.478 22 12C22 17.522 17.522 22 12 22C6.478 22 2 17.522 2 12C2 6.478 6.478 2 12 2ZM10.013 15.332C10.159 15.869 10.143 16.371 9.992 16.825L9.938 16.975C9.917 17.025 9.895 17.075 9.873 17.121C9.757 17.362 9.602 17.587 9.411 17.796C8.829 18.429 8.017 18.668 7.669 18.467C7.294 18.248 7.481 17.355 8.156 16.642C8.882 15.877 9.922 15.384 9.922 15.384V15.382L10.013 15.332ZM18.271 6.281C17.819 4.504 14.874 3.919 12.086 4.91C10.43 5.499 8.633 6.425 7.343 7.633C5.807 9.067 5.563 10.317 5.663 10.839C6.018 12.682 8.544 13.887 9.583 14.781V14.786C9.276 14.935 7.035 16.06 6.511 17.224C5.948 18.449 6.599 19.325 7.024 19.436C8.337 19.799 9.686 19.136 10.412 18.062C11.111 17.011 11.05 15.662 10.749 14.999C11.162 14.887 11.648 14.837 12.273 14.913C14.024 15.112 14.374 16.213 14.297 16.663C14.223 17.112 13.861 17.374 13.736 17.449C13.61 17.525 13.573 17.55 13.585 17.6C13.598 17.674 13.661 17.674 13.76 17.663C13.898 17.638 14.674 17.288 14.711 16.436C14.748 15.362 13.723 14.163 11.898 14.186C11.148 14.2 10.672 14.262 10.335 14.4C10.31 14.362 10.284 14.337 10.247 14.312C9.122 13.099 7.034 12.249 7.122 10.637C7.147 10.049 7.359 8.5 11.122 6.625C14.21 5.087 16.673 5.513 17.099 6.45C17.709 7.786 15.785 10.275 12.573 10.637C11.348 10.775 10.711 10.3 10.547 10.124C10.373 9.936 10.349 9.924 10.286 9.963C10.185 10.013 10.248 10.175 10.286 10.276C10.386 10.525 10.773 10.964 11.449 11.188C12.036 11.376 13.473 11.487 15.199 10.813C17.136 10.064 18.648 7.975 18.211 6.225L18.271 6.281Z" fill="#0B0F19"/>
</svg>
