<svg width="24" height="24" viewBox="0 0 24 24" fill="none" xmlns="http://www.w3.org/2000/svg">
<path d="M19.891 7.78801C20.591 9.06901 20.99 10.538 20.99 12.101C20.99 15.416 19.193 18.315 16.52 19.872L19.266 11.933C19.779 10.651 19.95 9.62401 19.95 8.71401C19.949 8.37501 19.928 8.06301 19.891 7.78801ZM13.24 7.87501C13.779 7.85001 14.266 7.78701 14.266 7.78701C14.751 7.72401 14.694 7.01201 14.21 7.03801C14.21 7.03801 12.747 7.15001 11.81 7.15001C10.923 7.15001 9.435 7.02501 9.435 7.02501C8.948 7.00101 8.885 7.73801 9.374 7.76301C9.374 7.76301 9.823 7.81501 10.312 7.83801L11.711 11.676L9.736 17.575L6.462 7.85101C7.003 7.82501 7.49 7.76801 7.49 7.76801C7.977 7.70501 7.92 6.99301 7.435 7.02101C7.435 7.02101 5.98 7.13601 5.04 7.13601C4.873 7.13601 4.675 7.12901 4.465 7.12301C6.093 4.72601 8.862 3.11301 12 3.11301C14.341 3.11301 16.471 4.00701 18.071 5.47301C18.033 5.47101 17.995 5.46501 17.954 5.46501C17.071 5.46501 16.444 6.23501 16.444 7.06101C16.444 7.80201 16.871 8.43001 17.327 9.16901C17.67 9.77001 18.069 10.539 18.069 11.65C18.069 12.413 17.774 13.312 17.384 14.549L16.488 17.536L13.238 7.86101L13.24 7.87501ZM12 21.087C11.117 21.087 10.266 20.96 9.46 20.723L12.157 12.885L14.92 20.457C14.941 20.501 14.962 20.542 14.985 20.581C14.051 20.908 13.047 21.089 12 21.089V21.087ZM3.01 12.101C3.01 10.797 3.289 9.55901 3.788 8.44301L8.075 20.192C5.078 18.734 3.01 15.66 3.01 12.101ZM12 2.10101C6.487 2.10101 2 6.58801 2 12.101C2 17.614 6.487 22.101 12 22.101C17.513 22.101 22 17.614 22 12.101C22 6.58801 17.513 2.10101 12 2.10101Z" fill="#0B0F19"/>
</svg>
