<svg width="24" height="24" viewBox="0 0 24 24" fill="none" xmlns="http://www.w3.org/2000/svg">
<path d="M7.53299 12.249C7.52199 14.234 8.97799 15.417 11.301 14.879V9.61799C8.94899 8.90199 7.54299 10.351 7.53299 12.249ZM11.372 2.01099H14.571V17.154C11.505 17.655 8.56699 17.973 6.46699 16.799C3.76199 15.286 3.54399 10.48 5.68499 8.33899C6.76999 7.25399 8.95599 6.48899 11.301 6.98799V2.22499C11.295 2.12399 11.289 2.02299 11.372 2.01099ZM19.761 5.35299H16.562V2.01099H19.761V5.35299Z" fill="#0B0F19"/>
<path d="M19.761 7.04401C19.758 9.40001 19.758 11.092 19.758 13.955C19.622 16.768 19.654 19.007 18.623 20.353C18.42 20.619 17.989 21.005 17.628 21.277C17.325 21.505 16.747 21.968 16.42 21.988C16.089 22.009 15.24 21.529 14.856 21.348C14.351 21.111 13.885 20.795 13.363 20.638C14.581 19.884 15.735 19.318 16.207 17.794C16.617 16.468 16.562 14.547 16.562 12.675C16.562 10.826 16.571 8.67701 16.571 7.04501L19.761 7.04401Z" fill="#0B0F19"/>
</svg>
