<svg width="24" height="24" viewBox="0 0 24 24" fill="none" xmlns="http://www.w3.org/2000/svg">
<path d="M21.634 11.138C21.608 10.963 21.574 10.852 21.574 10.852C21.574 10.852 21.507 10.936 21.387 11.088C21.355 10.659 21.278 10.229 21.159 9.81398C21.008 9.29198 20.812 8.78398 20.568 8.30298C20.418 7.98098 20.239 7.66798 20.028 7.38298C19.919 7.21298 19.825 7.08698 19.807 7.06098C19.445 6.47198 19.04 6.11398 18.558 5.43998C18.254 4.92598 18.044 4.35298 17.943 3.76098C17.807 4.11498 17.707 4.48698 17.64 4.85798C17.157 4.36898 16.727 4.01198 16.472 3.77798C15.205 2.59498 15.359 1.98798 15.359 1.98798C15.359 1.98798 12.995 4.62298 14.017 7.36498C14.371 8.29398 14.981 9.11398 15.781 9.71198C16.77 10.525 17.833 11.164 18.39 12.813C17.943 11.943 17.259 11.225 16.423 10.726C16.676 11.328 16.803 11.958 16.794 12.61C16.794 15.075 14.795 17.075 12.318 17.075C11.989 17.075 11.651 17.042 11.333 16.966C10.943 16.89 10.57 16.765 10.226 16.587C9.70402 16.274 9.24602 15.861 8.89202 15.361V15.354C8.93402 15.37 8.95902 15.378 8.96702 15.378C9.15402 15.445 9.33902 15.496 9.53402 15.531C10.292 15.69 11.078 15.597 11.779 15.268C12.487 14.872 12.918 14.583 13.263 14.694C13.611 14.803 13.871 14.474 13.636 14.129C13.213 13.581 12.521 13.317 11.846 13.437C11.135 13.538 10.486 14.036 9.56602 13.554C9.49902 13.522 9.44902 13.488 9.39002 13.453C9.33002 13.411 9.59202 13.504 9.52402 13.462C9.32102 13.359 9.12802 13.251 8.94202 13.115C8.93302 13.106 9.08702 13.158 9.06802 13.148C8.83302 12.988 8.62002 12.778 8.46002 12.534C8.30102 12.238 8.28202 11.875 8.42002 11.561C8.51202 11.401 8.63802 11.283 8.80002 11.207C8.91702 11.267 8.99202 11.307 8.99202 11.307C8.99202 11.307 8.93302 11.207 8.90702 11.156C8.91702 11.148 8.92602 11.156 8.94202 11.148C9.04402 11.19 9.27102 11.307 9.39702 11.384C9.48302 11.424 9.55002 11.494 9.60902 11.57C9.60902 11.57 9.65202 11.553 9.61802 11.462C9.57502 11.351 9.49902 11.257 9.39702 11.199H9.41502C9.50802 11.25 9.59302 11.301 9.67602 11.366C9.75202 11.18 9.79502 10.998 9.78802 10.803C9.79502 10.695 9.77702 10.583 9.74502 10.49C9.71002 10.423 9.76202 10.397 9.82002 10.465C9.81002 10.413 9.79502 10.363 9.76902 10.313C9.76902 10.313 9.80302 10.262 9.82002 10.251C9.86302 10.211 9.90402 10.169 9.95602 10.144C10.249 9.95898 10.555 9.79698 10.876 9.66998C11.136 9.56298 11.348 9.46898 11.391 9.44198C11.458 9.39998 11.518 9.35798 11.577 9.30598C11.797 9.12098 11.941 8.86798 11.99 8.58798C12 8.54798 12 8.51398 12 8.48098V8.41198C11.966 8.26798 11.721 8.16698 10.447 8.03998C10 7.97498 9.63702 7.63398 9.53602 7.18798V7.19498C9.51902 7.23898 9.50102 7.28798 9.48502 7.34098C9.50102 7.28798 9.51802 7.24698 9.53602 7.19498V7.18798C9.77902 6.55398 10.219 6.00598 10.785 5.63498C10.816 5.60998 10.659 5.64198 10.692 5.61798C10.794 5.56698 10.903 5.51498 11.021 5.47298C11.08 5.45498 10.776 5.33898 10.506 5.36298C10.344 5.37198 10.184 5.41398 10.033 5.47298C10.1 5.42398 10.285 5.35498 10.243 5.35498C9.89802 5.41398 9.56802 5.54198 9.27302 5.71798C9.27302 5.68498 9.28302 5.65798 9.29102 5.63498C9.05302 5.73598 8.84202 5.89798 8.69102 6.09898V5.98698C8.58202 6.07398 8.48802 6.16798 8.39602 6.26698H8.38802C7.68702 5.99798 6.92602 5.92898 6.18302 6.08298L6.17502 6.07398H6.18302C6.03302 5.95598 5.89902 5.80298 5.79602 5.63498L5.78602 5.64198L5.77102 5.62598C5.71802 5.55798 5.67802 5.47398 5.62402 5.37998C5.58402 5.31998 5.55002 5.24398 5.50802 5.16998C5.50802 5.16998 5.50802 5.16198 5.50002 5.16198C5.49002 5.16198 5.47402 5.23898 5.46702 5.21098C5.34002 4.87498 5.27202 4.51198 5.28802 4.15798H5.28002C5.07002 4.30098 4.90802 4.50298 4.83202 4.74698C4.79102 4.83298 4.76502 4.87498 4.74002 4.92598V4.89798L4.76402 4.77298C4.75802 4.78198 4.75802 4.78998 4.74702 4.79798C4.68902 4.86598 4.63902 4.94098 4.59702 5.02798C4.55302 5.10298 4.52002 5.18498 4.49402 5.27098V5.22898C4.49402 5.19498 4.50302 5.14398 4.49402 5.16198L4.48502 5.18498C4.21502 5.78598 4.03902 6.42798 3.97902 7.08698C3.96302 7.20498 3.96302 7.31498 3.96302 7.42398V7.44198C3.77002 7.65098 3.60002 7.87998 3.44902 8.12498C2.95802 8.95298 2.59502 9.84698 2.36702 10.784C2.52802 10.43 2.72102 10.083 2.95002 9.76298C2.51102 10.869 2.29102 12.034 2.29102 13.217C2.36702 12.871 2.46002 12.533 2.56902 12.195C2.50102 13.588 2.77202 14.982 3.35602 16.257C4.13902 18.013 5.43902 19.49 7.09402 20.486C7.76102 20.942 8.49602 21.298 9.26302 21.534C9.36502 21.567 9.47602 21.608 9.57602 21.643C9.54202 21.625 9.51702 21.608 9.48402 21.601C10.396 21.872 11.348 22.014 12.302 22.014C15.689 22.014 16.803 20.722 16.912 20.596C17.072 20.445 17.215 20.265 17.308 20.055C17.376 20.031 17.435 20.005 17.503 19.971L17.544 19.955C17.595 19.929 17.619 19.921 17.619 19.921C18.136 19.677 18.616 19.38 19.056 19.025C19.713 18.552 20.178 17.859 20.382 17.074C20.507 16.788 20.507 16.474 20.406 16.18C20.456 16.096 20.5 16.019 20.507 16.002C21.234 14.836 21.648 13.503 21.706 12.126V12.118V12.01C21.709 11.722 21.683 11.424 21.634 11.138Z" fill="#0B0F19"/>
</svg>
