<svg width="24" height="24" viewBox="0 0 24 24" fill="none" xmlns="http://www.w3.org/2000/svg">
<path d="M20.9469 8.30502C20.9359 7.54802 20.7959 6.79702 20.5279 6.08902C20.0589 4.88002 19.1039 3.92402 17.8949 3.45602C17.1959 3.19302 16.4569 3.05202 15.7089 3.03602C14.7469 2.99302 14.4419 2.98102 11.9999 2.98102C9.55795 2.98102 9.24495 2.98102 8.28995 3.03602C7.54295 3.05202 6.80395 3.19302 6.10495 3.45602C4.89595 3.92402 3.93995 4.88002 3.47195 6.08902C3.20895 6.78802 3.06695 7.52702 3.05295 8.27402C3.00995 9.23702 2.99695 9.54202 2.99695 11.984C2.99695 14.426 2.99695 14.738 3.05295 15.694C3.06795 16.442 3.20895 17.18 3.47195 17.881C3.94095 19.089 4.89595 20.045 6.10595 20.513C6.80195 20.785 7.54095 20.939 8.29095 20.963C9.25395 21.006 9.55895 21.019 12.0009 21.019C14.4429 21.019 14.7559 21.019 15.7109 20.963C16.4579 20.948 17.1969 20.807 17.8969 20.544C19.1059 20.075 20.0609 19.119 20.5299 17.911C20.7929 17.211 20.9339 16.473 20.9489 15.724C20.9919 14.762 21.0049 14.457 21.0049 12.014C21.0029 9.57202 21.0029 9.26202 20.9469 8.30502ZM11.9939 16.602C9.43995 16.602 7.37095 14.533 7.37095 11.979C7.37095 9.42502 9.43995 7.35602 11.9939 7.35602C14.5459 7.35602 16.6169 9.42502 16.6169 11.979C16.6169 14.533 14.5459 16.602 11.9939 16.602ZM16.8009 8.26302C16.2039 8.26302 15.7229 7.78102 15.7229 7.18502C15.7229 6.58902 16.2039 6.10702 16.8009 6.10702C17.3959 6.10702 17.8779 6.58902 17.8779 7.18502C17.8779 7.78102 17.3959 8.26302 16.8009 8.26302Z" fill="#0B0F19"/>
<path d="M11.994 14.982C13.6525 14.982 14.997 13.6375 14.997 11.979C14.997 10.3205 13.6525 8.97601 11.994 8.97601C10.3355 8.97601 8.99097 10.3205 8.99097 11.979C8.99097 13.6375 10.3355 14.982 11.994 14.982Z" fill="#0B0F19"/>
</svg>
