<svg width="24" height="24" viewBox="0 0 24 24" fill="none" xmlns="http://www.w3.org/2000/svg">
<path d="M20.892 9.88902C20.886 9.86002 20.877 9.83002 20.867 9.80202L18.763 3.32302C18.647 2.98102 18.325 2.75102 17.963 2.75302C17.602 2.75102 17.282 2.98402 17.174 3.32802L15.168 9.50302H8.83399L6.82599 3.32702C6.71799 2.98402 6.39799 2.75102 6.03999 2.75202H6.03399C5.67299 2.75202 5.35199 2.98402 5.23899 3.32702L3.13299 9.81502C3.13299 9.82002 3.12799 9.82502 3.12599 9.83102L2.05899 13.112C1.89799 13.606 2.07199 14.146 2.49399 14.452L11.721 21.158C11.888 21.279 12.114 21.278 12.279 21.155L21.508 14.452C21.927 14.146 22.104 13.606 21.943 13.112L20.892 9.88902ZM17.97 3.93602L19.779 9.50202H16.16L17.97 3.93602ZM6.02999 3.93602L7.84199 9.50202H4.22799L6.02999 3.93602ZM3.04799 13.688C2.95799 13.624 2.92099 13.508 2.95499 13.404L3.74799 10.967L9.56499 18.423L3.04799 13.688ZM4.54699 10.449H8.14799L10.721 18.365L4.54699 10.449ZM11.999 19.243L9.14299 10.445H14.861L13.069 15.96L11.999 19.243ZM13.281 18.366L15.748 10.778L15.854 10.449H19.458L13.872 17.605L13.281 18.366ZM20.952 13.688L14.433 18.421L14.455 18.392L20.249 10.967L21.041 13.403C21.078 13.509 21.04 13.624 20.952 13.688Z" fill="#0B0F19"/>
</svg>
