<svg width="24" height="24" viewBox="0 0 24 24" fill="none" xmlns="http://www.w3.org/2000/svg">
<path d="M13.646 10.237C13.589 10.205 13.486 10.189 13.333 10.189V13.731C13.534 13.731 13.657 13.69 13.704 13.609C13.751 13.528 13.774 13.308 13.774 12.949V10.857C13.774 10.613 13.766 10.457 13.751 10.388C13.736 10.32 13.701 10.27 13.646 10.237ZM17.145 11.419C17.063 11.419 17.008 11.45 16.983 11.51C16.958 11.571 16.946 11.724 16.946 11.97V13.396C16.946 13.633 16.96 13.785 16.987 13.852C17.016 13.918 17.073 13.952 17.155 13.952C17.241 13.952 17.354 13.917 17.38 13.849C17.407 13.78 17.419 13.615 17.419 13.354V11.97C17.419 11.742 17.405 11.593 17.376 11.523C17.344 11.454 17.229 11.419 17.145 11.419Z" fill="#0B0F19"/>
<path d="M20 3H4C3.447 3 3 3.448 3 4V20C3 20.552 3.447 21 4 21H20C20.553 21 21 20.552 21 20V4C21 3.448 20.553 3 20 3ZM6.631 14.663H5.229V9.266H6.631V14.663ZM11.453 14.663H10.23L10.224 11.02L9.734 14.663H8.859L8.342 11.1L8.338 14.663H7.111V9.266H8.93C8.981 9.593 9.037 9.976 9.096 10.416L9.297 11.787L9.621 9.266H11.453V14.663ZM15.117 13.062C15.117 13.546 15.09 13.87 15.045 14.032C15 14.195 14.92 14.323 14.807 14.415C14.692 14.507 14.553 14.572 14.385 14.608C14.219 14.645 13.967 14.663 13.631 14.663H11.932V9.266H12.979C13.657 9.266 14.049 9.297 14.288 9.359C14.528 9.421 14.71 9.523 14.833 9.665C14.958 9.807 15.036 9.965 15.067 10.14C15.098 10.314 15.118 10.656 15.118 11.166V13.062H15.117ZM18.771 13.424C18.771 13.748 18.748 13.989 18.705 14.147C18.66 14.306 18.56 14.443 18.396 14.56C18.236 14.676 18.046 14.734 17.824 14.734C17.666 14.734 17.459 14.699 17.322 14.63C17.183 14.561 17.058 14.457 16.945 14.318L16.857 14.662H15.595V9.266H16.945V11.021C17.056 10.892 17.181 10.795 17.32 10.732C17.457 10.668 17.664 10.636 17.824 10.636C18.01 10.636 18.172 10.665 18.308 10.723C18.445 10.781 18.546 10.861 18.619 10.966C18.691 11.07 18.734 11.172 18.748 11.272C18.764 11.372 18.771 11.585 18.771 11.91V13.424Z" fill="#0B0F19"/>
</svg>
