<svg width="24" height="24" viewBox="0 0 24 24" fill="none" xmlns="http://www.w3.org/2000/svg">
<path d="M15.332 8.668C17.172 8.668 18.664 7.175 18.664 5.337C18.664 3.498 17.172 2.005 15.332 2.005H12H8.668C6.828 2.005 5.336 3.498 5.336 5.337C5.336 7.175 6.828 8.668 8.668 8.668C6.828 8.668 5.336 10.161 5.336 12.001C5.336 13.84 6.828 15.333 8.668 15.333C6.828 15.333 5.336 16.826 5.336 18.665C5.336 20.505 6.828 21.997 8.668 21.997C10.508 21.997 12 20.503 12 18.664V15.332V12V8.668H15.332Z" fill="#0B0F19"/>
<path d="M15.332 15.332C17.1722 15.332 18.664 13.8402 18.664 12C18.664 10.1598 17.1722 8.66803 15.332 8.66803C13.4918 8.66803 12 10.1598 12 12C12 13.8402 13.4918 15.332 15.332 15.332Z" fill="#0B0F19"/>
</svg>
