<svg width="24" height="24" viewBox="0 0 24 24" fill="none" xmlns="http://www.w3.org/2000/svg">
<path d="M7.37897 14.791C7.38297 14.801 7.47697 15.06 7.52997 15.187C7.82497 15.884 8.24897 16.513 8.78797 17.052C9.32697 17.591 9.95497 18.015 10.654 18.311C11.379 18.617 12.148 18.772 12.94 18.772C13.732 18.772 14.501 18.617 15.225 18.311C15.924 18.015 16.552 17.591 17.092 17.052C17.629 16.513 18.054 15.884 18.349 15.186C18.657 14.462 18.81 13.693 18.81 12.901C18.81 12.108 18.657 11.338 18.349 10.614C18.054 9.915 17.629 9.289 17.092 8.75C16.552 8.21 15.924 7.787 15.225 7.491C14.501 7.185 13.733 7.03 12.94 7.03C12.138 7.03 11.336 7.189 10.622 7.491C10.052 7.732 9.08597 8.353 8.51997 8.937L8.51797 8.939V4.107H16.635C16.93 4.104 16.93 3.69 16.93 3.557C16.93 3.42 16.93 3.008 16.634 3.004H7.85697C7.61797 3.004 7.46897 3.203 7.46897 3.388V10.189C7.46897 10.41 7.74197 10.568 7.99597 10.623C8.49197 10.727 8.60597 10.57 8.72797 10.401L8.74297 10.38C8.92997 10.105 9.50997 9.522 9.51397 9.517C10.419 8.611 11.628 8.114 12.92 8.114C14.204 8.114 15.41 8.611 16.314 9.517C17.222 10.422 17.722 11.625 17.722 12.902C17.722 14.182 17.224 15.385 16.322 16.287C15.43 17.179 14.185 17.69 12.906 17.69C12.04 17.69 11.204 17.458 10.486 17.022L10.49 12.885C10.49 12.333 10.728 11.734 11.13 11.281C11.589 10.764 12.221 10.478 12.908 10.478C13.575 10.478 14.199 10.732 14.662 11.192C15.122 11.647 15.376 12.256 15.376 12.903C15.376 14.287 14.289 15.369 12.902 15.369C12.634 15.369 12.149 15.252 12.129 15.246C11.848 15.162 11.729 15.551 11.69 15.681C11.539 16.173 11.767 16.271 11.812 16.285C12.26 16.423 12.553 16.449 12.936 16.449C14.895 16.449 16.487 14.855 16.487 12.896C16.487 10.953 14.895 9.37 12.939 9.37C11.98 9.37 11.079 9.737 10.403 10.403C9.75897 11.035 9.38997 11.881 9.38997 12.72V12.741C9.38597 12.846 9.38597 15.324 9.38497 16.139L9.37997 16.133C9.01197 15.726 8.64897 15.104 8.40697 14.465C8.30997 14.215 8.09797 14.259 7.80597 14.349C7.67897 14.389 7.29197 14.508 7.37697 14.787L7.37897 14.791ZM11.551 13.819C11.553 13.937 11.662 14.042 11.726 14.105L11.747 14.124C11.858 14.234 11.964 14.288 12.062 14.288C12.143 14.288 12.192 14.251 12.21 14.234C12.26 14.188 12.814 13.626 12.868 13.572L13.486 14.19C13.544 14.254 13.606 14.287 13.678 14.288C13.778 14.288 13.885 14.23 13.998 14.114C14.265 13.842 14.132 13.694 14.067 13.624L13.439 12.994L14.094 12.336C14.238 12.181 14.111 12.016 13.983 11.89C13.8 11.706 13.624 11.66 13.509 11.763L12.859 12.415L12.202 11.757C12.167 11.724 12.123 11.706 12.074 11.706C11.987 11.706 11.883 11.766 11.766 11.883C11.564 12.084 11.52 12.224 11.625 12.336L12.282 12.992L11.629 13.647C11.578 13.701 11.55 13.759 11.551 13.819ZM12.985 4.928C11.932 4.928 10.814 5.139 9.99297 5.494C9.90397 5.528 9.85197 5.6 9.84197 5.699C9.83097 5.792 9.85497 5.915 9.91797 6.076C9.96897 6.207 10.105 6.554 10.367 6.452C11.209 6.132 12.138 5.954 12.985 5.954C13.945 5.954 14.877 6.142 15.753 6.512C16.449 6.808 17.107 7.233 17.821 7.853C17.873 7.899 17.927 7.921 17.986 7.921C18.124 7.921 18.257 7.784 18.372 7.655C18.563 7.441 18.693 7.263 18.507 7.086C17.823 6.44 17.076 5.957 16.153 5.566C15.15 5.142 14.085 4.928 12.985 4.928ZM18.653 17.914C18.526 17.788 18.418 17.715 18.323 17.686C18.228 17.659 18.143 17.679 18.076 17.745L18.013 17.807C17.362 18.459 16.603 18.971 15.758 19.329C14.883 19.699 13.953 19.888 12.995 19.888C12.035 19.888 11.106 19.7 10.232 19.329C9.38597 18.971 8.62797 18.459 7.97497 17.807C7.29597 17.128 6.78397 16.369 6.45397 15.552C6.13197 14.755 6.02597 14.156 5.99197 13.956C5.98797 13.938 5.98697 13.925 5.98297 13.915C5.93897 13.683 5.72597 13.666 5.41897 13.713C5.29197 13.732 4.90197 13.791 4.93997 14.071L4.94197 14.077C5.04597 14.723 5.22497 15.359 5.48097 15.964C5.89197 16.935 6.47997 17.807 7.22997 18.555C7.97597 19.303 8.84897 19.892 9.81997 20.302C10.826 20.728 11.893 20.944 12.995 20.944C14.096 20.944 15.162 20.728 16.167 20.301C17.14 19.89 18.011 19.302 18.76 18.554C18.762 18.553 18.802 18.512 18.825 18.488C18.908 18.398 18.979 18.24 18.653 17.914Z" fill="#0B0F19"/>
</svg>
