<svg width="24" height="24" viewBox="0 0 24 24" fill="none" xmlns="http://www.w3.org/2000/svg">
<path d="M10.013 13.738L7.75902 14.125C8.07802 15.036 8.71502 15.833 9.51202 16.356L10.377 14.261C10.422 14.193 10.422 14.102 10.399 14.033C10.377 13.853 10.195 13.738 10.013 13.738ZM10.878 10.824C11.083 10.824 11.265 10.665 11.265 10.46L11.379 8.18301L10.923 8.27401C10.126 8.45601 9.39702 8.86601 8.80502 9.43601L10.695 10.779C10.764 10.801 10.81 10.824 10.878 10.824ZM9.87602 12.304C10.013 12.144 9.99002 11.917 9.83102 11.78L8.14602 10.277C7.64502 11.12 7.41702 12.099 7.48502 13.055L9.69402 12.418C9.78502 12.395 9.83102 12.372 9.87602 12.304ZM11.333 13.101L11.949 13.397L12.563 13.101L12.723 12.44L12.29 11.894H11.607L11.174 12.44L11.333 13.101ZM12.677 10.665C12.791 10.824 13.018 10.847 13.177 10.756L15.044 9.43601C14.361 8.75301 13.473 8.32001 12.471 8.20601L12.608 10.506C12.609 10.573 12.632 10.619 12.677 10.665Z" fill="#0B0F19"/>
<path d="M21.944 14.103L20.214 6.65701C20.101 6.29301 19.827 5.99701 19.485 5.81501L12.541 2.49001C12.359 2.39901 12.154 2.37601 11.972 2.37601C11.79 2.37601 11.585 2.37601 11.403 2.42101L4.45699 5.76901C4.11499 5.92801 3.86499 6.22401 3.77399 6.61101L2.06599 14.103C1.99799 14.49 2.08899 14.877 2.31599 15.196L7.12099 21.139C7.39399 21.412 7.78099 21.595 8.16799 21.618H15.819C16.229 21.663 16.616 21.481 16.867 21.139L21.672 15.196C21.899 14.877 21.99 14.49 21.944 14.103ZM19.099 14.604C19.053 14.604 19.031 14.604 18.985 14.581C18.963 14.558 18.963 14.558 18.94 14.558C18.894 14.558 18.872 14.536 18.848 14.536C18.757 14.513 18.689 14.468 18.598 14.422C18.552 14.422 18.507 14.4 18.461 14.377H18.439C18.21 14.286 17.96 14.218 17.71 14.172H17.688C17.62 14.172 17.551 14.195 17.506 14.24C17.506 14.24 17.506 14.263 17.483 14.263L17.3 14.239C16.89 15.537 16.002 16.63 14.84 17.336L14.908 17.518C14.908 17.518 14.886 17.518 14.886 17.54C14.84 17.608 14.84 17.7 14.864 17.768C14.955 17.996 15.069 18.223 15.228 18.428V18.473C15.274 18.519 15.296 18.541 15.319 18.587C15.387 18.655 15.433 18.724 15.478 18.815C15.501 18.837 15.524 18.86 15.524 18.883C15.524 18.883 15.546 18.883 15.546 18.905C15.592 19.019 15.592 19.133 15.569 19.247C15.546 19.361 15.455 19.452 15.364 19.497C15.296 19.519 15.25 19.542 15.181 19.542C14.999 19.542 14.839 19.428 14.748 19.269C14.726 19.269 14.726 19.247 14.726 19.247C14.704 19.224 14.704 19.202 14.68 19.179C14.635 19.111 14.612 19.02 14.589 18.929L14.543 18.792V18.77C14.475 18.52 14.361 18.291 14.247 18.064C14.202 17.996 14.134 17.95 14.065 17.927C14.065 17.904 14.065 17.904 14.042 17.904L13.951 17.745C13.723 17.813 13.472 17.904 13.222 17.95C12.812 18.064 12.402 18.109 11.993 18.109C11.31 18.109 10.649 17.995 10.012 17.745L9.92099 17.927C9.92099 17.95 9.92099 17.95 9.89799 17.95C9.82999 17.972 9.76199 18.018 9.71599 18.087C9.60199 18.315 9.48799 18.542 9.41999 18.793L9.37499 18.93C9.35199 19.021 9.30699 19.089 9.28399 19.18C9.26199 19.203 9.23899 19.225 9.23899 19.248C9.21599 19.248 9.21599 19.27 9.21599 19.27C9.12499 19.43 8.96599 19.543 8.78299 19.543C8.73799 19.543 8.66899 19.52 8.62399 19.498C8.41899 19.384 8.32799 19.111 8.44199 18.883C8.46499 18.883 8.46499 18.86 8.46499 18.86C8.48699 18.837 8.48699 18.815 8.50999 18.792C8.57799 18.701 8.62399 18.61 8.66899 18.564C8.71399 18.518 8.73699 18.496 8.75999 18.45V18.427C8.89699 18.222 9.03299 17.994 9.12399 17.767C9.14699 17.699 9.14699 17.607 9.10099 17.539C9.10099 17.539 9.07899 17.539 9.07899 17.517L9.19299 17.357C8.96499 17.243 8.78299 17.107 8.57799 16.947C7.68999 16.264 7.05199 15.33 6.71099 14.283L6.50599 14.305C6.50599 14.305 6.50599 14.283 6.48299 14.283C6.43799 14.237 6.36899 14.215 6.30099 14.215H6.27899C6.00599 14.26 5.77799 14.329 5.52799 14.42H5.50399C5.45899 14.42 5.41299 14.443 5.36699 14.466C5.29899 14.488 5.20799 14.534 5.11699 14.557C5.09499 14.557 5.02599 14.535 5.02599 14.557C5.02599 14.58 5.02599 14.58 5.00299 14.58C4.95799 14.603 4.93499 14.603 4.88899 14.603C4.68399 14.625 4.47899 14.489 4.43299 14.284C4.38799 14.034 4.54699 13.805 4.79699 13.76C4.81999 13.737 4.81999 13.737 4.84299 13.737C4.88799 13.737 4.91099 13.715 4.93399 13.715C5.02499 13.715 5.11599 13.692 5.20699 13.692C5.25199 13.67 5.29799 13.67 5.34399 13.67C5.61699 13.647 5.86699 13.602 6.11799 13.533C6.18599 13.487 6.25499 13.442 6.27799 13.373C6.27799 13.373 6.29999 13.373 6.29999 13.351L6.48199 13.305C6.27699 12.007 6.57299 10.687 7.27899 9.57101C7.30099 9.52601 7.32399 9.50301 7.34699 9.45701L7.21599 9.32501C7.21499 9.33201 7.21399 9.33801 7.21199 9.34401V9.32101L7.21599 9.32501C7.22599 9.26001 7.18499 9.18001 7.14399 9.13901C6.96199 8.95701 6.73399 8.82001 6.50599 8.68401C6.46099 8.66101 6.41499 8.63801 6.36999 8.61501C6.27899 8.57001 6.18799 8.52401 6.11899 8.47901C6.09699 8.47901 6.05099 8.43401 6.05099 8.43401C6.05099 8.43401 6.05099 8.41101 6.02899 8.41101C5.84599 8.25101 5.79999 7.97801 5.93699 7.77201C6.00499 7.65801 6.11899 7.61301 6.25599 7.61301C6.36999 7.61301 6.48399 7.65801 6.57499 7.72701C6.57499 7.72701 6.57499 7.72701 6.59799 7.75001C6.61999 7.77201 6.64299 7.77201 6.66599 7.79501C6.73399 7.86401 6.77999 7.93201 6.84799 8.00001C6.87099 8.02201 6.91599 8.04501 6.93899 8.09101C7.09799 8.27301 7.30299 8.45501 7.50799 8.61501C7.55299 8.63701 7.59899 8.66001 7.64499 8.66001C7.68999 8.66001 7.71299 8.63701 7.73599 8.63701H7.75899L7.89599 8.72801C8.64699 7.93101 9.62599 7.36201 10.697 7.13401C10.97 7.08801 11.22 7.04301 11.471 7.02001L11.494 6.83801V6.79301C11.562 6.74801 11.585 6.67901 11.608 6.61101C11.608 6.33801 11.608 6.08701 11.563 5.83701V5.81401C11.563 5.76901 11.563 5.72301 11.54 5.67701C11.517 5.58601 11.495 5.49501 11.495 5.40401V5.29101C11.495 5.17701 11.54 5.06301 11.632 4.97201C11.746 4.85801 11.882 4.79001 12.019 4.81301C12.247 4.83501 12.429 5.06301 12.406 5.29101V5.42801C12.383 5.51901 12.383 5.61001 12.361 5.70101C12.361 5.74601 12.338 5.79201 12.338 5.83701V5.86001C12.29 6.13301 12.29 6.38401 12.29 6.63401C12.313 6.70201 12.335 6.77001 12.404 6.81601V6.79301L12.427 6.97501C13.497 7.08901 14.544 7.49901 15.387 8.15901C15.57 8.34101 15.774 8.52301 15.956 8.70501L16.139 8.59101H16.161C16.183 8.61401 16.229 8.61401 16.252 8.61401C16.298 8.61401 16.343 8.59101 16.389 8.56901C16.594 8.43201 16.799 8.25001 16.958 8.06801C16.98 8.04501 17.026 8.02201 17.049 7.97701C17.095 7.90901 17.163 7.84001 17.232 7.77201C17.254 7.77201 17.277 7.75001 17.3 7.72701L17.322 7.70401C17.413 7.63601 17.527 7.59001 17.64 7.59001C17.754 7.59001 17.891 7.65801 17.959 7.75001C18.118 7.95501 18.072 8.22801 17.868 8.38701C17.868 8.41001 17.89 8.41001 17.868 8.43301C17.845 8.45501 17.822 8.45501 17.8 8.47801C17.708 8.52301 17.64 8.56901 17.549 8.61501C17.504 8.63701 17.458 8.66001 17.412 8.68301C17.184 8.82001 16.979 8.95601 16.774 9.13801C16.729 9.18401 16.706 9.27501 16.706 9.34301V9.36601L16.57 9.50301C16.934 10.072 17.208 10.71 17.367 11.37C17.504 12.03 17.549 12.713 17.458 13.373L17.64 13.419C17.663 13.487 17.732 13.555 17.8 13.578C18.05 13.646 18.323 13.692 18.573 13.715H18.596C18.641 13.737 18.687 13.737 18.733 13.737C18.824 13.737 18.915 13.737 19.005 13.76C19.051 13.76 19.097 13.76 19.097 13.783C19.097 13.805 19.119 13.805 19.142 13.805C19.347 13.851 19.53 14.033 19.552 14.284C19.485 14.467 19.304 14.604 19.099 14.604Z" fill="#0B0F19"/>
<path d="M12.085 14.718C11.926 14.627 11.744 14.672 11.63 14.809L10.514 16.836C10.97 16.972 11.471 17.064 11.949 17.064C12.29 17.064 12.609 17.019 12.928 16.95C13.087 16.905 13.224 16.882 13.361 16.859L12.268 14.878C12.199 14.809 12.153 14.763 12.085 14.718ZM15.729 10.277L14.021 11.825C13.975 11.87 13.953 11.916 13.93 11.985C13.884 12.19 13.998 12.395 14.203 12.44L16.366 13.055C16.411 12.577 16.388 12.099 16.274 11.62C16.161 11.143 15.979 10.687 15.729 10.277ZM13.656 13.761C13.497 13.829 13.406 14.011 13.451 14.194L14.34 16.335C14.886 15.993 15.364 15.515 15.706 14.969C15.888 14.719 16.024 14.422 16.139 14.104L13.862 13.717C13.793 13.716 13.725 13.738 13.656 13.761Z" fill="#0B0F19"/>
</svg>
