<svg width="24" height="24" viewBox="0 0 24 24" fill="none" xmlns="http://www.w3.org/2000/svg">
<path d="M21.062 10.414C19.026 14.763 14.113 20.681 11.008 20.681C7.948 20.681 7.507 14.154 5.835 9.81201C5.012 7.67401 4.481 8.16601 2.939 9.24501L2 8.03101C4.248 6.05501 6.499 3.75901 7.88 3.63201C9.439 3.48401 10.397 4.54801 10.753 6.82501C11.228 9.81901 11.89 14.466 13.044 14.466C13.944 14.466 16.161 10.78 16.276 9.46201C16.479 7.53201 14.855 7.47301 13.448 8.07501C15.676 0.780013 24.942 2.12501 21.062 10.414Z" fill="#0B0F19"/>
</svg>
