<svg width="24" height="24" viewBox="0 0 24 24" fill="none" xmlns="http://www.w3.org/2000/svg">
<path d="M12.177 9.05899C10.204 9.05899 8.60095 10.665 8.60095 12.643C8.60095 14.621 10.205 16.228 12.177 16.228C14.156 16.228 15.752 14.621 15.752 12.643C15.752 10.666 14.15 9.05899 12.177 9.05899ZM14.695 11.327L12.329 12.556C12.259 12.595 12.176 12.539 12.176 12.463V9.79099H12.177C12.177 9.73099 12.231 9.68699 12.286 9.68699C13.307 9.72499 14.235 10.29 14.738 11.179C14.766 11.234 14.749 11.3 14.695 11.327Z" fill="#0B0F19"/>
<path d="M18.578 3H5.361C4.055 3 3 4.061 3 5.366V18.643C3 19.954 4.062 21.014 5.361 21.014H18.578C19.884 21.014 20.939 19.949 20.939 18.642V5.372C20.939 4.061 19.878 3 18.578 3ZM10.466 6.404C10.465 5.973 10.815 5.623 11.245 5.623H13.06C13.49 5.623 13.838 5.973 13.838 6.404V7.022C13.838 7.031 13.837 7.04 13.835 7.049C13.821 7.105 13.764 7.14 13.707 7.126C13.21 6.989 12.696 6.919 12.182 6.919C11.647 6.919 11.115 6.994 10.601 7.143C10.531 7.159 10.465 7.11 10.465 7.039V6.404H10.466ZM7.08 8.993C6.775 8.688 6.776 8.194 7.081 7.89L7.452 7.519C7.453 7.518 7.454 7.518 7.454 7.517C7.759 7.213 8.25 7.215 8.553 7.519L8.863 7.83C8.906 7.88 8.901 7.957 8.846 7.989C8.597 8.169 8.361 8.371 8.144 8.59C7.928 8.807 7.729 9.041 7.55 9.289C7.506 9.338 7.436 9.349 7.387 9.3L7.081 8.994C7.081 8.994 7.081 8.993 7.08 8.993ZM12.177 17.73C9.375 17.73 7.103 15.457 7.103 12.643C7.103 9.83 9.375 7.551 12.177 7.551C14.984 7.551 17.251 9.823 17.251 12.637C17.251 15.452 14.979 17.73 12.177 17.73Z" fill="#0B0F19"/>
</svg>
