<svg width="24" height="24" viewBox="0 0 24 24" fill="none" xmlns="http://www.w3.org/2000/svg">
<path d="M12.002 2.00503L12 2.00403C6.48003 2.00403 2.00403 6.47903 2.00403 11.999C2.00403 17.52 6.48103 21.997 12 21.997C17.521 21.997 21.996 17.522 21.996 12C21.996 6.48003 17.521 2.00503 12.002 2.00503ZM12.164 15.535C12.117 15.577 12.055 15.6 11.99 15.601V15.602H6.45503C6.30903 15.601 6.18903 15.482 6.18903 15.334C6.18903 15.333 6.18903 15.333 6.18903 15.333V8.64603C6.18903 8.49803 6.30803 8.37803 6.45503 8.37803H9.04403C10.656 8.37803 11.62 9.24803 11.62 10.705C11.62 11.674 11.134 12.434 10.348 12.744L12.19 15.157C12.287 15.268 12.275 15.438 12.164 15.535ZM15.859 15.603H13.194C13.048 15.602 12.928 15.483 12.928 15.334V8.64603C12.928 8.49803 13.047 8.37903 13.194 8.37903H15.666C17.519 8.37903 17.908 9.47003 17.908 10.386C17.908 10.915 17.767 11.335 17.487 11.644C18.168 11.924 18.534 12.557 18.534 13.471C18.534 14.806 17.533 15.603 15.859 15.603Z" fill="#0B0F19"/>
</svg>
