<svg width="24" height="24" viewBox="0 0 24 24" fill="none" xmlns="http://www.w3.org/2000/svg">
<path d="M20.553 18.15H3.447C2.652 18.15 2.005 17.504 2.005 16.709V7.29101C2.005 6.49601 2.652 5.85001 3.447 5.85001H20.552C21.347 5.85001 21.994 6.49601 21.994 7.29101V16.709C21.995 17.504 21.348 18.15 20.553 18.15ZM6.811 15.268V11.52L8.733 13.922L10.655 11.52V15.268H12.577V8.73201H10.655L8.733 11.135L6.811 8.73201H4.889V15.267H6.811V15.268ZM19.688 12H17.766V8.73201H15.843V12H13.921L16.805 15.364L19.688 12Z" fill="#0B0F19"/>
</svg>
