<svg width="24" height="24" viewBox="0 0 24 24" fill="none" xmlns="http://www.w3.org/2000/svg">
<path d="M19.361 3.008H4.638C3.737 3.008 3.008 3.737 3.008 4.638V19.362C3.008 20.262 3.737 20.993 4.638 20.993H19.362C20.262 20.993 20.993 20.263 20.993 19.362V4.638C20.992 3.736 20.262 3.008 19.361 3.008ZM9.018 6.505C9.615 6.505 10.116 6.977 10.116 7.583C10.116 8.199 9.615 8.663 9.018 8.663V8.685C8.414 8.685 7.928 8.199 7.928 7.597C7.928 6.992 8.414 6.505 9.018 6.505ZM16.372 16.857C15.26 16.857 14.721 16.195 14.721 15.291C14.721 15.031 14.754 14.758 14.835 14.479L15.363 12.573C15.431 12.365 15.449 12.168 15.449 11.992C15.449 11.377 15.074 11.008 14.478 11.008C13.717 11.008 13.218 11.551 12.958 12.606L11.925 16.752H10.114L10.441 15.449C9.907 16.322 9.17 16.861 8.258 16.861C7.156 16.861 6.641 16.229 6.641 15.277C6.647 15.005 6.676 14.731 6.737 14.466L7.563 11.1H6.285L6.673 9.67H9.748L8.532 14.474C8.452 14.783 8.422 15.033 8.422 15.212C8.422 15.519 8.57 15.608 8.807 15.664C8.953 15.694 10.102 15.675 10.725 14.288L11.523 11.1H10.229L10.62 9.696H13.407L13.048 11.313C13.532 10.414 14.5 9.551 15.454 9.551C16.466 9.551 17.309 10.279 17.309 11.662C17.309 12.062 17.246 12.458 17.129 12.842L16.609 14.7C16.566 14.888 16.534 15.047 16.534 15.192C16.534 15.518 16.67 15.676 16.902 15.676C17.14 15.676 17.455 15.495 17.801 14.504L18.509 14.776C18.095 16.249 17.327 16.857 16.372 16.857Z" fill="#0B0F19"/>
</svg>
