<svg width="24" height="24" viewBox="0 0 24 24" fill="none" xmlns="http://www.w3.org/2000/svg">
<path d="M12.555 17.025C11.931 15.798 11.201 14.56 9.774 14.56C9.503 14.56 9.228 14.606 8.979 14.717L8.495 13.75C9.085 13.241 10.039 12.839 11.265 12.839C13.173 12.839 14.154 13.761 14.932 14.933C15.391 13.932 15.61 12.579 15.61 10.903C15.61 6.715 14.302 4.567 11.244 4.567C8.23 4.567 6.926 6.715 6.926 10.903C6.926 15.067 8.231 17.194 11.244 17.194C11.722 17.194 12.157 17.143 12.555 17.025ZM13.302 18.486C12.641 18.664 11.939 18.76 11.243 18.76C7.229 18.76 3.302 15.558 3.302 10.902C3.303 6.203 7.229 3 11.243 3C15.324 3 19.215 6.179 19.215 10.903C19.215 13.531 17.989 15.666 16.208 17.046C16.78 17.907 17.365 18.482 18.196 18.482C19.095 18.482 19.457 17.795 19.524 17.246H20.691C20.761 17.976 20.39 21 17.117 21C15.128 21 14.082 19.854 13.295 18.504L13.302 18.486Z" fill="#0B0F19"/>
</svg>
