<svg width="24" height="24" viewBox="0 0 24 24" fill="none" xmlns="http://www.w3.org/2000/svg">
<path d="M13.551 11.485C12.236 11.485 11.223 12.554 11.223 13.817C11.223 15.131 12.236 16.13 13.664 16.13L13.652 16.132C14.844 16.132 15.845 15.149 15.845 13.852C15.846 12.503 14.844 11.485 13.551 11.485Z" fill="#0B0F19"/>
<path d="M3 3V21H21V3H3ZM18.52 18.605H15.838V17.547C15.013 18.357 14.171 18.65 13.052 18.65C11.91 18.65 10.928 18.279 10.105 17.536C9.019 16.58 8.457 15.309 8.457 13.835C8.457 12.484 8.981 11.274 9.964 10.329C10.842 9.47 11.91 9.031 13.103 9.031C14.243 9.031 15.121 9.416 15.75 10.223V6.118L18.52 5.544V5.542L18.522 5.545H18.52V18.605Z" fill="#0B0F19"/>
</svg>
