<svg width="24" height="24" viewBox="0 0 24 24" fill="none" xmlns="http://www.w3.org/2000/svg">
<path d="M21.957 6.73001C21.978 6.69601 21.967 6.65601 21.938 6.63301C21.934 6.62901 21.93 6.62501 21.926 6.62301L21.92 6.62101L15.887 3.60301C15.846 3.58301 15.804 3.57001 15.761 3.55801C15.705 3.54401 15.651 3.53601 15.595 3.53601C15.364 3.53601 15.133 3.65201 15.009 3.85301L11.535 9.49901L15.894 16.582L21.957 6.73001ZM20.893 20.273C21.504 20.579 22 20.365 22 19.795V8.48301L16.191 17.922L20.893 20.273ZM9.622 8.21301V14.639L15.333 17.494L9.622 8.21301ZM2.554 17.771L7.744 20.366C7.876 20.432 8.003 20.464 8.118 20.464C8.441 20.464 8.667 20.214 8.667 19.795V6.70101C8.667 6.67601 8.653 6.65301 8.632 6.64201L2.739 3.69701C2.632 3.64301 2.531 3.61801 2.439 3.61801C2.181 3.61801 2 3.81701 2 4.15201V16.875C2 17.216 2.25 17.619 2.554 17.771Z" fill="#0B0F19"/>
</svg>
