<svg width="24" height="24" viewBox="0 0 24 24" fill="none" xmlns="http://www.w3.org/2000/svg">
<path d="M6.194 14.644C6.194 15.804 5.251 16.751 4.091 16.751C2.933 16.751 1.987 15.804 1.987 14.644C1.987 13.484 2.933 12.538 4.091 12.538H6.194V14.644ZM7.255 14.644C7.255 13.484 8.199 12.538 9.359 12.538C10.515 12.538 11.462 13.484 11.462 14.644V19.918C11.462 21.078 10.516 22.024 9.359 22.024C8.199 22.024 7.255 21.078 7.255 19.918V14.644ZM9.359 6.18901C8.199 6.18901 7.255 5.24101 7.255 4.08201C7.255 2.92301 8.199 1.97601 9.359 1.97601C10.515 1.97601 11.462 2.92201 11.462 4.08201V6.18901H9.359ZM9.359 7.24901C10.515 7.24901 11.462 8.19601 11.462 9.35601C11.462 10.516 10.516 11.462 9.359 11.462H4.092C2.934 11.462 1.988 10.516 1.988 9.35601C1.988 8.19601 2.934 7.24901 4.092 7.24901H9.359ZM17.806 9.35601C17.806 8.19601 18.749 7.24901 19.909 7.24901C21.067 7.24901 22.013 8.19601 22.013 9.35601C22.013 10.516 21.067 11.462 19.909 11.462H17.806V9.35601ZM16.745 9.35601C16.745 10.516 15.801 11.462 14.641 11.462C13.485 11.462 12.538 10.516 12.538 9.35601V4.08201C12.538 2.92201 13.484 1.97601 14.641 1.97601C15.801 1.97601 16.745 2.92201 16.745 4.08201V9.35601ZM14.641 17.811C15.801 17.811 16.745 18.759 16.745 19.918C16.745 21.077 15.801 22.024 14.641 22.024C13.485 22.024 12.538 21.078 12.538 19.918V17.811H14.641ZM14.641 16.751C13.485 16.751 12.538 15.804 12.538 14.644C12.538 13.484 13.484 12.538 14.641 12.538H19.909C21.067 12.538 22.013 13.484 22.013 14.644C22.013 15.804 21.067 16.751 19.909 16.751H14.641Z" fill="#0B0F19"/>
</svg>
