<svg width="24" height="24" viewBox="0 0 24 24" fill="none" xmlns="http://www.w3.org/2000/svg">
<path d="M20.954 10.667C20.882 10.345 20.682 10.046 20.452 9.922C20.382 9.883 19.93 9.834 19.448 9.813C18.639 9.777 18.55 9.761 18.296 9.612C17.891 9.375 17.78 9.119 17.778 8.425C17.776 7.098 17.224 5.866 16.132 4.755C15.356 3.962 14.487 3.426 13.498 3.126C13.262 3.054 12.73 3.029 10.953 3.008C8.16599 2.975 7.54799 3.032 6.59699 3.41C4.84899 4.107 3.58899 5.576 3.13199 7.46C3.04499 7.813 3.02899 8.38 3.00799 11.637C2.98299 15.717 3.01199 16.317 3.26599 17.125C3.47799 17.793 3.69099 18.202 4.12699 18.782C4.96199 19.89 6.20999 20.689 7.46099 20.915C8.05599 21.022 15.392 21.05 16.144 20.947C17.45 20.769 18.475 20.245 19.437 19.263C20.131 18.553 20.566 17.784 20.851 16.764C20.968 16.34 20.978 16.134 21 13.647C21.017 11.769 21.002 10.889 20.954 10.667ZM8.00699 8.108C8.31999 7.792 8.40599 7.779 10.371 7.779C12.135 7.779 12.193 7.783 12.452 7.913C12.827 8.102 12.99 8.369 12.99 8.793C12.99 9.177 12.837 9.446 12.497 9.662C12.313 9.777 12.204 9.785 10.476 9.795C9.40899 9.802 8.55999 9.782 8.43299 9.747C7.76399 9.563 7.51499 8.604 8.00699 8.108ZM15.713 16.145L15.116 16.243L12.002 16.278C9.26599 16.311 8.49099 16.26 8.34999 16.198C8.06199 16.074 7.79599 15.726 7.74799 15.418C7.70599 15.126 7.85199 14.722 8.07799 14.518C8.36299 14.261 8.48699 14.252 11.989 14.248C15.591 14.246 15.572 14.245 15.914 14.563C16.396 15.013 16.295 15.814 15.713 16.145Z" fill="#0B0F19"/>
</svg>
