<svg width="24" height="24" viewBox="0 0 24 24" fill="none" xmlns="http://www.w3.org/2000/svg">
<path d="M20.354 6.47901C18.676 3.95601 15.961 2.33701 12.933 2.05001C9.82501 1.75601 6.90201 2.82101 4.81001 5.01301C3.53301 6.35001 2.69901 7.83901 2.21001 9.66001C1.99301 10.465 1.96301 10.764 1.96601 12.056C1.96801 13.349 2.00001 13.655 2.22101 14.488C3.18401 18.121 6.01801 20.91 9.67201 21.82C9.98701 21.898 10.374 21.98 10.531 22.002C11.227 22.099 12.912 22.058 13.662 21.927C16.75 21.389 19.494 19.396 20.902 16.669C22.546 13.488 22.328 9.44701 20.354 6.47901ZM19.944 14.167C19.136 17.157 16.681 19.439 13.583 20.079C8.75201 21.076 4.04501 17.421 3.74401 12.438C3.55001 9.22101 5.49901 5.99201 8.48901 4.57501C9.62201 4.03901 10.534 3.84201 11.914 3.83701C13.241 3.83301 13.978 3.96901 15.137 4.43301C17.461 5.36401 19.283 7.47301 19.953 10.006C20.234 11.066 20.229 13.109 19.944 14.167Z" fill="#0B0F19"/>
<path d="M8.04203 14.955C7.12703 14.631 6.42603 13.68 6.30203 12.595C6.11903 10.988 6.72403 9.73903 7.95603 9.18003C8.62503 8.87703 9.83803 8.88403 10.559 9.19603C10.997 9.38603 11.82 10.129 11.82 10.335C11.82 10.368 11.536 10.536 11.189 10.707L10.557 11.019L10.22 10.682C10.033 10.494 9.74503 10.319 9.57103 10.286C9.13803 10.204 8.61903 10.397 8.38403 10.726C7.99503 11.272 7.96903 12.698 8.33603 13.259C8.52703 13.55 8.84803 13.753 9.14903 13.777C9.78403 13.827 9.94503 13.771 10.321 13.376L10.7 12.978L11.188 13.247C11.457 13.395 11.715 13.552 11.763 13.594C11.927 13.742 11.171 14.514 10.564 14.818C10.047 15.077 9.88503 15.111 9.20603 15.104C8.78103 15.098 8.25703 15.03 8.04203 14.955ZM13.858 14.955C12.957 14.635 12.267 13.714 12.119 12.63C11.904 11.061 12.538 9.74203 13.773 9.18003C14.49 8.85603 15.707 8.88003 16.434 9.23603C16.884 9.45703 17.635 10.147 17.635 10.34C17.635 10.374 17.34 10.543 16.981 10.717L16.327 11.034L15.986 10.664C15.682 10.332 15.601 10.295 15.184 10.295C14.608 10.295 14.239 10.52 14.039 10.993C13.859 11.416 13.838 12.454 13.996 12.927C14.32 13.888 15.501 14.115 16.171 13.346L16.475 13L17.055 13.294C17.375 13.455 17.637 13.613 17.637 13.646C17.637 13.865 16.887 14.564 16.381 14.816C15.864 15.075 15.702 15.109 15.023 15.103C14.598 15.098 14.074 15.03 13.858 14.955Z" fill="#0B0F19"/>
</svg>
