<svg width="24" height="24" viewBox="0 0 24 24" fill="none" xmlns="http://www.w3.org/2000/svg">
<path d="M12 13.03C12.9858 13.03 13.785 12.2309 13.785 11.245C13.785 10.2592 12.9858 9.46002 12 9.46002C11.0142 9.46002 10.215 10.2592 10.215 11.245C10.215 12.2309 11.0142 13.03 12 13.03Z" fill="#0B0F19"/>
<path d="M7.00201 14.794L6.60701 14.693C3.67301 13.952 1.99001 12.692 1.99001 11.241C1.99001 9.78899 3.67401 8.52999 6.60701 7.78899L7.00201 7.68899L7.11301 8.07999C7.41001 9.10299 7.78901 10.102 8.24901 11.063L8.33401 11.241L8.24901 11.419C7.78901 12.382 7.40801 13.38 7.11301 14.404L7.00201 14.794ZM6.42501 8.69899C4.19601 9.32699 2.82701 10.285 2.82701 11.241C2.82701 12.195 4.19501 13.154 6.42501 13.781C6.69801 12.913 7.02801 12.064 7.41001 11.241C7.02501 10.416 6.69601 9.56699 6.42501 8.69899ZM16.997 14.794L16.887 14.402C16.589 13.378 16.21 12.38 15.75 11.418L15.665 11.241L15.75 11.062C16.21 10.101 16.589 9.10199 16.887 8.07799L16.997 7.68799L17.392 7.78799C20.327 8.52899 22.009 9.78799 22.009 11.241C22.009 12.693 20.326 13.952 17.392 14.693L16.997 14.794ZM16.587 11.241C16.987 12.107 17.32 12.959 17.574 13.781C19.804 13.154 21.173 12.195 21.173 11.241C21.173 10.285 19.805 9.32799 17.574 8.69899C17.301 9.56699 16.972 10.416 16.587 11.241Z" fill="#0B0F19"/>
<path d="M6.41901 8.695L6.30901 8.305C5.48301 5.397 5.73301 3.314 6.99601 2.588C8.23101 1.873 10.218 2.718 12.299 4.853L12.583 5.145L12.299 5.436C11.56 6.205 10.884 7.032 10.279 7.91L10.166 8.072L9.97001 8.088C8.90701 8.171 7.85101 8.342 6.81301 8.597L6.41901 8.695ZM8.00101 3.166C7.77701 3.166 7.57901 3.215 7.41201 3.311C6.58401 3.788 6.43801 5.449 7.00801 7.691C7.89901 7.494 8.79801 7.353 9.70401 7.274C10.229 6.529 10.801 5.821 11.417 5.151C10.114 3.884 8.88401 3.166 8.00101 3.166ZM15.998 20.15C14.81 20.15 13.284 19.254 11.7 17.628L11.417 17.337L11.7 17.047C12.439 16.277 13.116 15.448 13.721 14.57L13.833 14.41L14.027 14.391C15.092 14.309 16.149 14.139 17.185 13.884L17.58 13.784L17.691 14.175C18.513 17.081 18.264 19.167 17.003 19.893C16.698 20.066 16.352 20.155 15.998 20.15ZM12.583 17.33C13.885 18.597 15.116 19.316 15.998 19.316C16.223 19.316 16.421 19.266 16.587 19.171C17.416 18.693 17.563 17.029 16.991 14.787C16.101 14.985 15.201 15.127 14.293 15.206C13.771 15.951 13.199 16.661 12.583 17.33Z" fill="#0B0F19"/>
<path d="M17.58 8.69501L17.185 8.59601C16.149 8.34001 15.092 8.17001 14.027 8.08701L13.833 8.07001L13.721 7.90801C13.117 7.03001 12.44 6.20301 11.7 5.43401L11.417 5.14301L11.7 4.85301C13.78 2.71901 15.766 1.87401 17.003 2.58801C18.265 3.31501 18.516 5.39801 17.691 8.30501L17.58 8.69501ZM14.293 7.27401C15.247 7.35901 16.151 7.50201 16.991 7.69101C17.562 5.44901 17.416 3.78801 16.587 3.31001C15.763 2.83301 14.212 3.56301 12.583 5.15101C13.199 5.82101 13.771 6.52901 14.293 7.27401ZM8.00101 20.15C7.64801 20.155 7.30201 20.066 6.99601 19.893C5.73301 19.167 5.48301 17.082 6.30801 14.175L6.41601 13.784L6.81101 13.884C7.77501 14.127 8.83701 14.298 9.96901 14.391L10.163 14.41L10.276 14.57C10.88 15.448 11.556 16.277 12.296 17.047L12.58 17.337L12.296 17.628C10.713 19.255 9.18701 20.15 8.00101 20.15ZM7.00801 14.788C6.43801 17.03 6.58401 18.694 7.41201 19.172C8.23701 19.642 9.78301 18.917 11.417 17.33C10.801 16.66 10.229 15.951 9.70401 15.207C8.79801 15.128 7.89801 14.986 7.00801 14.788Z" fill="#0B0F19"/>
<path d="M12 15.313C11.313 15.313 10.608 15.284 9.9 15.225L9.704 15.208L9.591 15.046C9.193 14.474 8.817 13.883 8.465 13.277C8.116 12.67 7.793 12.051 7.494 11.418L7.41 11.241L7.494 11.062C7.793 10.43 8.116 9.81002 8.465 9.20402C8.812 8.60802 9.191 8.01202 9.591 7.43402L9.704 7.27402L9.9 7.25602C11.297 7.13902 12.701 7.13902 14.098 7.25602L14.292 7.27502L14.405 7.43502C15.204 8.58402 15.908 9.79702 16.505 11.063L16.588 11.242L16.505 11.419C15.908 12.687 15.206 13.9 14.405 15.047L14.292 15.209L14.098 15.226C13.392 15.283 12.686 15.313 12 15.313ZM10.166 14.409C11.401 14.502 12.599 14.502 13.833 14.409C14.523 13.399 15.134 12.341 15.665 11.241C15.136 10.139 14.523 9.08002 13.833 8.07302C12.612 7.97902 11.387 7.97902 10.166 8.07302C9.477 9.08002 8.861 10.138 8.334 11.241C8.865 12.341 9.479 13.399 10.166 14.409Z" fill="#0B0F19"/>
</svg>
