<svg width="24" height="24" viewBox="0 0 24 24" fill="none" xmlns="http://www.w3.org/2000/svg">
<path d="M19.511 9.722C19.112 8.251 18.291 6.93 17.152 5.918L17.117 5.953L17.122 5.911C13.888 3.059 8.95299 3.366 6.09999 6.599C5.30699 7.498 4.73099 8.566 4.41799 9.722C4.44899 9.709 4.48399 9.709 4.51699 9.699C2.99599 10.718 1.99599 12.456 2.00699 14.425C2.01799 16.166 2.83099 17.804 4.21099 18.865L4.21699 18.859L4.21099 18.883C5.19099 19.624 6.38899 20.022 7.61799 20.017H11.939L11.963 20.041H16.304C19.421 20.065 21.968 17.558 21.992 14.44C22.007 12.552 21.076 10.781 19.511 9.722ZM16.305 16.567H11.964L11.958 16.573V16.542H7.61799C7.30999 16.542 7.00699 16.476 6.72599 16.349L6.72799 16.348C5.63499 15.854 5.14999 14.569 5.64299 13.477C6.13699 12.385 7.42199 11.899 8.51399 12.393C8.99499 12.611 9.38099 12.996 9.59799 13.477L12.116 10.959C11.272 9.856 10.059 9.122 8.71999 8.859C8.73799 8.85 8.75499 8.835 8.76999 8.838C10.315 7.141 12.916 6.943 14.701 8.387H14.747C15.755 9.228 16.329 10.48 16.305 11.794V12.227C17.503 12.227 18.475 13.198 18.475 14.397C18.475 15.596 17.503 16.567 16.305 16.567Z" fill="#0B0F19"/>
</svg>
