<svg width="24" height="24" viewBox="0 0 24 24" fill="none" xmlns="http://www.w3.org/2000/svg">
<path d="M8.71 6.366C7.604 7.67 6.888 9.602 6.838 11.765V12.236C6.888 14.401 7.604 16.33 8.71 17.633C10.144 19.498 12.274 20.679 14.658 20.679C16.121 20.679 17.492 20.231 18.664 19.454C16.898 21.038 14.563 22 12 22C11.84 22 11.682 21.996 11.525 21.987C6.22 21.741 2 17.364 2 12C2 6.477 6.478 2 12 2H12.038C14.583 2.009 16.904 2.972 18.665 4.545C17.492 3.772 16.122 3.32 14.656 3.32C12.274 3.32 10.142 4.504 8.706 6.366H8.71ZM22 12C22 14.964 20.712 17.624 18.665 19.455C16.101 20.705 13.711 19.83 12.918 19.283C15.438 18.73 17.34 15.683 17.34 12C17.34 8.314 15.439 5.27 12.918 4.717C13.71 4.172 16.101 3.297 18.665 4.545C20.712 6.375 22 9.037 22 12Z" fill="#0B0F19"/>
</svg>
