<svg width="24" height="24" viewBox="0 0 24 24" fill="none" xmlns="http://www.w3.org/2000/svg">
<path d="M12.043 6.92499C9.29699 6.92499 7.06399 9.15799 7.06299 11.904C7.06199 12.844 7.32599 13.76 7.82399 14.553L7.94199 14.741L7.43899 16.578L9.32399 16.084L9.50499 16.192C10.271 16.646 11.146 16.885 12.04 16.885H12.041C14.785 16.885 17.018 14.652 17.02 11.907C17.021 10.576 16.503 9.32499 15.564 8.38499C14.622 7.44299 13.372 6.92499 12.043 6.92499ZM14.971 14.043C14.846 14.393 14.248 14.711 13.961 14.754C13.703 14.793 13.376 14.809 13.018 14.695C12.801 14.627 12.523 14.534 12.165 14.38C10.663 13.732 9.68299 12.221 9.60699 12.12C9.53299 12.02 8.99699 11.308 8.99699 10.572C8.99699 9.83499 9.38299 9.47299 9.51999 9.32299C9.65799 9.17399 9.81899 9.13699 9.91999 9.13699C10.02 9.13699 10.119 9.13799 10.207 9.14199C10.299 9.14599 10.422 9.10699 10.543 9.39899C10.668 9.69899 10.968 10.435 11.005 10.51C11.042 10.584 11.067 10.672 11.018 10.772C10.968 10.873 10.944 10.934 10.868 11.022C10.794 11.11 10.711 11.217 10.644 11.285C10.569 11.359 10.491 11.44 10.578 11.59C10.666 11.739 10.966 12.23 11.41 12.627C11.982 13.137 12.465 13.294 12.614 13.37C12.764 13.444 12.851 13.433 12.939 13.332C13.026 13.231 13.313 12.895 13.413 12.746C13.513 12.596 13.612 12.621 13.75 12.67C13.887 12.721 14.623 13.082 14.772 13.157C14.92 13.231 15.021 13.269 15.059 13.332C15.095 13.394 15.095 13.693 14.971 14.043Z" fill="#0B0F19"/>
<path d="M20 3H4C3.447 3 3 3.447 3 4V20C3 20.553 3.447 21 4 21H20C20.553 21 21 20.553 21 20V4C21 3.447 20.553 3 20 3ZM12.04 17.896H12.038C11.035 17.896 10.051 17.644 9.176 17.167L6 18L6.85 14.896C6.327 13.988 6.051 12.958 6.051 11.902C6.053 8.6 8.739 5.913 12.04 5.913C13.644 5.914 15.146 6.537 16.278 7.67C17.408 8.802 18.031 10.307 18.029 11.907C18.028 15.209 15.341 17.896 12.04 17.896Z" fill="#0B0F19"/>
</svg>
