<svg width="24" height="24" viewBox="0 0 24 24" fill="none" xmlns="http://www.w3.org/2000/svg">
<path fill-rule="evenodd" clip-rule="evenodd" d="M10.4408 1.0803C10.8092 0.923055 11.2359 1.00081 11.5251 1.27791C12.2702 1.99168 13.2236 3.57755 13.697 5.39742C14.1032 6.95931 14.193 8.84439 13.3613 10.589C13.5124 10.6264 13.6221 10.6049 13.7234 10.5661C14.1134 10.4168 14.7776 9.85116 15.8173 8.17808C15.9818 7.91343 16.2602 7.74056 16.5704 7.71056C16.8805 7.68055 17.1869 7.79683 17.3991 8.02504C18.0547 8.73032 18.6929 9.81082 19.1648 10.9067C19.6338 11.9957 20 13.2417 20 14.2941C20 16.3521 19.1462 18.3165 17.6415 19.758C16.1383 21.1981 14.1082 22 12 22C9.89179 22 7.86174 21.1981 6.35848 19.758C4.85376 18.3165 4 16.3521 4 14.2941C4 12.064 5.00707 9.5929 6.63175 7.99332L6.63233 7.99275C6.67011 7.95562 6.70807 7.91835 6.74619 7.88093C8.18162 6.47199 9.83333 4.85074 9.83333 2.00002C9.83333 1.59946 10.0724 1.23755 10.4408 1.0803ZM11.3803 4.76599C10.6609 6.85054 9.23432 8.24541 8.21382 9.24326C8.15265 9.30308 8.09293 9.36147 8.03491 9.4185C6.79893 10.6354 6 12.5901 6 14.2941C6 15.7932 6.62124 17.2401 7.74203 18.3138C8.86427 19.3889 10.3952 20 12 20C13.6048 20 15.1357 19.3889 16.258 18.3138C17.3788 17.2401 18 15.7932 18 14.2941C18 13.6343 17.7502 12.6786 17.3279 11.6977C17.1345 11.2486 16.9179 10.8243 16.6969 10.4503C15.9521 11.4546 15.2238 12.1333 14.4384 12.4339C13.197 12.9092 12.1635 12.3467 11.379 11.725C10.9631 11.3954 10.877 10.7984 11.1828 10.3648C12.1183 9.0385 12.1568 7.42107 11.7614 5.90087C11.6566 5.49822 11.5251 5.11689 11.3803 4.76599Z" fill="#0B0F19"/>
</svg>
