<svg width="44" height="17" viewBox="0 0 44 17" fill="none" xmlns="http://www.w3.org/2000/svg">
<path d="M0.28 12V0.48H1.456V10.872H6.928V12H0.28ZM11.8999 12.24C11.0412 12.24 10.3079 12.0453 9.69988 11.656C9.09188 11.2667 8.62521 10.728 8.29988 10.04C7.97454 9.352 7.81188 8.56267 7.81188 7.672C7.81188 6.76533 7.97721 5.97067 8.30788 5.288C8.63854 4.60533 9.10788 4.07467 9.71588 3.696C10.3292 3.312 11.0572 3.12 11.8999 3.12C12.7639 3.12 13.4999 3.31467 14.1079 3.704C14.7212 4.088 15.1879 4.624 15.5079 5.312C15.8332 5.99467 15.9959 6.78133 15.9959 7.672C15.9959 8.57867 15.8332 9.376 15.5079 10.064C15.1825 10.7467 14.7132 11.28 14.0999 11.664C13.4865 12.048 12.7532 12.24 11.8999 12.24ZM11.8999 11.112C12.8599 11.112 13.5745 10.7947 14.0439 10.16C14.5132 9.52 14.7479 8.69067 14.7479 7.672C14.7479 6.62667 14.5105 5.79467 14.0359 5.176C13.5665 4.55733 12.8545 4.248 11.8999 4.248C11.2545 4.248 10.7212 4.39467 10.2999 4.688C9.88388 4.976 9.57188 5.37867 9.36388 5.896C9.16121 6.408 9.05988 7 9.05988 7.672C9.05988 8.712 9.29988 9.54667 9.77988 10.176C10.2599 10.8 10.9665 11.112 11.8999 11.112ZM21.1926 16.08C20.75 16.08 20.3126 16.0133 19.8806 15.88C19.454 15.752 19.0593 15.5467 18.6966 15.264C18.334 14.9867 18.03 14.624 17.7846 14.176L18.8486 13.584C19.0886 14.064 19.4246 14.408 19.8566 14.616C20.294 14.8293 20.7393 14.936 21.1926 14.936C21.8166 14.936 22.3206 14.8187 22.7046 14.584C23.094 14.3547 23.3766 14.0133 23.5526 13.56C23.7286 13.1067 23.814 12.5413 23.8086 11.864V9.56H23.9446V3.36H24.9926V11.88C24.9926 12.1253 24.9846 12.36 24.9686 12.584C24.958 12.8133 24.934 13.0373 24.8966 13.256C24.7953 13.9013 24.5846 14.432 24.2646 14.848C23.95 15.264 23.534 15.5733 23.0166 15.776C22.5046 15.9787 21.8966 16.08 21.1926 16.08ZM21.1126 12.24C20.3073 12.24 19.6193 12.04 19.0486 11.64C18.478 11.2347 18.0406 10.688 17.7366 10C17.4326 9.312 17.2806 8.536 17.2806 7.672C17.2806 6.81333 17.43 6.04 17.7286 5.352C18.0326 4.664 18.4673 4.12 19.0326 3.72C19.598 3.32 20.2753 3.12 21.0646 3.12C21.8753 3.12 22.558 3.31733 23.1126 3.712C23.6673 4.10667 24.086 4.648 24.3686 5.336C24.6566 6.01867 24.8006 6.79733 24.8006 7.672C24.8006 8.53067 24.6593 9.30667 24.3766 10C24.094 10.688 23.678 11.2347 23.1286 11.64C22.5793 12.04 21.9073 12.24 21.1126 12.24ZM21.2326 11.144C21.846 11.144 22.3526 10.9947 22.7526 10.696C23.1526 10.3973 23.4513 9.98667 23.6486 9.464C23.846 8.936 23.9446 8.33867 23.9446 7.672C23.9446 6.99467 23.846 6.39733 23.6486 5.88C23.4513 5.35733 23.1526 4.94933 22.7526 4.656C22.358 4.36267 21.8593 4.216 21.2566 4.216C20.638 4.216 20.126 4.368 19.7206 4.672C19.3153 4.976 19.014 5.38933 18.8166 5.912C18.6246 6.43467 18.5286 7.02133 18.5286 7.672C18.5286 8.328 18.6273 8.92 18.8246 9.448C19.0273 9.97067 19.3286 10.384 19.7286 10.688C20.1286 10.992 20.63 11.144 21.2326 11.144ZM30.8374 12.24C29.9787 12.24 29.2454 12.0453 28.6374 11.656C28.0294 11.2667 27.5627 10.728 27.2374 10.04C26.912 9.352 26.7494 8.56267 26.7494 7.672C26.7494 6.76533 26.9147 5.97067 27.2454 5.288C27.576 4.60533 28.0454 4.07467 28.6534 3.696C29.2667 3.312 29.9947 3.12 30.8374 3.12C31.7014 3.12 32.4374 3.31467 33.0454 3.704C33.6587 4.088 34.1254 4.624 34.4454 5.312C34.7707 5.99467 34.9334 6.78133 34.9334 7.672C34.9334 8.57867 34.7707 9.376 34.4454 10.064C34.12 10.7467 33.6507 11.28 33.0374 11.664C32.424 12.048 31.6907 12.24 30.8374 12.24ZM30.8374 11.112C31.7974 11.112 32.512 10.7947 32.9814 10.16C33.4507 9.52 33.6854 8.69067 33.6854 7.672C33.6854 6.62667 33.448 5.79467 32.9734 5.176C32.504 4.55733 31.792 4.248 30.8374 4.248C30.192 4.248 29.6587 4.39467 29.2374 4.688C28.8214 4.976 28.5094 5.37867 28.3014 5.896C28.0987 6.408 27.9974 7 27.9974 7.672C27.9974 8.712 28.2374 9.54667 28.7174 10.176C29.1974 10.8 29.904 11.112 30.8374 11.112ZM39.844 12.232C38.8307 12.232 37.996 12.0133 37.34 11.576C36.6893 11.1387 36.2893 10.5307 36.14 9.752L37.34 9.552C37.468 10.0427 37.7587 10.4347 38.212 10.728C38.6707 11.016 39.236 11.16 39.908 11.16C40.564 11.16 41.0813 11.024 41.46 10.752C41.8387 10.4747 42.028 10.0987 42.028 9.624C42.028 9.35733 41.9667 9.14133 41.844 8.976C41.7267 8.80533 41.484 8.648 41.116 8.504C40.748 8.36 40.1987 8.18933 39.468 7.992C38.684 7.77867 38.0707 7.56533 37.628 7.352C37.1853 7.13867 36.8707 6.89333 36.684 6.616C36.4973 6.33333 36.404 5.98933 36.404 5.584C36.404 5.09333 36.5427 4.664 36.82 4.296C37.0973 3.92267 37.4813 3.63467 37.972 3.432C38.4627 3.224 39.0333 3.12 39.684 3.12C40.3347 3.12 40.916 3.22667 41.428 3.44C41.9453 3.648 42.3613 3.94133 42.676 4.32C42.9907 4.69867 43.1773 5.13867 43.236 5.64L42.036 5.856C41.956 5.34933 41.7027 4.94933 41.276 4.656C40.8547 4.35733 40.3187 4.20267 39.668 4.192C39.0547 4.176 38.556 4.29333 38.172 4.544C37.788 4.78933 37.596 5.11733 37.596 5.528C37.596 5.75733 37.6653 5.95467 37.804 6.12C37.9427 6.28 38.1933 6.432 38.556 6.576C38.924 6.72 39.4467 6.87733 40.124 7.048C40.9187 7.25067 41.5427 7.464 41.996 7.688C42.4493 7.912 42.772 8.176 42.964 8.48C43.156 8.784 43.252 9.16 43.252 9.608C43.252 10.424 42.948 11.0667 42.34 11.536C41.7373 12 40.9053 12.232 39.844 12.232Z" fill="#565973"/>
</svg>
